SplineFontDB: 3.0
FontName: IranianSansWeb-Regular
FullName: Iranian Sans Web Regular
FamilyName: Iranian Sans 
Weight: Regular
Copyright: Copyright (c) 2014, font-store.ir <http://font-store.ir|info@font-store.ir>,with Reserved Font Name Iranian Sans .\n\nThis Font Software is licensed under the SIL Open Font License, Version 1.1.\nThis license is copied below, and is also available with a FAQ at:\nhttp://scripts.sil.org/OFL
Version: 5.0.2 build 3/9/1393
ItalicAngle: 0
UnderlinePosition: -48
UnderlineWidth: 48
Ascent: 760
Descent: 240
InvalidEm: 0
sfntRevision: 0x00020000
woffMajor: 5
woffMinor: 0
LayerCount: 2
Layer: 0 0 "Back" 1
Layer: 1 0 "Fore" 0
XUID: [1021 425 1075855985 24888]
BaseHoriz: 0
BaseVert: 0
StyleMap: 0x0040
FSType: 0
OS2Version: 4
OS2_WeightWidthSlopeOnly: 0
OS2_UseTypoMetrics: 1
CreationTime: 1159092060
ModificationTime: 1454096093
PfmFamily: 17
TTFWeight: 400
TTFWidth: 5
LineGap: 200
VLineGap: 0
Panose: 2 0 5 3 0 0 0 0 0 0
OS2TypoAscent: 760
OS2TypoAOffset: 0
OS2TypoDescent: -240
OS2TypoDOffset: 0
OS2TypoLinegap: 0
OS2WinAscent: 860
OS2WinAOffset: 0
OS2WinDescent: 340
OS2WinDOffset: 0
HheadAscent: 860
HheadAOffset: 0
HheadDescent: -340
HheadDOffset: 0
OS2SubXSize: 650
OS2SubYSize: 699
OS2SubXOff: 121
OS2SubYOff: 140
OS2SupXSize: 650
OS2SupYSize: 699
OS2SupXOff: -414
OS2SupYOff: 479
OS2StrikeYSize: 49
OS2StrikeYPos: 258
OS2Vendor: 'RITA'
OS2CodePages: 00000040.20080000
OS2UnicodeRanges: 80002003.80002042.00000008.00000000
Lookup: 4 1 0 "'ccmp' Glyph Composition/Decomposition in Arabic lookup 0" { "'ccmp' Glyph Composition/Decomposition in Arabic lookup 0 subtable"  } ['ccmp' ('DFLT' <'dflt' > 'arab' <'dflt' > ) ]
Lookup: 1 9 0 "'isol' Isolated Forms in Arabic lookup 1" { "'isol' Isolated Forms in Arabic lookup 1 subtable"  } ['isol' ('DFLT' <'dflt' > 'arab' <'dflt' > ) ]
Lookup: 1 9 0 "'fina' Terminal Forms in Arabic lookup 2" { "'fina' Terminal Forms in Arabic lookup 2 subtable"  } ['fina' ('DFLT' <'dflt' > 'arab' <'dflt' > ) ]

StartChar: .notdef
Encoding: 65536 -1 0
Width: 514
GlyphClass: 2
Flags: W
LayerCount: 2
Fore
SplineSet
43 -191 m 1
 43 566 l 1
 473 566 l 1
 473 -191 l 1
 43 -191 l 1
425 517 m 1
 91 517 l 1
 91 -144 l 1
 425 -144 l 1
 425 517 l 1
EndSplineSet
EndChar

StartChar: exclam
Encoding: 33 33 4
Width: 343
GlyphClass: 2
Flags: W
LayerCount: 2
Fore
SplineSet
216 -41 m 1
 130 -41 l 1
 130 66 l 1
 216 66 l 1
 216 -41 l 1
207 162 m 1
 139 162 l 1
 130 311 l 1
 130 586 l 1
 216 586 l 1
 216 311 l 1
 207 162 l 1
EndSplineSet
Substitution2: "'calt' Contextual Alternates in Arabic lookup 7 subtable" exclam.fa
EndChar

StartChar: uni0022
Encoding: 34 34 5
Width: 393
GlyphClass: 2
Flags: W
LayerCount: 2
Fore
SplineSet
154 354 m 1
 84 354 l 1
 84 586 l 1
 154 586 l 1
 154 354 l 1
314 354 m 1
 241 354 l 1
 241 586 l 1
 314 586 l 1
 314 354 l 1
EndSplineSet
EndChar

StartChar: uni0023
Encoding: 35 35 6
Width: 719
GlyphClass: 2
Flags: W
LayerCount: 2
Fore
SplineSet
406 198 m 1
 440 339 l 1
 318 339 l 1
 282 198 l 1
 406 198 l 1
606 134 m 1
 456 134 l 1
 412 -41 l 1
 345 -41 l 1
 389 134 l 1
 265 134 l 1
 223 -41 l 1
 155 -41 l 1
 199 134 l 1
 66 134 l 1
 66 198 l 1
 213 198 l 1
 250 339 l 1
 114 339 l 1
 114 403 l 1
 265 403 l 1
 308 576 l 1
 377 576 l 1
 332 403 l 1
 456 403 l 1
 499 576 l 1
 566 576 l 1
 524 403 l 1
 654 403 l 1
 654 339 l 1
 507 339 l 1
 473 198 l 1
 606 198 l 1
 606 134 l 1
EndSplineSet
EndChar

StartChar: uni0024
Encoding: 36 36 7
Width: 545
GlyphClass: 2
Flags: W
LayerCount: 2
Fore
SplineSet
290 516 m 1
 343 513 392 504 437 490 c 1
 437 416 l 1
 392 439 343 452 290 455 c 1
 290 275 l 1
 354 265 400 248 430 223 c 0
 460 198 475 162 475 117 c 0
 475 72 460 36 428 8 c 0
 396 -20 350 -36 290 -40 c 1
 290 -166 l 1
 249 -166 l 1
 249 -41 l 1
 189 -40 129 -26 72 -2 c 1
 72 74 l 1
 128 39 187 21 249 20 c 1
 249 210 l 1
 187 220 142 238 113 262 c 0
 84 286 72 320 72 364 c 0
 72 408 86 443 117 469 c 0
 148 495 192 511 249 515 c 1
 249 613 l 1
 290 613 l 1
 290 516 l 1
249 455 m 1
 182 447 148 419 148 367 c 0
 148 343 157 324 173 311 c 0
 189 298 214 289 249 283 c 1
 249 455 l 1
290 21 m 1
 362 30 398 60 398 112 c 0
 398 136 389 156 373 170 c 0
 357 184 328 195 290 202 c 1
 290 21 l 1
EndSplineSet
EndChar

StartChar: uni0025
Encoding: 37 37 8
Width: 815
GlyphClass: 2
Flags: W
LayerCount: 2
Fore
SplineSet
191 598 m 0
 286 598 338 526 338 428 c 0
 338 328 287 258 191 256 c 0
 96 256 47 329 47 427 c 0
 47 525 96 598 191 598 c 0
246 -53 m 1
 179 -53 l 1
 572 598 l 1
 638 598 l 1
 246 -53 l 1
114 427 m 0
 114 365 134 310 191 310 c 0
 247 310 270 365 270 427 c 0
 270 489 247 544 191 544 c 0
 134 544 114 490 114 427 c 0
625 289 m 0
 720 289 769 216 769 118 c 0
 769 19 719 -53 624 -53 c 0
 529 -53 481 21 481 119 c 0
 481 217 531 289 625 289 c 0
548 118 m 0
 548 56 568 1 625 1 c 0
 681 1 703 56 703 118 c 0
 703 180 681 235 625 235 c 0
 568 235 548 181 548 118 c 0
EndSplineSet
EndChar

StartChar: uni0026
Encoding: 38 38 9
Width: 668
GlyphClass: 2
Flags: W
LayerCount: 2
Fore
SplineSet
615 296 m 1
 607 220 579 147 527 79 c 1
 644 -41 l 1
 538 -41 l 1
 478 22 l 1
 420 -26 356 -52 287 -52 c 2
 285 -52 l 2
 216 -52 161 -32 118 6 c 0
 75 44 54 93 54 152 c 0
 54 225 91 288 166 343 c 1
 138 378 125 415 125 455 c 0
 125 495 141 529 172 557 c 0
 203 585 242 598 290 598 c 0
 338 598 388 589 436 568 c 1
 436 492 l 1
 385 520 344 532 310 532 c 0
 276 532 251 523 233 508 c 0
 215 493 206 475 206 455 c 0
 206 435 210 419 218 405 c 0
 226 391 243 369 268 343 c 2
 482 125 l 1
 516 178 535 234 536 296 c 1
 615 296 l 1
209 297 m 1
 159 253 135 209 135 164 c 0
 135 119 150 84 180 56 c 0
 210 28 250 15 298 15 c 0
 346 15 391 33 432 69 c 1
 209 297 l 1
EndSplineSet
EndChar

StartChar: uni0027
Encoding: 39 39 10
Width: 234
GlyphClass: 2
Flags: W
LayerCount: 2
Fore
SplineSet
84 354 m 1
 84 586 l 1
 154 586 l 1
 154 354 l 1
 84 354 l 1
EndSplineSet
EndChar

StartChar: parenleft
Encoding: 40 40 11
Width: 334
GlyphClass: 2
Flags: W
LayerCount: 2
Fore
SplineSet
155 230 m 0
 155 101 192 -28 266 -154 c 1
 200 -154 l 1
 116 -22 74 107 74 231 c 0
 74 355 116 483 200 613 c 1
 266 613 l 1
 192 485 155 358 155 230 c 0
EndSplineSet
EndChar

StartChar: parenright
Encoding: 41 41 12
Width: 334
GlyphClass: 2
Flags: W
LayerCount: 2
Fore
SplineSet
136 613 m 1
 220 481 262 352 262 228 c 0
 262 104 220 -24 136 -154 c 1
 69 -154 l 1
 143 -25 180 102 180 230 c 0
 180 356 143 484 69 613 c 1
 136 613 l 1
EndSplineSet
EndChar

StartChar: asterisk
Encoding: 42 42 13
Width: 427
GlyphClass: 2
Flags: W
LayerCount: 2
Fore
SplineSet
381 278 m 1
 239 365 l 1
 239 207 l 1
 190 207 l 1
 190 365 l 1
 50 278 l 1
 25 320 l 1
 176 403 l 1
 25 483 l 1
 50 526 l 1
 190 440 l 1
 190 598 l 1
 239 598 l 1
 239 440 l 1
 381 526 l 1
 405 483 l 1
 253 403 l 1
 405 320 l 1
 381 278 l 1
EndSplineSet
EndChar

StartChar: plus
Encoding: 43 43 14
Width: 719
GlyphClass: 2
Flags: W
LayerCount: 2
Fore
SplineSet
629 194 m 1
 396 194 l 1
 396 -41 l 1
 324 -41 l 1
 324 194 l 1
 91 194 l 1
 91 265 l 1
 324 265 l 1
 324 499 l 1
 396 499 l 1
 396 265 l 1
 629 265 l 1
 629 194 l 1
EndSplineSet
EndChar

StartChar: uni002C
Encoding: 44 44 15
Width: 271
GlyphClass: 2
Flags: W
LayerCount: 2
Fore
SplineSet
121 -140 m 1
 66 -140 l 1
 101 -6 l 1
 101 66 l 1
 189 66 l 1
 189 -6 l 1
 121 -140 l 1
EndSplineSet
EndChar

StartChar: hyphen_minus
Encoding: 45 45 16
Width: 309
GlyphClass: 2
Flags: W
LayerCount: 2
Fore
SplineSet
268 161 m 1
 43 161 l 1
 43 230 l 1
 268 230 l 1
 268 161 l 1
EndSplineSet
EndChar

StartChar: period
Encoding: 46 46 17
Width: 271
GlyphClass: 2
Flags: W
LayerCount: 2
Fore
SplineSet
182 -41 m 1
 92 -41 l 1
 92 66 l 1
 182 66 l 1
 182 -41 l 1
EndSplineSet
Substitution2: "'calt' Contextual Alternates in Arabic lookup 7 subtable" period.fa
EndChar

StartChar: slash
Encoding: 47 47 18
Width: 288
GlyphClass: 2
Flags: W
LayerCount: 2
Fore
SplineSet
72 -120 m 1
 0 -120 l 1
 219 586 l 1
 290 586 l 1
 72 -120 l 1
EndSplineSet
EndChar

StartChar: colon
Encoding: 58 58 19
Width: 288
GlyphClass: 2
Flags: W
LayerCount: 2
Fore
SplineSet
189 -41 m 1
 101 -41 l 1
 101 66 l 1
 189 66 l 1
 189 -41 l 1
189 298 m 1
 101 298 l 1
 101 405 l 1
 189 405 l 1
 189 298 l 1
EndSplineSet
Substitution2: "'calt' Contextual Alternates in Arabic lookup 7 subtable" colon.fa
EndChar

StartChar: uni003B
Encoding: 59 59 20
Width: 288
GlyphClass: 2
Flags: W
LayerCount: 2
Fore
SplineSet
189 298 m 1
 101 298 l 1
 101 405 l 1
 189 405 l 1
 189 298 l 1
121 -140 m 1
 66 -140 l 1
 101 -6 l 1
 101 66 l 1
 189 66 l 1
 189 -6 l 1
 121 -140 l 1
EndSplineSet
EndChar

StartChar: uni003C
Encoding: 60 60 21
Width: 719
GlyphClass: 2
Flags: W
LayerCount: 2
Fore
SplineSet
629 -1 m 1
 91 195 l 1
 91 264 l 1
 629 459 l 1
 629 383 l 1
 197 229 l 1
 629 75 l 1
 629 -1 l 1
EndSplineSet
EndChar

StartChar: equal
Encoding: 61 61 22
Width: 719
GlyphClass: 2
Flags: W
LayerCount: 2
Fore
SplineSet
629 279 m 1
 91 279 l 1
 91 350 l 1
 629 350 l 1
 629 279 l 1
629 108 m 1
 91 108 l 1
 91 179 l 1
 629 179 l 1
 629 108 l 1
EndSplineSet
EndChar

StartChar: uni003E
Encoding: 62 62 23
Width: 719
GlyphClass: 2
Flags: W
LayerCount: 2
Fore
SplineSet
629 195 m 1
 91 -1 l 1
 91 75 l 1
 524 229 l 1
 91 383 l 1
 91 459 l 1
 629 264 l 1
 629 195 l 1
EndSplineSet
EndChar

StartChar: uni003F
Encoding: 63 63 24
Width: 455
GlyphClass: 2
Flags: W
LayerCount: 2
Fore
SplineSet
250 -41 m 1
 163 -41 l 1
 163 66 l 1
 250 66 l 1
 250 -41 l 1
62 550 m 1
 116 582 168 598 222 598 c 0
 276 598 319 586 350 558 c 0
 381 530 396 494 396 450 c 0
 396 428 392 407 382 388 c 0
 372 369 354 347 329 323 c 2
 292 288 l 2
 272 269 260 254 254 242 c 0
 248 230 248 209 248 180 c 2
 248 129 l 1
 166 129 l 1
 166 192 l 2
 166 221 170 244 178 263 c 0
 186 282 204 302 229 326 c 2
 265 364 l 2
 296 394 311 421 311 446 c 0
 311 471 303 491 284 506 c 0
 265 521 240 529 210 529 c 0
 167 529 118 510 62 472 c 1
 62 550 l 1
EndSplineSet
EndChar

StartChar: uni0040
Encoding: 64 64 25
Width: 858
GlyphClass: 2
Flags: W
LayerCount: 2
Fore
SplineSet
350 91 m 0
 370 68 397 57 431 57 c 0
 465 57 494 68 514 91 c 0
 534 114 543 145 543 185 c 0
 543 225 533 255 513 278 c 0
 493 301 465 314 431 314 c 0
 397 314 370 302 350 279 c 0
 330 256 320 225 320 185 c 0
 320 145 330 114 350 91 c 0
436 -130 m 0
 510 -130 578 -106 638 -59 c 1
 676 -106 l 1
 603 -162 524 -190 436 -190 c 0
 330 -190 240 -154 166 -82 c 0
 93 -10 57 78 57 185 c 0
 57 292 93 382 166 455 c 0
 240 528 332 565 442 565 c 0
 501 565 556 552 607 528 c 0
 658 504 701 470 735 425 c 0
 778 369 801 304 801 232 c 0
 801 160 779 103 734 60 c 0
 689 17 627 -5 549 -6 c 1
 549 59 l 1
 516 16 474 -4 422 -4 c 0
 370 -4 329 13 298 48 c 0
 267 83 252 129 252 185 c 0
 252 241 267 286 298 321 c 0
 329 356 369 374 421 374 c 0
 473 374 515 353 549 311 c 1
 549 366 l 1
 609 366 l 1
 609 57 l 1
 650 64 682 82 705 113 c 0
 728 144 739 188 739 242 c 0
 739 296 724 344 691 385 c 0
 627 465 544 505 443 505 c 0
 375 505 312 487 256 451 c 0
 212 422 177 385 153 339 c 0
 129 293 116 246 116 196 c 0
 116 100 146 20 208 -40 c 0
 270 -100 346 -130 436 -130 c 0
EndSplineSet
EndChar

StartChar: bracketleft
Encoding: 91 91 26
Width: 334
GlyphClass: 2
Flags: W
LayerCount: 2
Fore
SplineSet
252 -154 m 1
 74 -154 l 1
 74 613 l 1
 252 613 l 1
 252 553 l 1
 152 553 l 1
 152 -94 l 1
 252 -94 l 1
 252 -154 l 1
EndSplineSet
EndChar

StartChar: uni005C
Encoding: 92 92 27
Width: 288
GlyphClass: 2
Flags: W
LayerCount: 2
Fore
SplineSet
290 -120 m 1
 219 -120 l 1
 0 586 l 1
 72 586 l 1
 290 -120 l 1
EndSplineSet
EndChar

StartChar: bracketright
Encoding: 93 93 28
Width: 334
GlyphClass: 2
Flags: W
LayerCount: 2
Fore
SplineSet
262 -154 m 1
 84 -154 l 1
 84 -94 l 1
 184 -94 l 1
 184 553 l 1
 84 553 l 1
 84 613 l 1
 262 613 l 1
 262 -154 l 1
EndSplineSet
EndChar

StartChar: uni005E
Encoding: 94 94 29
Width: 719
GlyphClass: 2
Flags: W
LayerCount: 2
Fore
SplineSet
629 353 m 1
 544 353 l 1
 360 518 l 1
 175 353 l 1
 91 353 l 1
 319 586 l 1
 402 586 l 1
 629 353 l 1
EndSplineSet
EndChar

StartChar: uni005F
Encoding: 95 95 30
Width: 427
GlyphClass: 2
Flags: W
LayerCount: 2
Fore
SplineSet
438 -243 m 1
 -8 -243 l 1
 -8 -183 l 1
 438 -183 l 1
 438 -243 l 1
EndSplineSet
EndChar

StartChar: uni0060
Encoding: 96 96 31
Width: 427
GlyphClass: 2
Flags: W
LayerCount: 2
Fore
SplineSet
273 491 m 1
 208 491 l 1
 72 648 l 1
 154 648 l 1
 273 491 l 1
EndSplineSet
EndChar

StartChar: braceleft
Encoding: 123 123 32
Width: 545
GlyphClass: 2
Flags: W
LayerCount: 2
Fore
SplineSet
440 -182 m 1
 414 -182 l 2
 345 -182 297 -171 274 -150 c 0
 251 -129 239 -88 239 -25 c 2
 239 75 l 2
 239 117 231 147 216 163 c 0
 201 179 173 187 133 187 c 2
 108 187 l 1
 108 248 l 1
 133 248 l 2
 173 248 201 256 216 272 c 0
 231 288 239 316 239 358 c 2
 239 459 l 2
 239 521 251 561 274 582 c 0
 297 603 344 613 414 613 c 2
 440 613 l 1
 440 553 l 1
 411 553 l 2
 371 553 346 547 334 535 c 0
 322 523 316 498 316 458 c 2
 316 353 l 2
 316 309 310 277 297 257 c 0
 284 237 262 224 231 217 c 1
 262 209 284 196 297 176 c 0
 310 156 316 124 316 80 c 2
 316 -23 l 2
 316 -63 321 -89 333 -101 c 0
 345 -113 371 -120 411 -120 c 2
 440 -120 l 1
 440 -182 l 1
EndSplineSet
EndChar

StartChar: uni007C
Encoding: 124 124 33
Width: 288
GlyphClass: 2
Flags: W
LayerCount: 2
Fore
SplineSet
182 -243 m 1
 110 -243 l 1
 110 617 l 1
 182 617 l 1
 182 -243 l 1
EndSplineSet
EndChar

StartChar: braceright
Encoding: 125 125 34
Width: 545
GlyphClass: 2
Flags: W
LayerCount: 2
Fore
SplineSet
308 -25 m 2
 308 -87 297 -129 274 -150 c 0
 251 -171 203 -182 134 -182 c 2
 108 -182 l 1
 108 -120 l 1
 136 -120 l 2
 174 -120 201 -114 213 -102 c 0
 225 -90 231 -63 231 -23 c 2
 231 80 l 2
 231 124 237 156 250 176 c 0
 263 196 285 209 316 217 c 1
 285 225 264 237 251 257 c 0
 238 277 231 309 231 353 c 2
 231 458 l 2
 231 498 225 523 213 535 c 0
 201 547 174 553 136 553 c 2
 108 553 l 1
 108 613 l 1
 134 613 l 2
 203 613 251 603 274 582 c 0
 297 561 308 522 308 459 c 2
 308 358 l 2
 308 316 316 286 331 271 c 0
 346 256 374 248 414 248 c 2
 440 248 l 1
 440 187 l 1
 414 187 l 2
 374 187 346 179 331 163 c 0
 316 147 308 117 308 75 c 2
 308 -25 l 2
EndSplineSet
EndChar

StartChar: uni007E
Encoding: 126 126 35
Width: 719
GlyphClass: 2
Flags: W
LayerCount: 2
Fore
SplineSet
480 235 m 0
 526 235 575 257 629 302 c 1
 629 229 l 1
 573 187 522 166 477 166 c 0
 432 166 388 177 346 198 c 1
 303 214 269 223 243 223 c 2
 241 223 l 2
 193 223 143 200 91 155 c 1
 91 230 l 1
 147 272 201 293 252 293 c 0
 283 293 321 283 367 264 c 0
 413 245 452 235 480 235 c 0
EndSplineSet
EndChar

StartChar: uni00A4
Encoding: 164 164 37
Width: 545
GlyphClass: 2
Flags: W
LayerCount: 2
Fore
SplineSet
422 330 m 1
 443 296 453 262 453 227 c 0
 453 192 442 160 420 130 c 1
 508 44 l 1
 460 -6 l 1
 374 84 l 1
 341 62 308 50 275 50 c 0
 242 50 209 60 174 81 c 1
 87 -6 l 1
 40 43 l 1
 126 129 l 1
 105 164 96 198 96 231 c 0
 96 264 107 297 128 328 c 1
 41 415 l 1
 88 463 l 1
 175 376 l 1
 205 397 238 407 273 407 c 0
 308 407 342 397 374 377 c 1
 461 464 l 1
 508 416 l 1
 422 330 l 1
275 117 m 0
 307 117 332 126 354 148 c 0
 376 170 387 197 387 229 c 0
 387 261 376 287 354 309 c 0
 332 331 307 341 275 341 c 0
 243 341 217 330 195 309 c 0
 173 288 161 262 161 230 c 0
 161 198 173 172 195 150 c 0
 217 128 243 117 275 117 c 0
EndSplineSet
EndChar

StartChar: uni00A7
Encoding: 167 167 38
Width: 427
GlyphClass: 2
Flags: W
LayerCount: 2
Fore
SplineSet
160 353 m 1
 125 328 107 302 107 279 c 0
 107 256 116 236 136 217 c 0
 156 198 201 169 270 132 c 1
 305 158 322 183 322 206 c 0
 322 229 313 249 293 268 c 0
 273 287 228 316 160 353 c 1
320 -87 m 0
 291 -110 254 -122 210 -122 c 0
 166 -122 120 -114 72 -98 c 1
 72 -30 l 1
 120 -52 160 -62 191 -62 c 0
 222 -62 247 -56 262 -44 c 0
 277 -32 286 -15 286 6 c 0
 286 35 255 66 192 100 c 2
 182 106 l 2
 123 140 83 166 65 188 c 0
 47 210 38 235 38 264 c 0
 38 316 64 354 116 382 c 1
 83 407 66 438 66 475 c 0
 66 512 79 542 108 564 c 0
 137 586 172 598 216 598 c 0
 260 598 304 589 349 573 c 1
 349 505 l 1
 303 527 264 537 234 537 c 0
 174 537 144 516 144 474 c 0
 144 449 173 420 230 388 c 0
 238 384 244 380 248 378 c 0
 306 345 344 317 363 296 c 0
 382 275 390 250 390 221 c 0
 390 171 366 132 314 102 c 1
 347 73 363 41 363 4 c 0
 363 -33 349 -64 320 -87 c 0
EndSplineSet
EndChar

StartChar: guillemotleft
Encoding: 171 171 39
Width: 524
GlyphClass: 2
Flags: W
LayerCount: 2
Fore
SplineSet
446 20 m 1
 249 195 l 1
 249 229 l 1
 446 405 l 1
 446 323 l 1
 319 211 l 1
 446 99 l 1
 446 20 l 1
264 20 m 1
 66 195 l 1
 66 229 l 1
 264 405 l 1
 264 323 l 1
 136 211 l 1
 264 99 l 1
 264 20 l 1
EndSplineSet
Substitution2: "'calt' Contextual Alternates in Arabic lookup 7 subtable" guillemotleft.fa
EndChar

StartChar: uni00AC
Encoding: 172 172 40
Width: 719
GlyphClass: 2
Flags: W
LayerCount: 2
Fore
SplineSet
629 80 m 1
 559 80 l 1
 559 251 l 1
 91 251 l 1
 91 321 l 1
 629 321 l 1
 629 80 l 1
EndSplineSet
EndChar

StartChar: uni00B0
Encoding: 176 176 41
Width: 427
GlyphClass: 2
Flags: W
LayerCount: 2
Fore
SplineSet
214 385 m 0
 237 385 257 392 272 407 c 0
 287 422 295 441 295 464 c 0
 295 486 287 505 272 520 c 0
 257 535 236 543 214 543 c 0
 192 543 173 535 158 520 c 0
 143 505 135 486 135 464 c 0
 135 442 143 423 158 408 c 0
 173 393 192 385 214 385 c 0
121 560 m 0
 146 586 179 598 216 598 c 0
 253 598 283 585 309 559 c 0
 335 533 349 499 349 463 c 0
 349 427 335 395 309 370 c 0
 283 345 250 331 213 331 c 0
 176 331 145 343 120 368 c 0
 95 393 82 425 82 463 c 0
 82 501 96 534 121 560 c 0
EndSplineSet
EndChar

StartChar: uni00B6
Encoding: 182 182 42
Width: 545
GlyphClass: 2
Flags: W
LayerCount: 2
Fore
SplineSet
454 -122 m 1
 395 -122 l 1
 395 535 l 1
 315 535 l 1
 315 -122 l 1
 255 -122 l 1
 255 232 l 1
 195 236 149 254 116 285 c 0
 83 316 66 357 66 410 c 0
 66 463 84 505 120 538 c 0
 156 571 205 586 265 586 c 2
 454 586 l 1
 454 -122 l 1
EndSplineSet
EndChar

StartChar: periodcentered
Encoding: 183 183 43
Width: 271
GlyphClass: 2
Flags: W
LayerCount: 2
Fore
SplineSet
92 206 m 1
 92 311 l 1
 182 311 l 1
 182 206 l 1
 92 206 l 1
EndSplineSet
EndChar

StartChar: guillemotright
Encoding: 187 187 44
Width: 524
GlyphClass: 2
Flags: W
LayerCount: 2
Fore
SplineSet
278 195 m 1
 81 20 l 1
 81 99 l 1
 208 211 l 1
 81 323 l 1
 81 405 l 1
 278 229 l 1
 278 195 l 1
460 195 m 1
 264 20 l 1
 264 99 l 1
 389 211 l 1
 264 323 l 1
 264 405 l 1
 460 229 l 1
 460 195 l 1
EndSplineSet
Substitution2: "'calt' Contextual Alternates in Arabic lookup 7 subtable" guillemotright.fa
EndChar

StartChar: multiply
Encoding: 215 215 45
Width: 719
GlyphClass: 2
Flags: W
LayerCount: 2
Fore
SplineSet
553 -14 m 1
 360 179 l 1
 167 -14 l 1
 118 37 l 1
 309 229 l 1
 118 421 l 1
 167 473 l 1
 360 279 l 1
 553 473 l 1
 603 421 l 1
 411 229 l 1
 603 37 l 1
 553 -14 l 1
EndSplineSet
EndChar

StartChar: divide
Encoding: 247 247 46
Width: 719
GlyphClass: 2
Flags: W
LayerCount: 2
Fore
SplineSet
412 332 m 1
 308 332 l 1
 308 436 l 1
 412 436 l 1
 412 332 l 1
412 23 m 1
 308 23 l 1
 308 125 l 1
 412 125 l 1
 412 23 l 1
629 194 m 1
 91 194 l 1
 91 265 l 1
 629 265 l 1
 629 194 l 1
EndSplineSet
EndChar

StartChar: virgul
Encoding: 1548 1548 47
Width: 271
GlyphClass: 2
Flags: W
LayerCount: 2
Fore
SplineSet
155 -41 m 1
 66 -41 l 1
 66 32 l 1
 135 166 l 1
 189 166 l 1
 155 32 l 1
 155 -41 l 1
EndSplineSet
Substitution2: "'calt' Contextual Alternates in Arabic lookup 7 subtable" virgul.fa
EndChar

StartChar: noqte_virgul
Encoding: 1563 1563 48
Width: 288
GlyphClass: 2
Flags: W
LayerCount: 2
Fore
SplineSet
130 -41 m 1
 42 -41 l 1
 42 66 l 1
 130 66 l 1
 130 -41 l 1
130 227 m 1
 42 227 l 1
 42 298 l 1
 111 433 l 1
 130 433 l 1
 130 227 l 1
EndSplineSet
Substitution2: "'calt' Contextual Alternates in Arabic lookup 7 subtable" noqte_virgul.fa
EndChar

StartChar: soal
Encoding: 1567 1567 49
Width: 455
GlyphClass: 2
Flags: W
LayerCount: 2
Fore
SplineSet
294 -41 m 1
 209 -41 l 1
 209 66 l 1
 294 66 l 1
 294 -41 l 1
396 472 m 1
 341 510 291 529 246 529 c 0
 201 529 169 513 154 480 c 0
 148 470 146 457 146 444 c 0
 146 421 161 395 191 364 c 2
 230 326 l 2
 254 302 270 280 278 265 c 0
 286 250 291 225 292 192 c 2
 294 129 l 1
 211 129 l 1
 211 180 l 2
 211 208 209 227 206 236 c 0
 203 245 198 253 194 260 c 0
 190 267 179 275 166 288 c 2
 130 323 l 2
 105 347 87 370 77 389 c 0
 67 408 62 429 62 450 c 0
 62 494 77 530 109 558 c 0
 141 586 182 598 236 598 c 0
 290 598 343 582 396 550 c 1
 396 472 l 1
EndSplineSet
EndChar

StartChar: hamze
Encoding: 1569 1569 50
Width: 321
GlyphClass: 2
Flags: W
AnchorPoint: "Anchor-1" 157 -14 basechar 0
AnchorPoint: "Anchor-0" 152 368 basechar 0
LayerCount: 2
Fore
SplineSet
77 88 m 1
 53 110 41 134 41 165 c 0
 41 196 54 224 80 253 c 0
 106 282 133 296 161 296 c 0
 189 296 210 288 229 275 c 0
 236 271 242 264 250 256 c 1
 208 198 l 1
 197 209 178 213 152 213 c 0
 142 213 131 209 120 198 c 0
 109 187 103 176 103 164 c 0
 103 154 124 140 162 124 c 1
 194 134 231 143 274 151 c 1
 287 72 l 1
 188 51 110 23 54 -14 c 1
 21 54 l 1
 35 63 54 75 77 88 c 1
EndSplineSet
Substitution2: "'isol' Isolated Forms in Arabic lookup 1 subtable" uniFE80
EndChar

StartChar: alef.aa
Encoding: 1570 1570 51
Width: 300
GlyphClass: 2
Flags: W
LayerCount: 2
Fore
SplineSet
315 635 m 1
 246 592 181 571 122 571 c 0
 104 571 81 573 50 579 c 1
 47 570 44 560 44 549 c 2
 44 520 l 1
 1 520 l 1
 1 553 4 579 13 600 c 0
 22 621 29 634 36 642 c 1
 54 630 86 625 132 625 c 0
 178 625 232 644 292 681 c 1
 315 635 l 1
187 0 m 1
 122 0 l 1
 122 463 l 1
 187 463 l 1
 187 0 l 1
EndSplineSet
Substitution2: "'fina' Terminal Forms in Arabic lookup 2 subtable" alef.aa.fina
Substitution2: "'isol' Isolated Forms in Arabic lookup 1 subtable" uniFE81
EndChar

StartChar: alef.thmz
Encoding: 1571 1571 52
Width: 300
GlyphClass: 2
Flags: W
LayerCount: 2
Fore
SplineSet
184 0 m 1
 119 0 l 1
 119 463 l 1
 184 463 l 1
 184 0 l 1
101 561 m 1
 77 582 66 604 66 628 c 0
 66 652 76 674 98 696 c 0
 120 718 142 728 165 728 c 1
 166 729 l 1
 189 729 210 721 230 702 c 0
 236 696 240 690 246 683 c 1
 214 648 l 1
 211 652 207 656 200 664 c 0
 193 672 184 675 172 675 c 0
 160 675 151 674 144 671 c 0
 121 660 109 646 109 628 c 0
 109 616 127 601 163 586 c 1
 181 592 197 597 212 600 c 0
 227 603 243 605 257 609 c 1
 266 556 l 1
 251 553 237 549 224 547 c 0
 187 540 131 519 59 483 c 1
 41 534 l 1
 72 549 92 557 101 561 c 1
EndSplineSet
Substitution2: "'fina' Terminal Forms in Arabic lookup 2 subtable" alef.thmz.fina
Substitution2: "'isol' Isolated Forms in Arabic lookup 1 subtable" uniFE83
Ligature2: "'ccmp' Glyph Composition/Decomposition in Arabic lookup 0 subtable" alef uni0654
EndChar

StartChar: vav.thmz
Encoding: 1572 1572 53
Width: 451
GlyphClass: 2
Flags: W
LayerCount: 2
Fore
SplineSet
180 459 m 1
 156 480 145 502 145 526 c 0
 145 550 155 572 177 594 c 0
 199 616 221 626 244 626 c 1
 245 627 l 1
 268 627 289 619 309 600 c 0
 315 594 320 588 326 581 c 1
 294 546 l 1
 291 550 286 554 279 562 c 0
 272 570 263 573 251 573 c 0
 239 573 230 572 223 569 c 0
 200 558 188 544 188 526 c 0
 188 514 206 499 242 484 c 1
 260 490 277 494 292 497 c 0
 307 500 323 503 337 507 c 1
 345 453 l 1
 330 450 317 446 304 444 c 0
 267 437 211 417 139 381 c 1
 120 431 l 1
 151 446 171 455 180 459 c 1
322 45 m 1
 303 38 287 35 271 35 c 0
 255 35 241 35 232 36 c 0
 162 42 126 75 126 135 c 0
 126 173 141 214 170 257 c 0
 199 300 226 322 254 322 c 0
 295 322 328 299 354 252 c 0
 380 205 394 157 394 109 c 0
 394 61 390 23 380 -3 c 0
 364 -49 331 -92 286 -129 c 0
 241 -166 176 -200 91 -232 c 1
 68 -158 l 1
 69 -156 l 1
 214 -102 299 -34 322 45 c 1
191 135 m 0
 191 123 213 116 257 116 c 0
 281 116 305 121 328 131 c 1
 319 181 304 214 282 232 c 0
 274 239 265 242 256 242 c 0
 240 242 224 229 211 204 c 0
 198 179 191 155 191 135 c 0
EndSplineSet
Substitution2: "'fina' Terminal Forms in Arabic lookup 2 subtable" vav.thmz.fina
Substitution2: "'isol' Isolated Forms in Arabic lookup 1 subtable" uniFE85
Ligature2: "'ccmp' Glyph Composition/Decomposition in Arabic lookup 0 subtable" vav uni0654
EndChar

StartChar: alef.bhmz
Encoding: 1573 1573 54
Width: 271
GlyphClass: 2
Flags: W
LayerCount: 2
Fore
SplineSet
70 -221 m 1
 46 -200 35 -178 35 -155 c 0
 35 -132 45 -109 67 -87 c 0
 89 -65 109 -54 130 -54 c 0
 151 -54 167 -57 178 -65 c 0
 189 -73 203 -84 217 -100 c 1
 184 -135 l 1
 180 -132 175 -127 168 -119 c 0
 161 -111 151 -109 136 -109 c 0
 121 -109 108 -114 96 -124 c 0
 84 -134 78 -144 78 -153 c 0
 78 -162 84 -170 94 -177 c 0
 104 -184 117 -190 133 -197 c 1
 152 -189 169 -186 183 -184 c 0
 197 -182 211 -178 227 -174 c 1
 236 -229 l 1
 227 -231 219 -232 211 -233 c 0
 168 -240 108 -261 30 -299 c 1
 11 -251 l 1
 23 -245 33 -238 43 -234 c 0
 53 -230 61 -225 70 -221 c 1
157 0 m 1
 92 0 l 1
 92 613 l 1
 157 613 l 1
 157 0 l 1
EndSplineSet
Substitution2: "'fina' Terminal Forms in Arabic lookup 2 subtable" alef.bhmz.fina
Substitution2: "'isol' Isolated Forms in Arabic lookup 1 subtable" uniFE87
Ligature2: "'ccmp' Glyph Composition/Decomposition in Arabic lookup 0 subtable" alef uni0655
EndChar

StartChar: ye.hamze
Encoding: 1574 1574 55
Width: 751
GlyphClass: 2
Flags: W
LayerCount: 2
Fore
SplineSet
265 412 m 1
 241 433 230 456 230 480 c 0
 230 504 240 526 262 548 c 0
 284 570 306 580 329 580 c 1
 330 581 l 1
 353 581 374 572 394 553 c 0
 400 547 404 542 410 535 c 1
 378 499 l 1
 375 503 371 508 364 516 c 0
 357 524 348 527 336 527 c 0
 324 527 315 525 308 522 c 0
 285 511 273 498 273 480 c 0
 273 468 291 453 327 438 c 1
 345 444 361 448 376 451 c 0
 391 454 407 457 421 461 c 1
 430 407 l 1
 415 404 401 400 388 398 c 0
 351 391 295 370 223 334 c 1
 205 385 l 1
 236 400 256 408 265 412 c 1
582 -25 m 2
 582 -23 l 2
 582 -15 576 -9 566 -3 c 0
 556 3 531 11 493 22 c 0
 455 33 428 45 414 59 c 0
 400 73 392 99 392 133 c 0
 392 167 415 203 460 244 c 0
 505 285 549 305 592 305 c 0
 635 305 675 276 711 219 c 1
 656 174 l 1
 636 206 612 222 586 222 c 0
 560 222 533 211 503 190 c 0
 473 169 458 149 458 129 c 0
 458 122 462 116 471 112 c 0
 480 108 505 100 543 89 c 0
 581 78 610 64 625 48 c 0
 640 32 649 9 649 -24 c 0
 649 -74 599 -114 500 -145 c 0
 416 -171 338 -185 264 -185 c 0
 120 -185 47 -132 47 -25 c 0
 47 33 72 103 119 182 c 1
 172 156 l 1
 166 146 161 134 154 122 c 0
 129 75 114 26 114 -25 c 0
 114 -78 161 -104 252 -104 c 0
 359 -104 448 -92 521 -69 c 0
 562 -56 582 -41 582 -25 c 2
EndSplineSet
Substitution2: "'init' Initial Forms in Arabic lookup 4 subtable" ye.hamze.init
Substitution2: "'medi' Medial Forms in Arabic lookup 3 subtable" ye.hamze.medi
Substitution2: "'fina' Terminal Forms in Arabic lookup 2 subtable" ye.hamze.fina
Substitution2: "'isol' Isolated Forms in Arabic lookup 1 subtable" uniFE89
Ligature2: "'ccmp' Glyph Composition/Decomposition in Arabic lookup 0 subtable" ye.farsi uni0654
Ligature2: "'ccmp' Glyph Composition/Decomposition in Arabic lookup 0 subtable" uni064A uni0654
EndChar

StartChar: alef
Encoding: 1575 1575 56
Width: 254
GlyphClass: 2
Flags: W
LayerCount: 2
Fore
SplineSet
157 0 m 1
 92 0 l 1
 92 613 l 1
 157 613 l 1
 157 0 l 1
EndSplineSet
Substitution2: "'fina' Terminal Forms in Arabic lookup 2 subtable" alef.fina
Substitution2: "'isol' Isolated Forms in Arabic lookup 1 subtable" uniFE8D
EndChar

StartChar: beh
Encoding: 1576 1576 57
Width: 926
GlyphClass: 2
Flags: W
LayerCount: 2
Fore
SplineSet
486 -194 m 1
 403 -194 l 1
 403 -110 l 1
 486 -110 l 1
 486 -194 l 1
836 323 m 1
 861 246 874 190 874 155 c 0
 874 120 866 94 851 81 c 0
 827 58 759 36 646 15 c 0
 533 -6 446 -15 383 -15 c 0
 320 -15 269 -13 234 -6 c 0
 116 16 57 69 57 153 c 0
 57 200 71 257 96 324 c 1
 161 311 l 1
 158 299 150 275 139 243 c 0
 128 211 122 181 122 152 c 0
 122 123 143 102 185 87 c 0
 227 72 281 65 349 65 c 0
 463 65 584 79 714 110 c 0
 758 120 784 129 794 133 c 0
 804 137 808 142 808 146 c 0
 808 180 795 238 769 318 c 1
 836 323 l 1
EndSplineSet
Substitution2: "'init' Initial Forms in Arabic lookup 4 subtable" be.init
Substitution2: "'medi' Medial Forms in Arabic lookup 3 subtable" be.medi
Substitution2: "'fina' Terminal Forms in Arabic lookup 2 subtable" be.fina
Substitution2: "'isol' Isolated Forms in Arabic lookup 1 subtable" uniFE8F
EndChar

StartChar: uni0629
Encoding: 1577 1577 58
Width: 458
GlyphClass: 2
Flags: W
LayerCount: 2
Fore
SplineSet
160 444 m 1
 76 444 l 1
 76 528 l 1
 160 528 l 1
 160 444 l 1
283 444 m 1
 199 444 l 1
 199 528 l 1
 283 528 l 1
 283 444 l 1
184 377 m 1
 214 367 242 354 270 336 c 0
 368 273 416 208 416 142 c 0
 416 118 402 90 376 60 c 0
 350 30 308 9 251 -4 c 0
 235 -8 217 -10 198 -10 c 0
 157 -10 123 4 94 29 c 0
 65 54 51 86 51 126 c 0
 51 177 77 242 131 318 c 0
 153 349 171 368 184 377 c 1
197 287 m 1
 178 266 160 240 142 208 c 0
 124 176 114 148 114 126 c 0
 114 101 133 84 168 75 c 0
 179 72 196 70 219 70 c 0
 242 70 269 78 302 92 c 0
 335 106 351 123 351 142 c 0
 351 188 300 236 197 287 c 1
EndSplineSet
Substitution2: "'fina' Terminal Forms in Arabic lookup 2 subtable" uniFE94
Substitution2: "'isol' Isolated Forms in Arabic lookup 1 subtable" uniFE93
EndChar

StartChar: teh
Encoding: 1578 1578 59
Width: 926
GlyphClass: 2
Flags: W
LayerCount: 2
Fore
SplineSet
437 365 m 1
 353 365 l 1
 353 449 l 1
 437 449 l 1
 437 365 l 1
560 365 m 1
 476 365 l 1
 476 449 l 1
 560 449 l 1
 560 365 l 1
836 323 m 1
 861 246 874 190 874 155 c 0
 874 120 866 94 851 81 c 0
 827 58 759 36 646 15 c 0
 533 -6 446 -15 383 -15 c 0
 320 -15 269 -13 234 -6 c 0
 116 16 57 69 57 153 c 0
 57 200 71 257 96 324 c 1
 161 311 l 1
 158 299 150 275 139 243 c 0
 128 211 122 181 122 152 c 0
 122 123 143 102 185 87 c 0
 227 72 281 65 349 65 c 0
 463 65 584 79 714 110 c 0
 758 120 784 129 794 133 c 0
 804 137 808 142 808 146 c 0
 808 180 795 238 769 318 c 1
 836 323 l 1
EndSplineSet
Substitution2: "'init' Initial Forms in Arabic lookup 4 subtable" te.init
Substitution2: "'medi' Medial Forms in Arabic lookup 3 subtable" te.medi
Substitution2: "'fina' Terminal Forms in Arabic lookup 2 subtable" te.fina
Substitution2: "'isol' Isolated Forms in Arabic lookup 1 subtable" uniFE95
EndChar

StartChar: seh
Encoding: 1579 1579 60
Width: 926
GlyphClass: 2
Flags: W
LayerCount: 2
Fore
SplineSet
432 365 m 1
 349 365 l 1
 349 449 l 1
 432 449 l 1
 432 365 l 1
563 365 m 1
 480 365 l 1
 480 449 l 1
 563 449 l 1
 563 365 l 1
497 493 m 1
 414 493 l 1
 414 576 l 1
 497 576 l 1
 497 493 l 1
836 323 m 1
 861 246 874 190 874 155 c 0
 874 120 866 94 851 81 c 0
 827 58 759 36 646 15 c 0
 533 -6 446 -15 383 -15 c 0
 320 -15 269 -13 234 -6 c 0
 116 16 57 69 57 153 c 0
 57 200 71 257 96 324 c 1
 161 311 l 1
 158 299 150 275 139 243 c 0
 128 211 122 181 122 152 c 0
 122 123 143 102 185 87 c 0
 227 72 281 65 349 65 c 0
 463 65 584 79 714 110 c 0
 758 120 784 129 794 133 c 0
 804 137 808 142 808 146 c 0
 808 180 795 238 769 318 c 1
 836 323 l 1
EndSplineSet
Substitution2: "'init' Initial Forms in Arabic lookup 4 subtable" the.init
Substitution2: "'medi' Medial Forms in Arabic lookup 3 subtable" the.medi
Substitution2: "'fina' Terminal Forms in Arabic lookup 2 subtable" the.fina
Substitution2: "'isol' Isolated Forms in Arabic lookup 1 subtable" uniFE99
EndChar

StartChar: jim
Encoding: 1580 1580 61
Width: 631
GlyphClass: 2
Flags: W
LayerCount: 2
Fore
SplineSet
419 -1 m 1
 336 -1 l 1
 336 82 l 1
 419 82 l 1
 419 -1 l 1
58 16 m 0
 58 130 144 218 314 280 c 1
 206 340 l 2
 188 348 177 352 170 352 c 0
 163 352 160 350 154 343 c 2
 97 280 l 1
 58 319 l 1
 107 397 l 2
 110 401 114 406 117 410 c 0
 120 414 127 419 136 425 c 0
 145 431 158 433 172 433 c 0
 186 433 207 425 235 411 c 2
 374 337 l 2
 399 325 433 319 474 319 c 0
 485 319 495 318 504 318 c 2
 564 318 l 1
 564 238 l 1
 510 238 l 2
 438 238 364 222 287 191 c 0
 179 148 125 93 125 21 c 0
 125 -51 157 -98 223 -120 c 0
 248 -129 280 -133 314 -133 c 0
 400 -133 472 -125 531 -107 c 1
 548 -174 l 1
 471 -200 393 -213 314 -213 c 2
 312 -213 l 2
 179 -213 97 -162 68 -60 c 0
 60 -36 58 -10 58 16 c 0
EndSplineSet
Substitution2: "'init' Initial Forms in Arabic lookup 4 subtable" jim.init
Substitution2: "'medi' Medial Forms in Arabic lookup 3 subtable" jim.medi
Substitution2: "'fina' Terminal Forms in Arabic lookup 2 subtable" jim.fina
Substitution2: "'isol' Isolated Forms in Arabic lookup 1 subtable" uniFE9D
EndChar

StartChar: heh
Encoding: 1581 1581 62
Width: 631
GlyphClass: 2
Flags: W
LayerCount: 2
Fore
SplineSet
58 16 m 0
 58 130 144 218 314 280 c 1
 206 340 l 2
 188 348 177 352 170 352 c 0
 163 352 160 350 154 343 c 2
 97 280 l 1
 58 319 l 1
 107 397 l 2
 110 401 114 406 117 410 c 0
 120 414 127 419 136 425 c 0
 145 431 158 433 172 433 c 0
 186 433 207 425 235 411 c 2
 374 337 l 2
 399 325 433 319 474 319 c 0
 485 319 495 318 504 318 c 2
 564 318 l 1
 564 238 l 1
 510 238 l 2
 438 238 364 222 287 191 c 0
 179 148 125 93 125 21 c 0
 125 -51 157 -98 223 -120 c 0
 248 -129 280 -133 314 -133 c 0
 400 -133 472 -125 531 -107 c 1
 548 -174 l 1
 471 -200 393 -213 314 -213 c 2
 312 -213 l 2
 179 -213 97 -162 68 -60 c 0
 60 -36 58 -10 58 16 c 0
EndSplineSet
Substitution2: "'init' Initial Forms in Arabic lookup 4 subtable" him.init
Substitution2: "'medi' Medial Forms in Arabic lookup 3 subtable" him.medi
Substitution2: "'fina' Terminal Forms in Arabic lookup 2 subtable" him.fina
Substitution2: "'isol' Isolated Forms in Arabic lookup 1 subtable" uniFEA1
EndChar

StartChar: kheh
Encoding: 1582 1582 63
Width: 631
GlyphClass: 2
Flags: W
LayerCount: 2
Fore
SplineSet
360 516 m 1
 276 516 l 1
 276 600 l 1
 360 600 l 1
 360 516 l 1
58 16 m 0
 58 130 144 218 314 280 c 1
 206 340 l 2
 188 348 177 352 170 352 c 0
 163 352 160 350 154 343 c 2
 97 280 l 1
 58 319 l 1
 107 397 l 2
 110 401 114 406 117 410 c 0
 120 414 127 419 136 425 c 0
 145 431 158 433 172 433 c 0
 186 433 207 425 235 411 c 2
 374 337 l 2
 399 325 433 319 474 319 c 0
 485 319 495 318 504 318 c 2
 564 318 l 1
 564 238 l 1
 510 238 l 2
 438 238 364 222 287 191 c 0
 179 148 125 93 125 21 c 0
 125 -51 157 -98 223 -120 c 0
 248 -129 280 -133 314 -133 c 0
 400 -133 472 -125 531 -107 c 1
 548 -174 l 1
 471 -200 393 -213 314 -213 c 2
 312 -213 l 2
 179 -213 97 -162 68 -60 c 0
 60 -36 58 -10 58 16 c 0
EndSplineSet
Substitution2: "'init' Initial Forms in Arabic lookup 4 subtable" khe.init
Substitution2: "'medi' Medial Forms in Arabic lookup 3 subtable" khe.medi
Substitution2: "'fina' Terminal Forms in Arabic lookup 2 subtable" khe.fina
Substitution2: "'isol' Isolated Forms in Arabic lookup 1 subtable" uniFEA5
EndChar

StartChar: dal
Encoding: 1583 1583 64
Width: 481
GlyphClass: 2
Flags: W
LayerCount: 2
Fore
SplineSet
371 116 m 0
 371 201 328 284 243 366 c 1
 285 429 l 1
 342 377 385 311 415 232 c 0
 428 197 436 159 436 116 c 0
 436 81 407 50 350 24 c 0
 293 -2 240 -15 192 -15 c 0
 144 -15 105 -6 79 10 c 1
 111 80 l 1
 127 70 146 66 168 66 c 0
 240 66 297 75 339 91 c 0
 360 99 371 108 371 116 c 0
EndSplineSet
Substitution2: "'fina' Terminal Forms in Arabic lookup 2 subtable" dal.fina
Substitution2: "'isol' Isolated Forms in Arabic lookup 1 subtable" uniFEA9
EndChar

StartChar: zal
Encoding: 1584 1584 65
Width: 481
GlyphClass: 2
Flags: W
LayerCount: 2
Fore
SplineSet
251 516 m 1
 167 516 l 1
 167 600 l 1
 251 600 l 1
 251 516 l 1
371 116 m 0
 371 201 328 284 243 366 c 1
 285 429 l 1
 342 377 385 311 415 232 c 0
 428 197 436 159 436 116 c 0
 436 81 407 50 350 24 c 0
 293 -2 240 -15 192 -15 c 0
 144 -15 105 -6 79 10 c 1
 111 80 l 1
 127 70 146 66 168 66 c 0
 240 66 297 75 339 91 c 0
 360 99 371 108 371 116 c 0
EndSplineSet
Substitution2: "'fina' Terminal Forms in Arabic lookup 2 subtable" zal.fina
Substitution2: "'isol' Isolated Forms in Arabic lookup 1 subtable" uniFEAB
EndChar

StartChar: reh
Encoding: 1585 1585 66
Width: 451
GlyphClass: 2
Flags: W
LayerCount: 2
Fore
SplineSet
34 -156 m 1
 188 -100 283 -40 317 23 c 0
 325 36 328 53 328 74 c 0
 328 95 323 122 312 155 c 0
 301 188 290 211 279 224 c 1
 331 274 l 1
 356 242 376 191 389 123 c 0
 393 103 395 84 395 64 c 0
 395 26 378 -15 344 -56 c 0
 287 -126 190 -186 55 -233 c 1
 34 -156 l 1
EndSplineSet
Substitution2: "'fina' Terminal Forms in Arabic lookup 2 subtable" re.fina
Substitution2: "'isol' Isolated Forms in Arabic lookup 1 subtable" uniFEAD
EndChar

StartChar: zeh
Encoding: 1586 1586 67
Width: 451
GlyphClass: 2
Flags: W
LayerCount: 2
Fore
SplineSet
285 411 m 1
 201 411 l 1
 201 495 l 1
 285 495 l 1
 285 411 l 1
34 -156 m 1
 188 -100 283 -40 317 23 c 0
 325 36 328 53 328 74 c 0
 328 95 323 122 312 155 c 0
 301 188 290 211 279 224 c 1
 331 274 l 1
 356 242 376 191 389 123 c 0
 393 103 395 84 395 64 c 0
 395 26 378 -15 344 -56 c 0
 287 -126 190 -186 55 -233 c 1
 34 -156 l 1
EndSplineSet
Substitution2: "'fina' Terminal Forms in Arabic lookup 2 subtable" ze.fina
Substitution2: "'isol' Isolated Forms in Arabic lookup 1 subtable" uniFEAF
EndChar

StartChar: sin
Encoding: 1587 1587 68
Width: 1075
GlyphClass: 2
Flags: W
LayerCount: 2
Fore
SplineSet
524 4 m 0
 524 45 504 96 464 156 c 1
 520 198 l 1
 548 155 l 2
 564 131 580 111 595 99 c 0
 610 87 629 80 652 80 c 0
 675 80 696 88 710 104 c 0
 724 120 730 137 730 150 c 2
 730 210 l 1
 795 210 l 1
 795 146 l 2
 795 113 812 93 843 84 c 0
 852 82 861 80 871 80 c 0
 881 80 896 84 912 88 c 0
 928 92 941 100 948 111 c 0
 955 122 958 131 959 139 c 0
 959 169 946 225 920 309 c 1
 987 315 l 1
 1008 251 1019 209 1021 188 c 0
 1023 167 1025 149 1025 134 c 0
 1025 101 1009 70 977 42 c 0
 945 14 906 0 861 0 c 0
 816 0 782 18 758 53 c 1
 732 18 698 0 656 0 c 0
 627 0 604 3 588 11 c 1
 588 6 l 2
 588 -64 551 -120 476 -156 c 0
 416 -186 337 -200 240 -200 c 0
 180 -200 132 -185 99 -156 c 0
 66 -127 48 -86 48 -33 c 0
 48 20 72 86 119 165 c 1
 172 141 l 1
 135 72 116 17 116 -23 c 0
 116 -46 117 -63 123 -73 c 0
 129 -83 136 -90 146 -98 c 0
 169 -113 196 -120 227 -120 c 0
 380 -119 475 -91 512 -36 c 0
 520 -24 524 -11 524 4 c 0
EndSplineSet
Substitution2: "'init' Initial Forms in Arabic lookup 4 subtable" sin.init
Substitution2: "'medi' Medial Forms in Arabic lookup 3 subtable" sin.medi
Substitution2: "'fina' Terminal Forms in Arabic lookup 2 subtable" sin.fina
Substitution2: "'isol' Isolated Forms in Arabic lookup 1 subtable" uniFEB1
EndChar

StartChar: shin
Encoding: 1588 1588 69
Width: 1075
GlyphClass: 2
Flags: W
LayerCount: 2
Fore
SplineSet
714 365 m 1
 630 365 l 1
 630 449 l 1
 714 449 l 1
 714 365 l 1
845 365 m 1
 761 365 l 1
 761 449 l 1
 845 449 l 1
 845 365 l 1
779 493 m 1
 695 493 l 1
 695 576 l 1
 779 576 l 1
 779 493 l 1
524 4 m 0
 524 45 504 96 464 156 c 1
 520 198 l 1
 548 155 l 2
 564 131 580 111 595 99 c 0
 610 87 629 80 652 80 c 0
 675 80 696 88 710 104 c 0
 724 120 730 137 730 150 c 2
 730 210 l 1
 795 210 l 1
 795 146 l 2
 795 113 812 93 843 84 c 0
 852 82 861 80 871 80 c 0
 881 80 896 84 912 88 c 0
 928 92 941 100 948 111 c 0
 955 122 958 131 959 139 c 0
 959 169 946 225 920 309 c 1
 987 315 l 1
 1008 251 1019 209 1021 188 c 0
 1023 167 1025 149 1025 134 c 0
 1025 101 1009 70 977 42 c 0
 945 14 906 0 861 0 c 0
 816 0 782 18 758 53 c 1
 732 18 698 0 656 0 c 0
 627 0 604 3 588 11 c 1
 588 6 l 2
 588 -64 551 -120 476 -156 c 0
 416 -186 337 -200 240 -200 c 0
 180 -200 132 -185 99 -156 c 0
 66 -127 48 -86 48 -33 c 0
 48 20 72 86 119 165 c 1
 172 141 l 1
 135 72 116 17 116 -23 c 0
 116 -46 117 -63 123 -73 c 0
 129 -83 136 -90 146 -98 c 0
 169 -113 196 -120 227 -120 c 0
 380 -119 475 -91 512 -36 c 0
 520 -24 524 -11 524 4 c 0
EndSplineSet
Substitution2: "'init' Initial Forms in Arabic lookup 4 subtable" shin.init
Substitution2: "'medi' Medial Forms in Arabic lookup 3 subtable" shin.medi
Substitution2: "'fina' Terminal Forms in Arabic lookup 2 subtable" shin.fina
Substitution2: "'isol' Isolated Forms in Arabic lookup 1 subtable" uniFEB5
EndChar

StartChar: sad
Encoding: 1589 1589 70
Width: 1145
GlyphClass: 2
Flags: W
LayerCount: 2
Fore
SplineSet
798 80 m 2
 873 80 930 91 970 113 c 0
 1010 135 1031 159 1031 189 c 0
 1031 203 1025 217 1016 228 c 0
 997 249 980 258 960 258 c 0
 912 258 852 221 784 145 c 0
 765 123 748 102 730 80 c 1
 798 80 l 2
524 4 m 0
 524 45 504 96 464 156 c 1
 520 198 l 1
 548 155 l 2
 577 108 607 83 642 82 c 1
 720 186 789 260 845 298 c 0
 886 326 921 340 952 340 c 0
 983 340 1009 330 1032 311 c 0
 1075 277 1097 232 1097 178 c 0
 1097 163 1090 144 1078 121 c 0
 1066 98 1047 77 1023 59 c 0
 968 19 894 0 798 0 c 2
 661 0 l 2
 629 0 604 3 588 11 c 1
 588 6 l 2
 588 -64 551 -120 476 -156 c 0
 416 -186 337 -200 240 -200 c 0
 180 -200 132 -185 99 -156 c 0
 66 -127 48 -86 48 -33 c 0
 48 20 72 86 119 165 c 1
 172 141 l 1
 135 72 116 17 116 -23 c 0
 116 -46 117 -63 123 -73 c 0
 129 -83 136 -90 146 -98 c 0
 169 -113 196 -120 227 -120 c 0
 380 -119 475 -91 512 -36 c 0
 520 -24 524 -11 524 4 c 0
EndSplineSet
Substitution2: "'init' Initial Forms in Arabic lookup 4 subtable" sad.init
Substitution2: "'medi' Medial Forms in Arabic lookup 3 subtable" sad.medi
Substitution2: "'fina' Terminal Forms in Arabic lookup 2 subtable" sad.fina
Substitution2: "'isol' Isolated Forms in Arabic lookup 1 subtable" uniFEB9
EndChar

StartChar: zad
Encoding: 1590 1590 71
Width: 1145
GlyphClass: 2
Flags: W
LayerCount: 2
Fore
SplineSet
870 444 m 1
 786 444 l 1
 786 528 l 1
 870 528 l 1
 870 444 l 1
798 80 m 2
 873 80 930 91 970 113 c 0
 1010 135 1031 159 1031 189 c 0
 1031 203 1025 217 1016 228 c 0
 997 249 980 258 960 258 c 0
 912 258 852 221 784 145 c 0
 765 123 748 102 730 80 c 1
 798 80 l 2
524 4 m 0
 524 45 504 96 464 156 c 1
 520 198 l 1
 548 155 l 2
 577 108 607 83 642 82 c 1
 720 186 789 260 845 298 c 0
 886 326 921 340 952 340 c 0
 983 340 1009 330 1032 311 c 0
 1075 277 1097 232 1097 178 c 0
 1097 163 1090 144 1078 121 c 0
 1066 98 1047 77 1023 59 c 0
 968 19 894 0 798 0 c 2
 661 0 l 2
 629 0 604 3 588 11 c 1
 588 6 l 2
 588 -64 551 -120 476 -156 c 0
 416 -186 337 -200 240 -200 c 0
 180 -200 132 -185 99 -156 c 0
 66 -127 48 -86 48 -33 c 0
 48 20 72 86 119 165 c 1
 172 141 l 1
 135 72 116 17 116 -23 c 0
 116 -46 117 -63 123 -73 c 0
 129 -83 136 -90 146 -98 c 0
 169 -113 196 -120 227 -120 c 0
 380 -119 475 -91 512 -36 c 0
 520 -24 524 -11 524 4 c 0
EndSplineSet
Substitution2: "'init' Initial Forms in Arabic lookup 4 subtable" zad.init
Substitution2: "'medi' Medial Forms in Arabic lookup 3 subtable" zad.medi
Substitution2: "'fina' Terminal Forms in Arabic lookup 2 subtable" zad.fina
Substitution2: "'isol' Isolated Forms in Arabic lookup 1 subtable" uniFEBD
EndChar

StartChar: ta
Encoding: 1591 1591 72
Width: 669
GlyphClass: 2
Flags: W
LayerCount: 2
Fore
SplineSet
135 87 m 1
 148 102 l 1
 148 613 l 1
 213 613 l 1
 213 175 l 1
 312 284 403 338 484 338 c 0
 509 338 536 327 562 306 c 0
 588 285 607 254 617 216 c 0
 620 205 620 191 620 176 c 0
 620 161 614 141 602 118 c 0
 590 95 571 75 546 57 c 0
 488 16 405 -3 298 -3 c 0
 191 -3 114 5 66 23 c 1
 88 99 l 1
 101 93 117 89 135 87 c 1
223 79 m 1
 239 78 257 78 273 78 c 2
 319 78 l 2
 395 78 453 89 494 111 c 0
 535 133 554 157 554 183 c 0
 554 209 542 231 514 249 c 0
 504 255 490 256 475 256 c 0
 460 256 440 251 416 241 c 0
 392 231 366 214 336 191 c 0
 306 168 268 131 223 79 c 1
EndSplineSet
Substitution2: "'init' Initial Forms in Arabic lookup 4 subtable" ta.init
Substitution2: "'medi' Medial Forms in Arabic lookup 3 subtable" ta.medi
Substitution2: "'fina' Terminal Forms in Arabic lookup 2 subtable" ta.fina
Substitution2: "'isol' Isolated Forms in Arabic lookup 1 subtable" uniFEC1
EndChar

StartChar: za
Encoding: 1592 1592 73
Width: 669
GlyphClass: 2
Flags: W
LayerCount: 2
Fore
SplineSet
415 444 m 1
 331 444 l 1
 331 528 l 1
 415 528 l 1
 415 444 l 1
135 87 m 1
 148 102 l 1
 148 613 l 1
 213 613 l 1
 213 175 l 1
 312 284 403 338 484 338 c 0
 509 338 536 327 562 306 c 0
 588 285 607 254 617 216 c 0
 620 205 620 191 620 176 c 0
 620 161 614 141 602 118 c 0
 590 95 571 75 546 57 c 0
 488 16 405 -3 298 -3 c 0
 191 -3 114 5 66 23 c 1
 88 99 l 1
 101 93 117 89 135 87 c 1
223 79 m 1
 239 78 257 78 273 78 c 2
 319 78 l 2
 395 78 453 89 494 111 c 0
 535 133 554 157 554 183 c 0
 554 209 542 231 514 249 c 0
 504 255 490 256 475 256 c 0
 460 256 440 251 416 241 c 0
 392 231 366 214 336 191 c 0
 306 168 268 131 223 79 c 1
EndSplineSet
Substitution2: "'init' Initial Forms in Arabic lookup 4 subtable" za.init
Substitution2: "'medi' Medial Forms in Arabic lookup 3 subtable" za.medi
Substitution2: "'fina' Terminal Forms in Arabic lookup 2 subtable" za.fina
Substitution2: "'isol' Isolated Forms in Arabic lookup 1 subtable" uniFEC5
EndChar

StartChar: ein
Encoding: 1593 1593 74
Width: 526
GlyphClass: 2
Flags: W
LayerCount: 2
Fore
SplineSet
249 410 m 2
 246 410 l 2
 232 410 215 404 199 392 c 0
 183 380 174 366 174 353 c 0
 174 312 205 279 265 254 c 1
 316 277 372 296 432 310 c 1
 447 238 l 1
 228 180 118 92 118 -21 c 0
 118 -62 144 -92 198 -113 c 0
 236 -128 286 -136 346 -136 c 0
 366 -136 402 -136 454 -134 c 1
 465 -196 l 1
 421 -210 384 -218 355 -218 c 0
 326 -218 297 -215 265 -212 c 0
 233 -209 203 -199 172 -184 c 0
 141 -169 117 -154 102 -140 c 0
 68 -107 51 -67 51 -20 c 0
 51 67 96 144 184 210 c 1
 134 244 109 291 109 354 c 0
 109 387 124 417 156 446 c 0
 188 475 216 488 240 488 c 2
 241 488 l 2
 285 488 330 479 376 460 c 1
 354 397 l 1
 335 405 301 410 249 410 c 2
EndSplineSet
Substitution2: "'init' Initial Forms in Arabic lookup 4 subtable" ein.init
Substitution2: "'medi' Medial Forms in Arabic lookup 3 subtable" uniFECC
Substitution2: "'fina' Terminal Forms in Arabic lookup 2 subtable" ein.fina
Substitution2: "'isol' Isolated Forms in Arabic lookup 1 subtable" uniFEC9
EndChar

StartChar: qein
Encoding: 1594 1594 75
Width: 526
GlyphClass: 2
Flags: W
LayerCount: 2
Fore
SplineSet
305 570 m 1
 221 570 l 1
 221 653 l 1
 305 653 l 1
 305 570 l 1
249 410 m 2
 246 410 l 2
 232 410 215 404 199 392 c 0
 183 380 174 366 174 353 c 0
 174 312 205 279 265 254 c 1
 316 277 372 296 432 310 c 1
 447 238 l 1
 228 180 118 92 118 -21 c 0
 118 -62 144 -92 198 -113 c 0
 236 -128 286 -136 346 -136 c 0
 366 -136 402 -136 454 -134 c 1
 465 -196 l 1
 421 -210 384 -218 355 -218 c 0
 326 -218 297 -215 265 -212 c 0
 233 -209 203 -199 172 -184 c 0
 141 -169 117 -154 102 -140 c 0
 68 -107 51 -67 51 -20 c 0
 51 67 96 144 184 210 c 1
 134 244 109 291 109 354 c 0
 109 387 124 417 156 446 c 0
 188 475 216 488 240 488 c 2
 241 488 l 2
 285 488 330 479 376 460 c 1
 354 397 l 1
 335 405 301 410 249 410 c 2
EndSplineSet
Substitution2: "'init' Initial Forms in Arabic lookup 4 subtable" qein.init
Substitution2: "'medi' Medial Forms in Arabic lookup 3 subtable" qein.medi
Substitution2: "'fina' Terminal Forms in Arabic lookup 2 subtable" qein.fina
Substitution2: "'isol' Isolated Forms in Arabic lookup 1 subtable" uniFECD
EndChar

StartChar: kashidas
Encoding: 1600 1600 76
Width: 293
GlyphClass: 2
Flags: W
AnchorPoint: "Anchor-1" 125 -87 basechar 0
AnchorPoint: "Anchor-0" 132 380 basechar 0
LayerCount: 2
Fore
SplineSet
296 0 m 1
 -30 0 l 1
 -30 80 l 1
 296 80 l 1
 296 0 l 1
EndSplineSet
EndChar

StartChar: fe
Encoding: 1601 1601 77
Width: 884
GlyphClass: 2
Flags: W
LayerCount: 2
Fore
SplineSet
732 516 m 1
 648 516 l 1
 648 600 l 1
 732 600 l 1
 732 516 l 1
638 263 m 0
 638 251 663 244 711 244 c 2
 729 244 l 2
 740 244 755 247 773 255 c 1
 763 303 740 336 706 351 c 0
 697 355 690 358 682 358 c 0
 674 358 670 355 664 348 c 0
 648 326 639 298 638 263 c 0
711 163 m 0
 619 163 573 197 573 263 c 0
 573 301 581 335 597 366 c 0
 622 413 650 437 680 437 c 0
 717 437 751 421 782 388 c 0
 820 348 839 298 839 235 c 0
 839 135 825 74 796 51 c 0
 767 28 711 11 626 0 c 0
 541 -11 464 -15 396 -15 c 2
 341 -15 l 2
 306 -15 269 -13 234 -6 c 0
 116 16 57 69 57 153 c 0
 57 200 71 257 96 324 c 1
 161 311 l 1
 157 299 150 276 139 244 c 0
 128 212 122 182 122 153 c 0
 122 124 143 102 185 87 c 0
 227 72 278 65 340 65 c 0
 531 65 666 80 744 110 c 0
 758 118 768 138 772 173 c 1
 756 166 735 163 711 163 c 0
EndSplineSet
Substitution2: "'init' Initial Forms in Arabic lookup 4 subtable" fe.init
Substitution2: "'medi' Medial Forms in Arabic lookup 3 subtable" fe.medi
Substitution2: "'fina' Terminal Forms in Arabic lookup 2 subtable" fe.fina
Substitution2: "'isol' Isolated Forms in Arabic lookup 1 subtable" uniFED1
EndChar

StartChar: qaf
Encoding: 1602 1602 78
Width: 660
GlyphClass: 2
Flags: W
LayerCount: 2
Fore
SplineSet
432 411 m 1
 349 411 l 1
 349 495 l 1
 432 495 l 1
 432 411 l 1
556 411 m 1
 472 411 l 1
 472 495 l 1
 556 495 l 1
 556 411 l 1
473 133 m 0
 495 133 515 136 535 144 c 1
 526 175 513 200 498 219 c 0
 483 238 465 246 444 246 c 0
 433 246 423 237 414 217 c 0
 405 197 400 176 400 154 c 0
 400 140 425 133 473 133 c 0
172 141 m 1
 135 72 116 17 116 -23 c 0
 116 -46 117 -63 123 -73 c 0
 129 -83 136 -90 146 -98 c 0
 169 -113 196 -120 227 -120 c 0
 391 -119 491 -91 531 -36 c 0
 540 -24 544 -9 544 6 c 2
 544 64 l 1
 521 56 495 53 465 53 c 0
 435 53 410 58 388 67 c 0
 353 81 336 109 336 150 c 0
 336 191 345 230 367 268 c 0
 389 306 412 327 440 327 c 2
 441 327 l 2
 493 327 534 303 564 252 c 0
 594 201 609 136 609 58 c 2
 609 6 l 2
 609 -64 568 -120 486 -156 c 0
 420 -186 339 -200 240 -200 c 0
 180 -200 132 -185 99 -156 c 0
 66 -127 48 -86 48 -33 c 0
 48 20 72 86 119 165 c 1
 172 141 l 1
EndSplineSet
Substitution2: "'init' Initial Forms in Arabic lookup 4 subtable" qaf.init
Substitution2: "'medi' Medial Forms in Arabic lookup 3 subtable" qaf.medi
Substitution2: "'fina' Terminal Forms in Arabic lookup 2 subtable" qaf.fina
Substitution2: "'isol' Isolated Forms in Arabic lookup 1 subtable" uniFED5
EndChar

StartChar: kaf.arab
Encoding: 1603 1603 79
Width: 669
GlyphClass: 2
Flags: W
LayerCount: 2
Fore
SplineSet
389 426 m 1
 352 426 324 417 305 399 c 0
 295 389 295 381 305 377 c 0
 309 375 314 371 321 368 c 2
 342 359 l 2
 371 346 385 324 385 299 c 0
 385 273 363 251 318 233 c 0
 283 219 252 212 224 212 c 2
 222 212 l 1
 222 266 l 1
 255 266 281 269 299 276 c 0
 317 283 329 286 333 289 c 0
 337 292 340 296 340 299 c 0
 340 300 338 303 331 306 c 2
 311 316 l 2
 290 326 275 335 266 345 c 0
 257 355 253 368 253 381 c 0
 253 406 266 429 294 450 c 0
 322 471 353 482 389 482 c 1
 389 426 l 1
75 97 m 1
 116 79 174 69 251 69 c 0
 385 69 466 75 491 87 c 0
 516 99 529 128 529 172 c 2
 529 613 l 1
 594 613 l 1
 594 172 l 2
 594 92 575 41 534 21 c 0
 502 5 427 -5 310 -11 c 0
 289 -12 264 -12 235 -12 c 0
 162 -12 102 1 51 25 c 1
 75 97 l 1
EndSplineSet
Substitution2: "'init' Initial Forms in Arabic lookup 4 subtable" uniFEDB
Substitution2: "'medi' Medial Forms in Arabic lookup 3 subtable" uniFEDC
Substitution2: "'fina' Terminal Forms in Arabic lookup 2 subtable" uniFEDA
Substitution2: "'isol' Isolated Forms in Arabic lookup 1 subtable" uniFED9
EndChar

StartChar: lam
Encoding: 1604 1604 80
Width: 663
GlyphClass: 2
Flags: W
LayerCount: 2
Fore
SplineSet
172 141 m 1
 135 72 116 17 116 -23 c 0
 116 -46 117 -63 123 -73 c 0
 129 -83 136 -90 146 -98 c 0
 169 -113 196 -120 227 -120 c 0
 380 -119 476 -91 513 -36 c 0
 521 -24 525 -15 525 -7 c 2
 525 613 l 1
 588 613 l 1
 588 6 l 2
 588 -64 551 -120 476 -156 c 0
 416 -186 337 -200 240 -200 c 0
 180 -200 132 -185 99 -156 c 0
 66 -127 48 -86 48 -33 c 0
 48 20 72 86 119 165 c 1
 172 141 l 1
EndSplineSet
Substitution2: "'init' Initial Forms in Arabic lookup 4 subtable" lam.init
Substitution2: "'medi' Medial Forms in Arabic lookup 3 subtable" lam.medi
Substitution2: "'fina' Terminal Forms in Arabic lookup 2 subtable" lam.fina
Substitution2: "'isol' Isolated Forms in Arabic lookup 1 subtable" uniFEDD
EndChar

StartChar: mim
Encoding: 1605 1605 81
Width: 539
GlyphClass: 2
Flags: W
LayerCount: 2
Fore
SplineSet
416 258 m 1
 418 262 419 270 419 280 c 0
 419 302 409 326 389 349 c 0
 369 372 345 384 316 384 c 0
 298 384 287 369 280 344 c 0
 278 336 277 327 277 315 c 0
 277 303 280 290 287 277 c 1
 329 276 372 269 416 258 c 1
117 172 m 0
 117 129 132 -8 162 -240 c 1
 98 -251 l 1
 68 -13 53 128 53 172 c 0
 53 219 88 249 158 263 c 0
 178 267 198 271 218 273 c 1
 215 284 212 300 212 322 c 0
 212 360 222 393 243 422 c 0
 264 451 288 464 316 464 c 2
 317 464 l 2
 346 464 372 454 400 434 c 0
 438 406 464 368 477 320 c 0
 481 306 483 290 483 275 c 0
 483 260 481 244 475 229 c 2
 454 162 l 1
 396 185 333 197 265 197 c 0
 197 197 149 190 124 179 c 0
 118 177 117 175 117 172 c 0
EndSplineSet
Substitution2: "'init' Initial Forms in Arabic lookup 4 subtable" mim.init
Substitution2: "'medi' Medial Forms in Arabic lookup 3 subtable" mim.medi
Substitution2: "'fina' Terminal Forms in Arabic lookup 2 subtable" mim.fina
Substitution2: "'isol' Isolated Forms in Arabic lookup 1 subtable" uniFEE1
EndChar

StartChar: nun
Encoding: 1606 1606 82
Width: 631
GlyphClass: 2
Flags: W
LayerCount: 2
Fore
SplineSet
348 246 m 1
 264 246 l 1
 264 330 l 1
 348 330 l 1
 348 246 l 1
172 141 m 1
 135 72 116 17 116 -23 c 0
 116 -46 118 -63 124 -73 c 0
 130 -83 137 -90 147 -98 c 0
 169 -113 196 -120 228 -120 c 0
 381 -119 477 -91 514 -36 c 0
 522 -24 526 -9 526 7 c 0
 526 23 518 54 504 100 c 0
 490 146 475 186 459 220 c 1
 517 252 l 1
 549 183 572 113 586 47 c 0
 590 28 593 10 593 -8 c 0
 593 -26 588 -44 578 -64 c 0
 550 -121 494 -159 409 -180 c 0
 356 -193 307 -200 262 -200 c 0
 217 -200 181 -196 158 -188 c 0
 85 -164 48 -115 48 -41 c 0
 48 17 72 86 119 165 c 1
 172 141 l 1
EndSplineSet
Substitution2: "'init' Initial Forms in Arabic lookup 4 subtable" nun.init
Substitution2: "'medi' Medial Forms in Arabic lookup 3 subtable" nun.medi
Substitution2: "'fina' Terminal Forms in Arabic lookup 2 subtable" nun.fina
Substitution2: "'isol' Isolated Forms in Arabic lookup 1 subtable" uniFEE5
EndChar

StartChar: he8
Encoding: 1607 1607 83
Width: 458
GlyphClass: 2
Flags: W
LayerCount: 2
Fore
SplineSet
184 377 m 1
 214 367 242 354 270 336 c 0
 368 273 416 208 416 142 c 0
 416 118 402 90 376 60 c 0
 350 30 308 9 251 -4 c 0
 235 -8 217 -10 198 -10 c 0
 157 -10 123 4 94 29 c 0
 65 54 51 86 51 126 c 0
 51 177 77 242 131 318 c 0
 153 349 171 368 184 377 c 1
197 287 m 1
 178 266 160 240 142 208 c 0
 124 176 114 148 114 126 c 0
 114 101 133 84 168 75 c 0
 179 72 196 70 219 70 c 0
 242 70 269 78 302 92 c 0
 335 106 351 123 351 142 c 0
 351 188 300 236 197 287 c 1
EndSplineSet
Substitution2: "'init' Initial Forms in Arabic lookup 4 subtable" he8.init
Substitution2: "'medi' Medial Forms in Arabic lookup 3 subtable" he.medi
Substitution2: "'fina' Terminal Forms in Arabic lookup 2 subtable" he8.fina
Substitution2: "'isol' Isolated Forms in Arabic lookup 1 subtable" uniFEE9
EndChar

StartChar: vav
Encoding: 1608 1608 84
Width: 451
GlyphClass: 2
Flags: W
LayerCount: 2
Fore
SplineSet
322 45 m 1
 303 38 287 35 271 35 c 0
 255 35 241 35 232 36 c 0
 162 42 126 75 126 135 c 0
 126 173 141 214 170 257 c 0
 199 300 226 322 254 322 c 0
 295 322 328 299 354 252 c 0
 380 205 394 157 394 109 c 0
 394 61 390 23 380 -3 c 0
 364 -49 331 -92 286 -129 c 0
 241 -166 176 -200 91 -232 c 1
 68 -158 l 1
 69 -156 l 1
 214 -102 299 -34 322 45 c 1
191 135 m 0
 191 123 213 116 257 116 c 0
 281 116 305 121 328 131 c 1
 319 181 304 214 282 232 c 0
 274 239 265 242 256 242 c 0
 240 242 224 229 211 204 c 0
 198 179 191 155 191 135 c 0
EndSplineSet
Substitution2: "'fina' Terminal Forms in Arabic lookup 2 subtable" vav.fina
Substitution2: "'isol' Isolated Forms in Arabic lookup 1 subtable" uniFEED
EndChar

StartChar: uni0649
Encoding: 1609 1609 85
Width: 751
GlyphClass: 2
Flags: W
LayerCount: 2
Fore
SplineSet
582 -25 m 2
 582 -23 l 2
 582 -15 576 -9 566 -3 c 0
 556 3 531 11 493 22 c 0
 455 33 428 45 414 59 c 0
 400 73 392 99 392 133 c 0
 392 167 415 203 460 244 c 0
 505 285 549 305 592 305 c 0
 635 305 675 276 711 219 c 1
 656 174 l 1
 636 206 612 222 586 222 c 0
 560 222 533 211 503 190 c 0
 473 169 458 149 458 129 c 0
 458 122 462 116 471 112 c 0
 480 108 505 100 543 89 c 0
 581 78 610 64 625 48 c 0
 640 32 649 9 649 -24 c 0
 649 -74 599 -114 500 -145 c 0
 416 -171 338 -185 264 -185 c 0
 120 -185 47 -132 47 -25 c 0
 47 33 72 103 119 182 c 1
 172 156 l 1
 166 146 161 134 154 122 c 0
 129 75 114 26 114 -25 c 0
 114 -78 161 -104 252 -104 c 0
 359 -104 448 -92 521 -69 c 0
 562 -56 582 -41 582 -25 c 2
EndSplineSet
Substitution2: "'init' Initial Forms in Arabic lookup 4 subtable" uniFBE8
Substitution2: "'medi' Medial Forms in Arabic lookup 3 subtable" uniFBE9
Substitution2: "'fina' Terminal Forms in Arabic lookup 2 subtable" uniFEF0
Substitution2: "'isol' Isolated Forms in Arabic lookup 1 subtable" uniFEEF
EndChar

StartChar: uni064A
Encoding: 1610 1610 86
Width: 751
GlyphClass: 2
Flags: W
LayerCount: 2
Fore
SplineSet
290 -310 m 1
 207 -310 l 1
 207 -227 l 1
 290 -227 l 1
 290 -310 l 1
414 -310 m 1
 330 -310 l 1
 330 -227 l 1
 414 -227 l 1
 414 -310 l 1
582 -25 m 2
 582 -23 l 2
 582 -15 576 -9 566 -3 c 0
 556 3 531 11 493 22 c 0
 455 33 428 45 414 59 c 0
 400 73 392 99 392 133 c 0
 392 167 415 203 460 244 c 0
 505 285 549 305 592 305 c 0
 635 305 675 276 711 219 c 1
 656 174 l 1
 636 206 612 222 586 222 c 0
 560 222 533 211 503 190 c 0
 473 169 458 149 458 129 c 0
 458 122 462 116 471 112 c 0
 480 108 505 100 543 89 c 0
 581 78 610 64 625 48 c 0
 640 32 649 9 649 -24 c 0
 649 -74 599 -114 500 -145 c 0
 416 -171 338 -185 264 -185 c 0
 120 -185 47 -132 47 -25 c 0
 47 33 72 103 119 182 c 1
 172 156 l 1
 166 146 161 134 154 122 c 0
 129 75 114 26 114 -25 c 0
 114 -78 161 -104 252 -104 c 0
 359 -104 448 -92 521 -69 c 0
 562 -56 582 -41 582 -25 c 2
EndSplineSet
Substitution2: "'init' Initial Forms in Arabic lookup 4 subtable" uniFEF3
Substitution2: "'medi' Medial Forms in Arabic lookup 3 subtable" uniFEF4
Substitution2: "'fina' Terminal Forms in Arabic lookup 2 subtable" ye.arabi
Substitution2: "'isol' Isolated Forms in Arabic lookup 1 subtable" uniFEF1
EndChar

StartChar: earab.tanvin_fatheh
Encoding: 1611 1611 87
Width: 0
GlyphClass: 4
Flags: W
AnchorPoint: "Anchor-4" 120 400 mark 0
AnchorPoint: "Anchor-2" 120 400 mark 0
AnchorPoint: "Anchor-0" 120 400 mark 0
LayerCount: 2
Fore
SplineSet
210 592 m 1
 6 509 l 1
 6 549 l 1
 210 630 l 1
 210 592 l 1
210 482 m 1
 6 399 l 1
 6 438 l 1
 210 520 l 1
 210 482 l 1
EndSplineSet
EndChar

StartChar: earab.tanvin_kasreh
Encoding: 1612 1612 88
Width: 0
GlyphClass: 4
Flags: W
AnchorPoint: "Anchor-4" 95 339 mark 0
AnchorPoint: "Anchor-2" 95 339 mark 0
AnchorPoint: "Anchor-0" 95 339 mark 0
LayerCount: 2
Fore
SplineSet
170 537 m 0
 170 563 161 581 140 590 c 1
 108 590 86 569 76 527 c 1
 86 517 101 508 116 504 c 0
 131 500 144 495 153 492 c 1
 165 514 170 529 170 537 c 0
180 483 m 1
 187 480 197 476 211 474 c 1
 211 441 l 1
 164 458 l 1
 134 411 75 371 -14 339 c 1
 -15 342 -17 346 -18 349 c 0
 -19 352 -21 357 -22 361 c 0
 -23 365 -24 370 -25 376 c 1
 -15 377 -4 381 14 389 c 0
 15 393 15 396 15 398 c 2
 15 405 l 2
 15 430 7 447 -8 455 c 0
 -17 461 -25 462 -33 462 c 0
 -41 462 -47 461 -54 459 c 0
 -56 462 -58 467 -59 469 c 0
 -60 471 -63 474 -64 476 c 0
 -65 478 -66 481 -68 483 c 0
 -70 485 -73 489 -74 492 c 0
 -66 495 -56 497 -44 497 c 0
 -19 497 2 488 16 470 c 0
 30 452 39 428 40 397 c 1
 70 411 92 425 108 439 c 0
 124 453 135 462 139 468 c 1
 132 470 125 472 116 473 c 0
 107 474 96 478 82 482 c 0
 68 486 56 498 46 512 c 1
 55 565 80 600 120 618 c 0
 132 624 140 626 148 626 c 2
 161 626 l 1
 187 607 200 586 200 561 c 0
 200 536 197 518 191 507 c 0
 185 496 181 487 180 483 c 1
EndSplineSet
EndChar

StartChar: earab.tanvin_zameh
Encoding: 1613 1613 89
Width: 0
GlyphClass: 4
Flags: W
AnchorPoint: "Anchor-5" 101 -28 mark 0
AnchorPoint: "Anchor-3" 101 -28 mark 0
AnchorPoint: "Anchor-1" 101 -28 mark 0
LayerCount: 2
Fore
SplineSet
200 -75 m 1
 -7 -158 l 1
 -7 -120 l 1
 200 -36 l 1
 200 -75 l 1
200 -182 m 1
 -7 -264 l 1
 -7 -226 l 1
 200 -143 l 1
 200 -182 l 1
EndSplineSet
EndChar

StartChar: earab.fatheh
Encoding: 1614 1614 90
Width: 0
GlyphClass: 4
Flags: W
AnchorPoint: "Anchor-4" 107 502 mark 0
AnchorPoint: "Anchor-2" 107 502 mark 0
AnchorPoint: "Anchor-0" 107 502 mark 0
LayerCount: 2
Fore
SplineSet
200 586 m 1
 -7 504 l 1
 -7 542 l 1
 200 625 l 1
 200 586 l 1
EndSplineSet
EndChar

StartChar: earab.zameh
Encoding: 1615 1615 91
Width: 0
GlyphClass: 4
Flags: W
AnchorPoint: "Anchor-4" 113 339 mark 0
AnchorPoint: "Anchor-2" 113 339 mark 0
AnchorPoint: "Anchor-0" 113 339 mark 0
LayerCount: 2
Fore
SplineSet
172 481 m 1
 178 477 189 472 209 466 c 1
 201 436 l 1
 153 456 l 1
 117 404 63 366 -7 340 c 1
 -7 383 l 1
 53 399 99 426 128 464 c 1
 121 467 114 470 106 472 c 0
 98 474 86 478 72 486 c 0
 58 494 49 500 43 507 c 1
 46 564 68 602 108 617 c 0
 120 621 133 624 147 624 c 1
 173 605 187 581 187 550 c 0
 187 547 186 543 185 536 c 0
 184 529 183 524 182 517 c 0
 181 510 178 505 176 498 c 0
 174 491 172 487 172 481 c 1
158 534 m 0
 158 559 149 576 129 585 c 1
 113 585 99 581 89 572 c 0
 79 563 74 549 68 528 c 1
 78 518 92 511 108 505 c 0
 124 499 137 494 146 491 c 1
 154 507 158 522 158 534 c 0
EndSplineSet
EndChar

StartChar: earab.kasreh
Encoding: 1616 1616 92
Width: 0
GlyphClass: 4
Flags: W
AnchorPoint: "Anchor-5" 107 -116 mark 0
AnchorPoint: "Anchor-3" 107 -116 mark 0
AnchorPoint: "Anchor-1" 107 -116 mark 0
LayerCount: 2
Fore
SplineSet
200 -180 m 1
 -7 -262 l 1
 -7 -223 l 1
 200 -141 l 1
 200 -180 l 1
EndSplineSet
EndChar

StartChar: earab.tashdid
Encoding: 1617 1617 93
Width: 0
GlyphClass: 4
Flags: W
AnchorPoint: "Anchor-4" 107 419 mark 0
AnchorPoint: "Anchor-2" 107 419 mark 0
AnchorPoint: "Anchor-0" 107 419 mark 0
LayerCount: 2
Fore
SplineSet
151 497 m 0
 176 497 188 521 188 568 c 0
 188 580 187 596 184 619 c 1
 210 626 l 1
 213 548 l 2
 213 512 202 486 179 473 c 0
 171 469 163 465 153 465 c 0
 143 465 133 470 124 478 c 0
 115 486 109 499 103 513 c 1
 91 460 72 434 44 433 c 2
 41 433 l 2
 11 433 -7 450 -15 482 c 0
 -19 497 -22 508 -22 514 c 2
 -22 524 l 1
 -23 554 l 1
 1 561 l 1
 3 522 l 2
 5 484 16 465 38 465 c 0
 69 465 85 496 85 556 c 2
 85 585 l 1
 108 594 l 1
 108 559 116 530 131 508 c 0
 137 500 143 497 151 497 c 0
EndSplineSet
EndChar

StartChar: earab.sokon
Encoding: 1618 1618 94
Width: 0
GlyphClass: 4
Flags: W
AnchorPoint: "Anchor-4" 101 414 mark 0
AnchorPoint: "Anchor-2" 101 414 mark 0
AnchorPoint: "Anchor-0" 101 414 mark 0
LayerCount: 2
Fore
SplineSet
72 587 m 1
 46 571 32 543 32 506 c 0
 32 482 51 471 89 471 c 0
 115 471 136 479 150 495 c 1
 152 502 l 1
 144 536 127 560 104 575 c 0
 95 582 84 586 72 587 c 1
175 515 m 0
 175 507 171 490 163 466 c 1
 137 442 112 430 89 430 c 0
 66 430 45 437 29 451 c 0
 13 465 3 484 3 506 c 0
 3 560 27 600 72 626 c 1
 105 618 130 604 148 581 c 0
 166 558 175 537 175 515 c 0
EndSplineSet
EndChar

StartChar: uni0653
Encoding: 1619 1619 95
Width: 0
GlyphClass: 4
Flags: W
AnchorPoint: "Anchor-4" 107 426 mark 0
AnchorPoint: "Anchor-2" 107 426 mark 0
AnchorPoint: "Anchor-0" 107 426 mark 0
LayerCount: 2
Fore
SplineSet
264 499 m 1
 195 456 131 436 72 436 c 0
 54 436 30 437 -1 443 c 1
 -4 434 -7 425 -7 414 c 2
 -7 385 l 1
 -50 385 l 1
 -50 418 -46 443 -37 464 c 0
 -28 485 -21 499 -14 507 c 1
 4 495 35 490 81 490 c 0
 127 490 181 509 241 546 c 1
 264 499 l 1
EndSplineSet
EndChar

StartChar: uni0654
Encoding: 1620 1620 96
Width: 0
GlyphClass: 4
Flags: W
AnchorPoint: "Anchor-4" 101 394 mark 0
AnchorPoint: "Anchor-2" 101 394 mark 0
AnchorPoint: "Anchor-0" 101 394 mark 0
LayerCount: 2
Fore
SplineSet
55 459 m 1
 31 480 20 502 20 526 c 0
 20 550 30 572 52 594 c 0
 74 616 96 626 119 626 c 1
 120 627 l 1
 143 627 164 619 184 600 c 0
 190 594 194 588 200 581 c 1
 168 546 l 1
 165 550 161 554 154 562 c 0
 147 570 137 573 125 573 c 0
 113 573 105 572 98 569 c 0
 75 558 63 544 63 526 c 0
 63 514 81 499 117 484 c 1
 135 490 151 494 166 497 c 0
 181 500 197 503 211 507 c 1
 220 453 l 1
 205 450 191 446 178 444 c 0
 141 437 85 417 13 381 c 1
 -6 431 l 1
 25 446 46 455 55 459 c 1
EndSplineSet
EndChar

StartChar: uni0655
Encoding: 1621 1621 97
Width: 0
GlyphClass: 4
Flags: W
AnchorPoint: "Anchor-5" 95 -28 mark 0
AnchorPoint: "Anchor-3" 95 -28 mark 0
AnchorPoint: "Anchor-1" 95 -28 mark 0
LayerCount: 2
Fore
SplineSet
34 -221 m 1
 10 -200 -1 -178 -1 -155 c 0
 -1 -132 9 -109 31 -87 c 0
 53 -65 73 -54 94 -54 c 0
 115 -54 131 -57 142 -65 c 0
 153 -73 166 -84 180 -100 c 1
 147 -135 l 1
 143 -132 139 -127 132 -119 c 0
 125 -111 115 -109 100 -109 c 0
 85 -109 71 -114 59 -124 c 0
 47 -134 42 -144 42 -153 c 0
 42 -162 47 -170 57 -177 c 0
 67 -184 81 -190 97 -197 c 1
 116 -189 132 -186 146 -184 c 0
 160 -182 174 -178 190 -174 c 1
 200 -229 l 1
 191 -231 183 -232 175 -233 c 0
 132 -240 71 -261 -7 -299 c 1
 -25 -251 l 1
 -13 -245 -3 -238 7 -234 c 0
 17 -230 25 -225 34 -221 c 1
EndSplineSet
EndChar

StartChar: uni0656
Encoding: 1622 1622 98
Width: 0
GlyphClass: 4
Flags: W
AnchorPoint: "Anchor-5" 101 -72 mark 0
AnchorPoint: "Anchor-3" 101 -72 mark 0
AnchorPoint: "Anchor-1" 101 -72 mark 0
LayerCount: 2
Fore
SplineSet
142 -204 m 0
 142 -215 140 -232 136 -255 c 1
 113 -255 l 1
 113 -200 98 -152 70 -110 c 1
 104 -79 l 1
 129 -123 142 -166 142 -204 c 0
EndSplineSet
EndChar

StartChar: uni0660
Encoding: 1632 1632 99
Width: 545
GlyphClass: 2
Flags: W
LayerCount: 2
Fore
SplineSet
284 173 m 1
 174 261 l 1
 261 368 l 1
 373 284 l 1
 284 173 l 1
EndSplineSet
EndChar

StartChar: uni0661
Encoding: 1633 1633 100
Width: 545
GlyphClass: 2
Flags: W
LayerCount: 2
Fore
SplineSet
340 -30 m 1
 332 159 281 331 189 487 c 0
 176 510 163 531 151 550 c 1
 206 596 l 1
 332 400 397 191 404 -30 c 1
 340 -30 l 1
EndSplineSet
EndChar

StartChar: uni0662
Encoding: 1634 1634 101
Width: 545
GlyphClass: 2
Flags: W
LayerCount: 2
Fore
SplineSet
495 591 m 1
 458 469 400 408 323 408 c 0
 277 408 240 413 212 424 c 1
 279 284 312 133 312 -30 c 1
 248 -30 l 1
 248 130 210 281 135 424 c 0
 113 466 89 508 64 546 c 1
 117 591 l 1
 172 531 224 498 274 492 c 0
 289 490 305 488 323 488 c 0
 371 488 408 531 433 615 c 1
 495 591 l 1
EndSplineSet
EndChar

StartChar: uni0663
Encoding: 1635 1635 102
Width: 545
GlyphClass: 2
Flags: W
LayerCount: 2
Fore
SplineSet
328 471 m 1
 305 430 273 409 235 409 c 0
 215 409 196 413 174 421 c 1
 225 300 261 149 282 -30 c 1
 218 -30 l 1
 189 208 127 401 32 547 c 1
 85 592 l 1
 131 525 181 491 235 491 c 0
 251 491 266 502 278 524 c 0
 290 546 297 576 297 617 c 1
 360 617 l 1
 360 555 372 518 396 505 c 0
 403 502 409 499 417 499 c 0
 441 499 456 539 463 618 c 1
 526 613 l 1
 519 541 508 491 490 462 c 0
 472 433 446 419 412 419 c 0
 378 419 350 436 328 471 c 1
EndSplineSet
EndChar

StartChar: uni0664
Encoding: 1636 1636 103
Width: 545
GlyphClass: 2
Flags: W
LayerCount: 2
Fore
SplineSet
384 -57 m 1
 220 -27 138 23 138 96 c 0
 138 140 158 187 198 239 c 0
 212 257 228 276 248 298 c 1
 173 342 135 387 135 433 c 0
 135 479 176 527 258 573 c 0
 283 587 313 601 343 613 c 1
 367 538 l 1
 288 506 235 478 210 454 c 0
 202 446 198 440 198 433 c 0
 198 414 250 377 356 320 c 1
 253 210 200 136 200 96 c 0
 200 75 237 55 312 37 c 0
 338 30 367 26 393 23 c 1
 384 -57 l 1
EndSplineSet
EndChar

StartChar: uni0665
Encoding: 1637 1637 104
Width: 545
GlyphClass: 2
Flags: W
LayerCount: 2
Fore
SplineSet
459 207 m 0
 459 106 394 54 264 54 c 0
 182 54 126 85 101 148 c 0
 92 170 89 195 89 221 c 0
 89 247 93 273 103 301 c 0
 127 370 181 418 261 442 c 1
 323 431 370 404 405 361 c 0
 440 318 459 267 459 207 c 0
264 135 m 0
 352 135 396 159 396 206 c 0
 396 243 384 273 360 302 c 0
 336 331 304 350 263 359 c 1
 189 329 152 284 152 222 c 0
 152 179 175 152 219 140 c 0
 232 137 248 135 264 135 c 0
EndSplineSet
EndChar

StartChar: uni0666
Encoding: 1638 1638 105
Width: 545
GlyphClass: 2
Flags: W
LayerCount: 2
Fore
SplineSet
92 550 m 1
 122 521 153 507 187 507 c 0
 250 507 323 519 405 544 c 1
 401 514 398 490 395 468 c 0
 392 446 388 420 385 388 c 0
 382 356 380 315 380 262 c 0
 380 209 382 173 386 152 c 0
 400 88 427 45 465 22 c 1
 436 -48 l 1
 403 -29 374 4 351 52 c 0
 328 100 316 163 316 241 c 0
 316 319 319 386 327 442 c 1
 270 430 227 425 202 425 c 0
 177 425 158 427 148 430 c 0
 116 439 83 459 48 492 c 1
 92 550 l 1
EndSplineSet
EndChar

StartChar: uni0667
Encoding: 1639 1639 106
Width: 545
GlyphClass: 2
Flags: W
LayerCount: 2
Fore
SplineSet
243 -30 m 1
 222 89 204 176 190 232 c 0
 176 288 156 344 132 397 c 0
 108 450 72 508 26 571 c 1
 79 617 l 1
 155 515 205 419 233 330 c 0
 242 300 257 238 277 147 c 1
 300 254 326 340 352 405 c 0
 378 470 420 540 475 617 c 1
 527 571 l 1
 483 511 448 455 424 402 c 0
 400 349 379 291 363 226 c 0
 347 161 329 74 311 -30 c 1
 243 -30 l 1
EndSplineSet
EndChar

StartChar: uni0668
Encoding: 1640 1640 107
Width: 545
GlyphClass: 2
Flags: W
LayerCount: 2
Fore
SplineSet
464 -45 m 1
 407 34 365 105 340 169 c 0
 315 233 289 318 265 425 c 1
 246 335 231 269 219 229 c 0
 195 151 144 58 68 -45 c 1
 15 2 l 1
 61 66 98 125 122 178 c 0
 146 231 168 289 183 352 c 0
 198 415 213 498 231 601 c 1
 299 601 l 1
 328 443 352 331 374 268 c 0
 396 205 419 153 444 111 c 0
 469 69 493 33 516 2 c 1
 464 -45 l 1
EndSplineSet
EndChar

StartChar: uni0669
Encoding: 1641 1641 108
Width: 545
GlyphClass: 2
Flags: W
LayerCount: 2
Fore
SplineSet
194 537 m 2
 191 537 l 2
 172 537 156 526 142 505 c 0
 128 484 121 462 121 439 c 0
 121 416 128 399 139 390 c 0
 150 381 165 376 186 376 c 0
 207 376 222 377 231 378 c 0
 240 379 249 381 257 383 c 0
 265 385 272 389 279 392 c 0
 286 395 293 400 301 404 c 1
 294 446 282 479 261 502 c 0
 240 525 218 537 194 537 c 2
458 -52 m 1
 368 -6 316 118 304 318 c 1
 274 303 243 296 209 296 c 0
 151 296 111 306 90 329 c 0
 69 352 58 385 58 431 c 0
 58 477 72 519 98 559 c 0
 124 599 157 618 197 618 c 0
 237 618 274 595 311 551 c 0
 348 507 366 448 366 374 c 0
 366 224 391 118 443 54 c 0
 455 39 470 28 485 20 c 1
 458 -52 l 1
EndSplineSet
EndChar

StartChar: uni066A
Encoding: 1642 1642 109
Width: 534
GlyphClass: 2
Flags: W
LayerCount: 2
Fore
SplineSet
87 -126 m 1
 34 -126 l 1
 452 670 l 1
 505 670 l 1
 87 -126 l 1
475 -87 m 1
 339 -87 l 1
 339 51 l 1
 475 51 l 1
 475 -87 l 1
199 488 m 1
 62 488 l 1
 62 626 l 1
 199 626 l 1
 199 488 l 1
EndSplineSet
EndChar

StartChar: uni066B
Encoding: 1643 1643 110
Width: 271
GlyphClass: 2
Flags: W
LayerCount: 2
Fore
SplineSet
6 -213 m 1
 -46 -213 l 1
 205 444 l 1
 258 444 l 1
 6 -213 l 1
EndSplineSet
Substitution2: "'calt' Contextual Alternates in Arabic lookup 8 subtable" uni066B.ar
EndChar

StartChar: uni066C
Encoding: 1644 1644 111
Width: 271
GlyphClass: 2
Flags: W
LayerCount: 2
Fore
SplineSet
169 43 m 1
 163 37 155 34 144 34 c 0
 133 34 123 38 113 48 c 0
 103 58 98 72 98 85 c 0
 98 98 103 110 114 119 c 0
 125 128 136 133 146 133 c 0
 191 133 214 111 214 67 c 0
 214 26 202 -10 176 -43 c 0
 150 -76 114 -105 70 -128 c 1
 35 -101 l 1
 73 -85 106 -64 131 -35 c 0
 156 -6 169 17 170 38 c 1
 169 43 l 1
EndSplineSet
Substitution2: "'calt' Contextual Alternates in Arabic lookup 8 subtable" uni066C.ar
EndChar

StartChar: uni066D
Encoding: 1645 1645 112
Width: 536
GlyphClass: 2
Flags: W
LayerCount: 2
Fore
SplineSet
403 148 m 2
 409 140 410 132 410 124 c 0
 410 116 406 109 398 101 c 0
 390 93 382 90 371 90 c 0
 360 90 351 96 342 106 c 2
 270 207 l 1
 196 106 l 2
 187 95 177 89 166 89 c 0
 155 89 147 92 139 100 c 0
 131 108 128 116 128 125 c 0
 128 134 129 141 135 148 c 2
 208 250 l 1
 89 289 l 2
 71 296 64 306 64 324 c 0
 64 342 72 353 87 359 c 0
 91 360 96 361 100 361 c 0
 104 361 109 360 112 359 c 2
 231 321 l 1
 231 446 l 2
 231 456 234 464 242 472 c 0
 250 480 258 483 268 483 c 0
 278 483 287 480 295 472 c 0
 303 464 306 456 306 446 c 2
 306 321 l 1
 425 359 l 2
 428 360 432 361 440 361 c 0
 448 361 454 358 462 351 c 0
 470 344 474 336 474 326 c 0
 474 306 466 295 448 289 c 2
 329 250 l 1
 403 148 l 2
EndSplineSet
EndChar

StartChar: uni0670
Encoding: 1648 1648 113
Width: 0
GlyphClass: 4
Flags: W
AnchorPoint: "Anchor-4" 95 458 mark 0
AnchorPoint: "Anchor-2" 95 458 mark 0
AnchorPoint: "Anchor-0" 95 458 mark 0
LayerCount: 2
Fore
SplineSet
84 631 m 1
 109 587 121 546 121 509 c 2
 121 490 l 2
 121 487 119 481 119 477 c 0
 118 470 119 471 118 464 c 0
 118 460 116 456 116 454 c 2
 92 454 l 1
 92 499 84 538 66 572 c 0
 60 582 56 592 50 601 c 1
 84 631 l 1
EndSplineSet
EndChar

StartChar: uni0671
Encoding: 1649 1649 114
Width: 300
GlyphClass: 2
Flags: W
LayerCount: 2
Fore
SplineSet
184 0 m 1
 119 0 l 1
 119 463 l 1
 184 463 l 1
 184 0 l 1
132 563 m 1
 162 565 187 572 207 580 c 0
 250 599 272 617 272 637 c 0
 272 650 258 657 233 657 c 0
 197 657 164 625 132 563 c 1
70 526 m 0
 67 529 63 534 59 537 c 0
 55 540 52 542 45 542 c 0
 38 542 32 538 25 530 c 1
 -7 565 l 1
 9 587 27 597 48 597 c 0
 57 597 64 595 70 591 c 0
 76 587 82 582 89 576 c 1
 104 611 121 639 141 661 c 0
 171 694 200 711 226 711 c 0
 285 711 314 686 314 638 c 0
 314 602 291 571 245 546 c 0
 199 521 163 508 134 508 c 2
 133 508 l 2
 104 508 83 514 70 526 c 0
EndSplineSet
Substitution2: "'fina' Terminal Forms in Arabic lookup 2 subtable" uniFB51
Substitution2: "'isol' Isolated Forms in Arabic lookup 1 subtable" uniFB50
EndChar

StartChar: peh
Encoding: 1662 1662 115
Width: 926
GlyphClass: 2
Flags: W
LayerCount: 2
Fore
SplineSet
420 -177 m 1
 337 -177 l 1
 337 -92 l 1
 420 -92 l 1
 420 -177 l 1
551 -177 m 1
 468 -177 l 1
 468 -92 l 1
 551 -92 l 1
 551 -177 l 1
485 -305 m 1
 402 -305 l 1
 402 -221 l 1
 485 -221 l 1
 485 -305 l 1
836 323 m 1
 861 246 874 190 874 155 c 0
 874 120 866 94 851 81 c 0
 827 58 759 36 646 15 c 0
 533 -6 446 -15 383 -15 c 0
 320 -15 269 -13 234 -6 c 0
 116 16 57 69 57 153 c 0
 57 200 71 257 96 324 c 1
 161 311 l 1
 158 299 150 275 139 243 c 0
 128 211 122 181 122 152 c 0
 122 123 143 102 185 87 c 0
 227 72 281 65 349 65 c 0
 463 65 584 79 714 110 c 0
 758 120 784 129 794 133 c 0
 804 137 808 142 808 146 c 0
 808 180 795 238 769 318 c 1
 836 323 l 1
EndSplineSet
Substitution2: "'init' Initial Forms in Arabic lookup 4 subtable" pe.init
Substitution2: "'medi' Medial Forms in Arabic lookup 3 subtable" pe.medi
Substitution2: "'fina' Terminal Forms in Arabic lookup 2 subtable" pe.fina
Substitution2: "'isol' Isolated Forms in Arabic lookup 1 subtable" uniFB56
EndChar

StartChar: cheh
Encoding: 1670 1670 116
Width: 631
GlyphClass: 2
Flags: W
LayerCount: 2
Fore
SplineSet
336 48 m 1
 260 48 l 1
 260 123 l 1
 336 123 l 1
 336 48 l 1
452 48 m 1
 377 48 l 1
 377 123 l 1
 452 123 l 1
 452 48 l 1
394 -66 m 1
 319 -66 l 1
 319 9 l 1
 394 9 l 1
 394 -66 l 1
58 16 m 0
 58 130 144 218 314 280 c 1
 206 340 l 2
 188 348 177 352 170 352 c 0
 163 352 160 350 154 343 c 2
 97 280 l 1
 58 319 l 1
 107 397 l 2
 110 401 114 406 117 410 c 0
 120 414 127 419 136 425 c 0
 145 431 158 433 172 433 c 0
 186 433 207 425 235 411 c 2
 374 337 l 2
 399 325 433 319 474 319 c 0
 485 319 495 318 504 318 c 2
 564 318 l 1
 564 238 l 1
 510 238 l 2
 438 238 364 222 287 191 c 0
 179 148 125 93 125 21 c 0
 125 -51 157 -98 223 -120 c 0
 248 -129 280 -133 314 -133 c 0
 400 -133 472 -125 531 -107 c 1
 548 -174 l 1
 471 -200 393 -213 314 -213 c 2
 312 -213 l 2
 179 -213 97 -162 68 -60 c 0
 60 -36 58 -10 58 16 c 0
EndSplineSet
Substitution2: "'init' Initial Forms in Arabic lookup 4 subtable" che.init
Substitution2: "'medi' Medial Forms in Arabic lookup 3 subtable" che.medi
Substitution2: "'fina' Terminal Forms in Arabic lookup 2 subtable" che.fina
Substitution2: "'isol' Isolated Forms in Arabic lookup 1 subtable" uniFB7A
EndChar

StartChar: je
Encoding: 1688 1688 117
Width: 451
GlyphClass: 2
Flags: W
LayerCount: 2
Fore
SplineSet
219 411 m 1
 135 411 l 1
 135 495 l 1
 219 495 l 1
 219 411 l 1
350 411 m 1
 266 411 l 1
 266 495 l 1
 350 495 l 1
 350 411 l 1
284 539 m 1
 200 539 l 1
 200 623 l 1
 284 623 l 1
 284 539 l 1
34 -156 m 1
 188 -100 283 -40 317 23 c 0
 325 36 328 53 328 74 c 0
 328 95 323 122 312 155 c 0
 301 188 290 211 279 224 c 1
 331 274 l 1
 356 242 376 191 389 123 c 0
 393 103 395 84 395 64 c 0
 395 26 378 -15 344 -56 c 0
 287 -126 190 -186 55 -233 c 1
 34 -156 l 1
EndSplineSet
Substitution2: "'fina' Terminal Forms in Arabic lookup 2 subtable" je.fina
Substitution2: "'isol' Isolated Forms in Arabic lookup 1 subtable" uniFB8A
EndChar

StartChar: uni06A4
Encoding: 1700 1700 118
Width: 884
GlyphClass: 2
Flags: W
LayerCount: 2
Fore
SplineSet
666 516 m 1
 582 516 l 1
 582 600 l 1
 666 600 l 1
 666 516 l 1
796 516 m 1
 713 516 l 1
 713 600 l 1
 796 600 l 1
 796 516 l 1
730 644 m 1
 647 644 l 1
 647 727 l 1
 730 727 l 1
 730 644 l 1
638 263 m 0
 638 251 663 244 711 244 c 2
 729 244 l 2
 740 244 755 247 773 255 c 1
 763 303 740 336 706 351 c 0
 697 355 690 358 682 358 c 0
 674 358 670 355 664 348 c 0
 648 326 639 298 638 263 c 0
711 163 m 0
 619 163 573 197 573 263 c 0
 573 301 581 335 597 366 c 0
 622 413 650 437 680 437 c 0
 717 437 751 421 782 388 c 0
 820 348 839 298 839 235 c 0
 839 135 825 74 796 51 c 0
 767 28 711 11 626 0 c 0
 541 -11 464 -15 396 -15 c 2
 341 -15 l 2
 306 -15 269 -13 234 -6 c 0
 116 16 57 69 57 153 c 0
 57 200 71 257 96 324 c 1
 161 311 l 1
 157 299 150 276 139 244 c 0
 128 212 122 182 122 153 c 0
 122 124 143 102 185 87 c 0
 227 72 278 65 340 65 c 0
 531 65 666 80 744 110 c 0
 758 118 768 138 772 173 c 1
 756 166 735 163 711 163 c 0
EndSplineSet
Substitution2: "'init' Initial Forms in Arabic lookup 4 subtable" uniFB6C
Substitution2: "'medi' Medial Forms in Arabic lookup 3 subtable" uniFB6D
Substitution2: "'fina' Terminal Forms in Arabic lookup 2 subtable" uniFB6B
Substitution2: "'isol' Isolated Forms in Arabic lookup 1 subtable" uniFB6A
EndChar

StartChar: kaf.farsi
Encoding: 1705 1705 119
Width: 926
GlyphClass: 2
Flags: W
LayerCount: 2
Fore
SplineSet
785 155 m 0
 785 41 641 -15 349 -15 c 2
 345 -15 l 2
 261 -15 193 -3 139 25 c 0
 85 53 57 96 57 152 c 0
 57 200 71 257 96 324 c 1
 161 311 l 1
 157 299 150 276 139 244 c 0
 128 212 122 182 122 153 c 0
 122 124 143 102 185 87 c 0
 227 72 281 65 349 65 c 0
 597 65 719 95 719 155 c 0
 719 203 681 251 603 298 c 0
 580 312 554 328 528 342 c 1
 539 450 l 1
 630 512 719 564 806 608 c 0
 835 622 862 634 887 642 c 1
 908 565 l 1
 823 533 718 476 593 394 c 1
 655 358 696 327 719 302 c 0
 742 277 760 253 770 230 c 0
 780 207 785 183 785 155 c 0
EndSplineSet
Substitution2: "'init' Initial Forms in Arabic lookup 4 subtable" kaf.init
Substitution2: "'medi' Medial Forms in Arabic lookup 3 subtable" kaf.medi
Substitution2: "'fina' Terminal Forms in Arabic lookup 2 subtable" kaf.fina
Substitution2: "'isol' Isolated Forms in Arabic lookup 1 subtable" uniFB8E
EndChar

StartChar: gaf
Encoding: 1711 1711 120
Width: 926
GlyphClass: 2
Flags: W
LayerCount: 2
Fore
SplineSet
894 628 m 1
 774 590 667 546 571 499 c 1
 551 549 l 1
 598 571 636 587 662 598 c 0
 688 609 720 622 754 636 c 0
 788 650 830 666 881 681 c 1
 894 628 l 1
784 155 m 0
 784 41 639 -15 349 -15 c 2
 345 -15 l 2
 263 -15 194 -2 140 26 c 0
 86 54 58 96 58 153 c 0
 58 200 72 257 97 324 c 1
 162 311 l 1
 159 299 154 285 150 271 c 0
 146 257 140 237 133 213 c 0
 126 189 123 169 123 154 c 0
 123 139 130 124 141 113 c 0
 175 80 245 65 349 65 c 0
 597 65 720 95 720 155 c 0
 720 188 701 219 664 249 c 0
 641 267 596 294 528 331 c 1
 536 432 l 1
 612 474 702 513 806 550 c 0
 834 560 857 567 876 571 c 1
 891 492 l 1
 846 482 792 463 732 437 c 0
 672 411 628 390 603 378 c 1
 665 344 704 316 725 294 c 0
 746 272 760 250 770 229 c 0
 780 208 784 184 784 155 c 0
EndSplineSet
Substitution2: "'init' Initial Forms in Arabic lookup 4 subtable" gaf.init
Substitution2: "'medi' Medial Forms in Arabic lookup 3 subtable" gaf.medi
Substitution2: "'fina' Terminal Forms in Arabic lookup 2 subtable" gaf.fina
Substitution2: "'isol' Isolated Forms in Arabic lookup 1 subtable" uniFB92
EndChar

StartChar: uni06C0
Encoding: 1728 1728 121
Width: 458
GlyphClass: 2
Flags: W
LayerCount: 2
Fore
SplineSet
126 492 m 1
 102 513 91 535 91 559 c 0
 91 583 101 605 123 627 c 0
 145 649 167 659 190 659 c 1
 191 660 l 1
 214 660 235 651 255 632 c 0
 261 626 266 621 272 614 c 1
 240 579 l 1
 237 583 233 587 226 595 c 0
 219 603 209 606 197 606 c 0
 185 606 176 605 169 602 c 0
 146 591 134 577 134 559 c 0
 134 547 152 532 188 517 c 1
 206 523 223 527 238 530 c 0
 253 533 269 536 283 540 c 1
 292 486 l 1
 277 483 263 479 250 477 c 0
 213 470 157 450 85 414 c 1
 66 464 l 1
 97 479 117 488 126 492 c 1
184 377 m 1
 214 367 242 354 270 336 c 0
 368 273 416 208 416 142 c 0
 416 118 402 90 376 60 c 0
 350 30 308 9 251 -4 c 0
 235 -8 217 -10 198 -10 c 0
 157 -10 123 4 94 29 c 0
 65 54 51 86 51 126 c 0
 51 177 77 242 131 318 c 0
 153 349 171 368 184 377 c 1
197 287 m 1
 178 266 160 240 142 208 c 0
 124 176 114 148 114 126 c 0
 114 101 133 84 168 75 c 0
 179 72 196 70 219 70 c 0
 242 70 269 78 302 92 c 0
 335 106 351 123 351 142 c 0
 351 188 300 236 197 287 c 1
EndSplineSet
Substitution2: "'fina' Terminal Forms in Arabic lookup 2 subtable" heye.fina
Substitution2: "'isol' Isolated Forms in Arabic lookup 1 subtable" heye
EndChar

StartChar: ye.farsi
Encoding: 1740 1740 122
Width: 751
GlyphClass: 2
Flags: W
LayerCount: 2
Fore
SplineSet
582 -25 m 2
 582 -23 l 2
 582 -15 576 -9 566 -3 c 0
 556 3 531 11 493 22 c 0
 455 33 428 45 414 59 c 0
 400 73 392 99 392 133 c 0
 392 167 415 203 460 244 c 0
 505 285 549 305 592 305 c 0
 635 305 675 276 711 219 c 1
 656 174 l 1
 636 206 612 222 586 222 c 0
 560 222 533 211 503 190 c 0
 473 169 458 149 458 129 c 0
 458 122 462 116 471 112 c 0
 480 108 505 100 543 89 c 0
 581 78 610 64 625 48 c 0
 640 32 649 9 649 -24 c 0
 649 -74 599 -114 500 -145 c 0
 416 -171 338 -185 264 -185 c 0
 120 -185 47 -132 47 -25 c 0
 47 33 72 103 119 182 c 1
 172 156 l 1
 166 146 161 134 154 122 c 0
 129 75 114 26 114 -25 c 0
 114 -78 161 -104 252 -104 c 0
 359 -104 448 -92 521 -69 c 0
 562 -56 582 -41 582 -25 c 2
EndSplineSet
Substitution2: "'init' Initial Forms in Arabic lookup 4 subtable" ye.init.farsi
Substitution2: "'medi' Medial Forms in Arabic lookup 3 subtable" ye.medi.farsi
Substitution2: "'fina' Terminal Forms in Arabic lookup 2 subtable" ye.fina.farsi
Substitution2: "'isol' Isolated Forms in Arabic lookup 1 subtable" uniFBFC
EndChar

StartChar: num.zero
Encoding: 1776 1776 123
Width: 545
GlyphClass: 2
Flags: W
LayerCount: 2
Fore
SplineSet
273 138 m 2
 238 138 208 151 184 176 c 0
 160 201 147 233 146 270 c 0
 146 306 160 338 184 363 c 0
 208 388 238 402 273 402 c 0
 307 402 338 388 362 363 c 0
 386 338 398 306 398 270 c 0
 398 234 386 201 361 176 c 0
 336 151 308 138 275 138 c 2
 273 138 l 2
275 348 m 2
 272 348 l 2
 250 348 230 341 214 326 c 0
 198 311 190 292 190 270 c 0
 190 237 207 213 241 199 c 0
 251 195 262 192 273 192 c 0
 295 192 315 201 331 216 c 0
 347 231 356 249 356 270 c 0
 356 291 347 309 331 324 c 0
 315 339 297 348 275 348 c 2
EndSplineSet
EndChar

StartChar: num.one
Encoding: 1777 1777 124
Width: 545
GlyphClass: 2
Flags: W
LayerCount: 2
Fore
SplineSet
340 -30 m 1
 332 159 281 331 189 487 c 0
 176 510 163 531 151 550 c 1
 206 596 l 1
 332 400 397 191 404 -30 c 1
 340 -30 l 1
EndSplineSet
EndChar

StartChar: num.two
Encoding: 1778 1778 125
Width: 545
GlyphClass: 2
Flags: W
LayerCount: 2
Fore
SplineSet
495 591 m 1
 458 469 400 408 323 408 c 0
 277 408 240 413 212 424 c 1
 279 284 312 133 312 -30 c 1
 248 -30 l 1
 248 130 210 281 135 424 c 0
 113 466 89 508 64 546 c 1
 117 591 l 1
 172 531 224 498 274 492 c 0
 289 490 305 488 323 488 c 0
 371 488 408 531 433 615 c 1
 495 591 l 1
EndSplineSet
EndChar

StartChar: num.three
Encoding: 1779 1779 126
Width: 545
GlyphClass: 2
Flags: W
LayerCount: 2
Fore
SplineSet
328 471 m 1
 305 430 273 409 235 409 c 0
 215 409 196 413 174 421 c 1
 225 300 261 149 282 -30 c 1
 218 -30 l 1
 189 208 127 401 32 547 c 1
 85 592 l 1
 131 525 181 491 235 491 c 0
 251 491 266 502 278 524 c 0
 290 546 297 576 297 617 c 1
 360 617 l 1
 360 555 372 518 396 505 c 0
 403 502 409 499 417 499 c 0
 441 499 456 539 463 618 c 1
 526 613 l 1
 519 541 508 491 490 462 c 0
 472 433 446 419 412 419 c 0
 378 419 350 436 328 471 c 1
EndSplineSet
EndChar

StartChar: num.four
Encoding: 1780 1780 127
Width: 545
GlyphClass: 2
Flags: W
LayerCount: 2
Fore
SplineSet
350 451 m 0
 410 455 458 465 491 484 c 1
 508 418 l 1
 452 385 397 368 342 368 c 0
 287 368 240 381 200 405 c 1
 260 269 292 124 292 -30 c 1
 229 -30 l 1
 229 132 191 284 116 427 c 0
 94 469 70 510 46 547 c 1
 97 588 l 1
 98 591 l 1
 160 524 211 482 252 464 c 1
 244 483 240 502 240 521 c 0
 240 559 252 591 278 615 c 0
 304 639 332 652 363 652 c 0
 394 652 415 649 425 645 c 0
 435 641 444 635 452 632 c 1
 449 559 l 1
 417 568 392 573 373 573 c 0
 354 573 337 568 323 558 c 0
 309 548 302 537 302 525 c 0
 302 513 305 504 309 496 c 0
 313 488 316 483 322 476 c 0
 328 469 332 465 338 461 c 0
 344 457 348 453 350 451 c 0
EndSplineSet
EndChar

StartChar: num.five
Encoding: 1781 1781 128
Width: 545
GlyphClass: 2
Flags: W
LayerCount: 2
Fore
SplineSet
273 20 m 1
 250 -20 216 -40 173 -40 c 0
 119 -40 84 -13 68 40 c 0
 62 59 59 81 59 109 c 0
 59 161 72 217 100 280 c 0
 128 343 170 422 226 519 c 1
 188 553 l 1
 230 614 l 1
 340 514 413 418 449 330 c 0
 475 266 488 203 488 138 c 0
 488 73 475 24 447 -6 c 0
 425 -29 398 -40 366 -40 c 0
 323 -40 293 -20 273 20 c 1
308 145 m 1
 310 76 330 42 366 42 c 0
 404 42 426 72 426 136 c 0
 426 247 375 359 274 470 c 1
 224 384 191 320 173 280 c 0
 140 205 122 148 122 107 c 0
 122 84 128 67 138 57 c 0
 148 47 159 42 172 42 c 0
 195 42 214 53 226 75 c 0
 238 97 245 120 246 145 c 1
 308 145 l 1
EndSplineSet
EndChar

StartChar: num.six
Encoding: 1782 1782 129
Width: 545
GlyphClass: 2
Flags: W
LayerCount: 2
Fore
SplineSet
154 460 m 2
 154 459 l 2
 154 415 184 384 246 370 c 0
 268 364 289 363 312 363 c 0
 335 363 354 363 366 365 c 0
 378 367 391 371 402 375 c 0
 413 379 425 384 437 390 c 0
 449 396 464 402 480 410 c 1
 505 337 l 1
 397 291 322 248 279 211 c 0
 236 174 189 118 135 44 c 0
 116 19 95 -11 72 -44 c 1
 23 6 l 1
 103 119 164 197 206 241 c 0
 222 259 238 274 254 288 c 1
 200 297 161 316 133 348 c 0
 105 380 91 417 91 459 c 0
 91 501 114 538 158 572 c 0
 202 606 245 623 285 623 c 0
 325 623 370 613 418 593 c 1
 394 518 l 1
 353 534 318 543 288 543 c 0
 258 543 229 535 199 517 c 0
 169 499 154 481 154 460 c 2
EndSplineSet
EndChar

StartChar: num.seven
Encoding: 1783 1783 130
Width: 545
GlyphClass: 2
Flags: W
LayerCount: 2
Fore
SplineSet
243 -30 m 1
 222 89 204 176 190 232 c 0
 176 288 156 344 132 397 c 0
 108 450 72 508 26 571 c 1
 79 617 l 1
 155 515 205 419 233 330 c 0
 242 300 257 238 277 147 c 1
 300 254 326 340 352 405 c 0
 378 470 420 540 475 617 c 1
 527 571 l 1
 483 511 448 455 424 402 c 0
 400 349 379 291 363 226 c 0
 347 161 329 74 311 -30 c 1
 243 -30 l 1
EndSplineSet
EndChar

StartChar: num.eight
Encoding: 1784 1784 131
Width: 545
GlyphClass: 2
Flags: W
LayerCount: 2
Fore
SplineSet
464 -45 m 1
 407 34 365 105 340 169 c 0
 315 233 289 318 265 425 c 1
 246 335 231 269 219 229 c 0
 195 151 144 58 68 -45 c 1
 15 2 l 1
 61 66 98 125 122 178 c 0
 146 231 168 289 183 352 c 0
 198 415 213 498 231 601 c 1
 299 601 l 1
 328 443 352 331 374 268 c 0
 396 205 419 153 444 111 c 0
 469 69 493 33 516 2 c 1
 464 -45 l 1
EndSplineSet
EndChar

StartChar: num.nine
Encoding: 1785 1785 132
Width: 545
GlyphClass: 2
Flags: W
LayerCount: 2
Fore
SplineSet
194 537 m 2
 191 537 l 2
 172 537 156 526 142 505 c 0
 128 484 121 462 121 439 c 0
 121 416 128 399 139 390 c 0
 150 381 165 376 186 376 c 0
 207 376 222 377 231 378 c 0
 240 379 249 381 257 383 c 0
 265 385 272 389 279 392 c 0
 286 395 293 400 301 404 c 1
 294 446 282 479 261 502 c 0
 240 525 218 537 194 537 c 2
458 -52 m 1
 368 -6 316 118 304 318 c 1
 274 303 243 296 209 296 c 0
 151 296 111 306 90 329 c 0
 69 352 58 385 58 431 c 0
 58 477 72 519 98 559 c 0
 124 599 157 618 197 618 c 0
 237 618 274 595 311 551 c 0
 348 507 366 448 366 374 c 0
 366 224 391 118 443 54 c 0
 455 39 470 28 485 20 c 1
 458 -52 l 1
EndSplineSet
EndChar

StartChar: zwNONjoiner
Encoding: 8204 8204 133
Width: 0
GlyphClass: 2
Flags: W
LayerCount: 2
Fore
SplineSet
20 -376 m 1
 0 -376 l 1
 0 483 l 1
 20 483 l 1
 20 -376 l 1
EndSplineSet
EndChar

StartChar: zwjoiner
Encoding: 8205 8205 134
Width: 0
GlyphClass: 2
Flags: W
LayerCount: 2
Fore
SplineSet
19 -376 m 1
 0 -376 l 1
 0 404 l 1
 -35 367 l 1
 -48 381 l 1
 -4 426 l 1
 -48 471 l 1
 -35 483 l 1
 9 438 l 1
 54 483 l 1
 67 471 l 1
 22 426 l 1
 67 381 l 1
 54 367 l 1
 19 405 l 1
 19 -376 l 1
EndSplineSet
EndChar

StartChar: LTR_mark
Encoding: 8206 8206 135
Width: 0
GlyphClass: 2
Flags: W
LayerCount: 2
Fore
SplineSet
20 -376 m 1
 0 -376 l 1
 0 432 l 1
 91 432 l 1
 57 465 l 1
 69 480 l 1
 128 421 l 1
 69 364 l 1
 57 376 l 1
 92 412 l 1
 20 412 l 1
 20 -376 l 1
EndSplineSet
EndChar

StartChar: RTL_mark
Encoding: 8207 8207 136
Width: 0
GlyphClass: 2
Flags: W
LayerCount: 2
Fore
SplineSet
20 -376 m 1
 0 -376 l 1
 0 412 l 1
 -74 412 l 1
 -38 376 l 1
 -51 364 l 1
 -109 421 l 1
 -51 480 l 1
 -38 465 l 1
 -72 432 l 1
 20 432 l 1
 20 -376 l 1
EndSplineSet
EndChar

StartChar: uni2010
Encoding: 8208 8208 137
Width: 309
GlyphClass: 2
Flags: W
LayerCount: 2
Fore
SplineSet
268 161 m 1
 43 161 l 1
 43 230 l 1
 268 230 l 1
 268 161 l 1
EndSplineSet
EndChar

StartChar: uni2014
Encoding: 8212 8212 138
Width: 858
GlyphClass: 2
Flags: W
LayerCount: 2
Fore
SplineSet
860 164 m 1
 0 164 l 1
 0 226 l 1
 860 226 l 1
 860 164 l 1
EndSplineSet
EndChar

StartChar: uni2022
Encoding: 8226 8226 139
Width: 504
GlyphClass: 2
Flags: W
LayerCount: 2
Fore
SplineSet
342 367 m 0
 366 343 378 314 378 279 c 0
 378 244 366 214 342 190 c 0
 318 166 288 155 253 155 c 0
 218 155 189 167 165 191 c 0
 141 215 129 244 129 279 c 0
 129 314 141 343 165 367 c 0
 189 391 219 404 254 404 c 0
 289 404 318 391 342 367 c 0
EndSplineSet
EndChar

StartChar: uni2026
Encoding: 8230 8230 140
Width: 858
GlyphClass: 2
Flags: W
LayerCount: 2
Fore
SplineSet
475 -41 m 1
 386 -41 l 1
 386 66 l 1
 475 66 l 1
 475 -41 l 1
760 -41 m 1
 671 -41 l 1
 671 66 l 1
 760 66 l 1
 760 -41 l 1
189 -41 m 1
 99 -41 l 1
 99 66 l 1
 189 66 l 1
 189 -41 l 1
EndSplineSet
Substitution2: "'calt' Contextual Alternates in Arabic lookup 7 subtable" uni2026.fa
EndChar

StartChar: uni20AC
Encoding: 8364 8364 142
Width: 545
GlyphClass: 2
Flags: W
LayerCount: 2
Fore
SplineSet
167 317 m 1
 166 307 165 292 165 273 c 0
 165 254 166 240 167 230 c 1
 354 230 l 1
 331 178 l 1
 174 178 l 1
 183 125 201 86 230 57 c 0
 259 28 295 14 339 14 c 0
 368 14 394 21 417 33 c 0
 440 45 466 67 491 97 c 1
 491 8 l 1
 441 -32 386 -53 326 -53 c 0
 266 -53 214 -32 170 9 c 0
 126 50 99 105 88 178 c 1
 0 178 l 1
 23 230 l 1
 81 230 l 1
 81 273 l 1
 81 317 l 1
 0 317 l 1
 23 367 l 1
 88 367 l 1
 99 439 126 496 170 537 c 0
 214 578 267 598 327 598 c 0
 387 598 443 578 491 538 c 1
 491 449 l 1
 466 479 441 501 417 513 c 0
 393 525 368 531 339 531 c 0
 295 531 259 517 230 488 c 0
 201 459 183 420 174 367 c 1
 416 367 l 1
 393 317 l 1
 167 317 l 1
EndSplineSet
EndChar

StartChar: uni2212
Encoding: 8722 8722 143
Width: 719
GlyphClass: 2
Flags: W
LayerCount: 2
Fore
SplineSet
629 194 m 1
 91 194 l 1
 91 265 l 1
 629 265 l 1
 629 194 l 1
EndSplineSet
EndChar

StartChar: uni2219
Encoding: 8729 8729 144
Width: 271
GlyphClass: 2
Flags: W
LayerCount: 2
Fore
SplineSet
92 206 m 1
 92 311 l 1
 182 311 l 1
 182 206 l 1
 92 206 l 1
EndSplineSet
EndChar

StartChar: uni25CC
Encoding: 9676 9676 145
Width: 639
GlyphClass: 2
Flags: W
AnchorPoint: "Anchor-5" 321 -205 basechar 0
AnchorPoint: "Anchor-4" 308 539 basechar 0
LayerCount: 2
Fore
SplineSet
471 352 m 1
 455 366 433 378 407 388 c 1
 421 428 l 1
 450 417 476 402 499 383 c 1
 471 352 l 1
234 388 m 1
 209 379 187 366 168 350 c 1
 143 384 l 1
 166 404 190 419 219 429 c 1
 234 388 l 1
134 315 m 1
 118 295 106 273 97 250 c 1
 56 265 l 1
 66 290 80 316 100 341 c 1
 134 315 l 1
80 163 m 0
 80 161 82 148 84 125 c 1
 42 120 l 1
 40 132 38 147 38 163 c 0
 38 179 40 195 42 209 c 1
 84 201 l 1
 82 187 80 174 80 163 c 0
100 -13 m 1
 80 10 66 34 56 63 c 1
 97 78 l 1
 106 55 118 33 134 13 c 1
 100 -13 l 1
219 -99 m 1
 191 -89 165 -75 142 -55 c 1
 169 -23 l 1
 189 -38 211 -50 233 -59 c 1
 219 -99 l 1
320 -76 m 0
 330 -76 343 -75 358 -73 c 1
 365 -114 l 1
 352 -116 337 -119 323 -119 c 0
 309 -119 293 -116 277 -114 c 1
 282 -73 l 1
 292 -75 305 -76 320 -76 c 0
497 -56 m 1
 471 -77 445 -91 421 -100 c 1
 406 -60 l 1
 429 -51 451 -39 471 -23 c 1
 497 -56 l 1
584 63 m 1
 573 34 559 9 540 -14 c 1
 507 13 l 1
 522 33 535 55 544 78 c 1
 584 63 l 1
558 128 m 1
 560 136 561 144 561 157 c 0
 561 170 560 186 558 202 c 1
 600 207 l 1
 602 197 603 183 603 167 c 0
 603 151 602 135 600 120 c 1
 558 128 l 1
544 250 m 1
 535 274 523 295 508 315 c 1
 540 342 l 1
 559 319 574 294 584 265 c 1
 544 250 l 1
275 443 m 1
 285 445 299 447 318 447 c 0
 337 447 353 445 365 443 c 1
 359 402 l 1
 346 404 333 405 323 405 c 0
 313 405 301 404 282 402 c 1
 275 443 l 1
EndSplineSet
EndChar

StartChar: uniFB50
Encoding: 64336 64336 146
Width: 300
GlyphClass: 2
Flags: W
AnchorPoint: "Anchor-1" 125 -87 basechar 0
AnchorPoint: "Anchor-0" 113 722 basechar 0
LayerCount: 2
Fore
SplineSet
184 0 m 1
 119 0 l 1
 119 463 l 1
 184 463 l 1
 184 0 l 1
132 563 m 1
 162 565 187 572 207 580 c 0
 250 599 272 617 272 637 c 0
 272 650 258 657 233 657 c 0
 197 657 164 625 132 563 c 1
70 526 m 0
 67 529 63 534 59 537 c 0
 55 540 52 542 45 542 c 0
 38 542 32 538 25 530 c 1
 -7 565 l 1
 9 587 27 597 48 597 c 0
 57 597 64 595 70 591 c 0
 76 587 82 582 89 576 c 1
 104 611 121 639 141 661 c 0
 171 694 200 711 226 711 c 0
 285 711 314 686 314 638 c 0
 314 602 291 571 245 546 c 0
 199 521 163 508 134 508 c 2
 133 508 l 2
 104 508 83 514 70 526 c 0
EndSplineSet
PairPos2: "'kern' Horizontal Kerning in Arabic lookup 0 subtable" gaf_ye.farsi.isol dx=61 dy=0 dh=61 dv=0 dx=0 dy=0 dh=0 dv=0
PairPos2: "'kern' Horizontal Kerning in Arabic lookup 0 subtable" kaf.farsi_ye.farsi.isol dx=61 dy=0 dh=61 dv=0 dx=0 dy=0 dh=0 dv=0
PairPos2: "'kern' Horizontal Kerning in Arabic lookup 0 subtable" lam_ye.farsi.isol dx=-29 dy=0 dh=-29 dv=0 dx=0 dy=0 dh=0 dv=0
PairPos2: "'kern' Horizontal Kerning in Arabic lookup 0 subtable" mim_ye.farsi.isol dx=-29 dy=0 dh=-29 dv=0 dx=0 dy=0 dh=0 dv=0
PairPos2: "'kern' Horizontal Kerning in Arabic lookup 0 subtable" zad_ye.farsi.isol dx=-29 dy=0 dh=-29 dv=0 dx=0 dy=0 dh=0 dv=0
PairPos2: "'kern' Horizontal Kerning in Arabic lookup 0 subtable" shin_ye.farsi.isol dx=-29 dy=0 dh=-29 dv=0 dx=0 dy=0 dh=0 dv=0
PairPos2: "'kern' Horizontal Kerning in Arabic lookup 0 subtable" sad_ye.farsi.isol dx=-29 dy=0 dh=-29 dv=0 dx=0 dy=0 dh=0 dv=0
PairPos2: "'kern' Horizontal Kerning in Arabic lookup 0 subtable" sin_ye.farsi.isol dx=-29 dy=0 dh=-29 dv=0 dx=0 dy=0 dh=0 dv=0
PairPos2: "'kern' Horizontal Kerning in Arabic lookup 0 subtable" uniFEFB_earab.tanvin_fatheh dx=40 dy=0 dh=40 dv=0 dx=0 dy=0 dh=0 dv=0
PairPos2: "'kern' Horizontal Kerning in Arabic lookup 0 subtable" he8_uni0654.init dx=-29 dy=0 dh=-29 dv=0 dx=0 dy=0 dh=0 dv=0
PairPos2: "'kern' Horizontal Kerning in Arabic lookup 0 subtable" he8_uni0654.isol dx=-29 dy=0 dh=-29 dv=0 dx=0 dy=0 dh=0 dv=0
PairPos2: "'kern' Horizontal Kerning in Arabic lookup 0 subtable" uniFEFB dx=40 dy=0 dh=40 dv=0 dx=0 dy=0 dh=0 dv=0
PairPos2: "'kern' Horizontal Kerning in Arabic lookup 0 subtable" uniFEF7 dx=40 dy=0 dh=40 dv=0 dx=0 dy=0 dh=0 dv=0
PairPos2: "'kern' Horizontal Kerning in Arabic lookup 0 subtable" uniFEF5 dx=40 dy=0 dh=40 dv=0 dx=0 dy=0 dh=0 dv=0
PairPos2: "'kern' Horizontal Kerning in Arabic lookup 0 subtable" he8.init dx=-29 dy=0 dh=-29 dv=0 dx=0 dy=0 dh=0 dv=0
PairPos2: "'kern' Horizontal Kerning in Arabic lookup 0 subtable" uniFEE9 dx=-29 dy=0 dh=-29 dv=0 dx=0 dy=0 dh=0 dv=0
PairPos2: "'kern' Horizontal Kerning in Arabic lookup 0 subtable" nun.init dx=-29 dy=0 dh=-29 dv=0 dx=0 dy=0 dh=0 dv=0
PairPos2: "'kern' Horizontal Kerning in Arabic lookup 0 subtable" mim.init dx=-29 dy=0 dh=-29 dv=0 dx=0 dy=0 dh=0 dv=0
PairPos2: "'kern' Horizontal Kerning in Arabic lookup 0 subtable" uniFEE1 dx=-29 dy=0 dh=-29 dv=0 dx=0 dy=0 dh=0 dv=0
PairPos2: "'kern' Horizontal Kerning in Arabic lookup 0 subtable" lam.init dx=40 dy=0 dh=40 dv=0 dx=0 dy=0 dh=0 dv=0
PairPos2: "'kern' Horizontal Kerning in Arabic lookup 0 subtable" uniFEDD dx=52 dy=0 dh=52 dv=0 dx=0 dy=0 dh=0 dv=0
PairPos2: "'kern' Horizontal Kerning in Arabic lookup 0 subtable" uniFEDB dx=61 dy=0 dh=61 dv=0 dx=0 dy=0 dh=0 dv=0
PairPos2: "'kern' Horizontal Kerning in Arabic lookup 0 subtable" uniFED9 dx=40 dy=0 dh=40 dv=0 dx=0 dy=0 dh=0 dv=0
PairPos2: "'kern' Horizontal Kerning in Arabic lookup 0 subtable" qaf.init dx=-29 dy=0 dh=-29 dv=0 dx=0 dy=0 dh=0 dv=0
PairPos2: "'kern' Horizontal Kerning in Arabic lookup 0 subtable" fe.init dx=-29 dy=0 dh=-29 dv=0 dx=0 dy=0 dh=0 dv=0
PairPos2: "'kern' Horizontal Kerning in Arabic lookup 0 subtable" uniFED1 dx=-29 dy=0 dh=-29 dv=0 dx=0 dy=0 dh=0 dv=0
PairPos2: "'kern' Horizontal Kerning in Arabic lookup 0 subtable" qein.init dx=-29 dy=0 dh=-29 dv=0 dx=0 dy=0 dh=0 dv=0
PairPos2: "'kern' Horizontal Kerning in Arabic lookup 0 subtable" ein.init dx=-29 dy=0 dh=-29 dv=0 dx=0 dy=0 dh=0 dv=0
PairPos2: "'kern' Horizontal Kerning in Arabic lookup 0 subtable" za.init dx=-29 dy=0 dh=-29 dv=0 dx=0 dy=0 dh=0 dv=0
PairPos2: "'kern' Horizontal Kerning in Arabic lookup 0 subtable" uniFEC5 dx=-29 dy=0 dh=-29 dv=0 dx=0 dy=0 dh=0 dv=0
PairPos2: "'kern' Horizontal Kerning in Arabic lookup 0 subtable" ta.init dx=-29 dy=0 dh=-29 dv=0 dx=0 dy=0 dh=0 dv=0
PairPos2: "'kern' Horizontal Kerning in Arabic lookup 0 subtable" uniFEC1 dx=-29 dy=0 dh=-29 dv=0 dx=0 dy=0 dh=0 dv=0
PairPos2: "'kern' Horizontal Kerning in Arabic lookup 0 subtable" zad.init dx=-29 dy=0 dh=-29 dv=0 dx=0 dy=0 dh=0 dv=0
PairPos2: "'kern' Horizontal Kerning in Arabic lookup 0 subtable" uniFEBD dx=-29 dy=0 dh=-29 dv=0 dx=0 dy=0 dh=0 dv=0
PairPos2: "'kern' Horizontal Kerning in Arabic lookup 0 subtable" sad.init dx=-29 dy=0 dh=-29 dv=0 dx=0 dy=0 dh=0 dv=0
PairPos2: "'kern' Horizontal Kerning in Arabic lookup 0 subtable" uniFEB9 dx=-29 dy=0 dh=-29 dv=0 dx=0 dy=0 dh=0 dv=0
PairPos2: "'kern' Horizontal Kerning in Arabic lookup 0 subtable" shin.init dx=-29 dy=0 dh=-29 dv=0 dx=0 dy=0 dh=0 dv=0
PairPos2: "'kern' Horizontal Kerning in Arabic lookup 0 subtable" uniFEB5 dx=-29 dy=0 dh=-29 dv=0 dx=0 dy=0 dh=0 dv=0
PairPos2: "'kern' Horizontal Kerning in Arabic lookup 0 subtable" sin.init dx=-29 dy=0 dh=-29 dv=0 dx=0 dy=0 dh=0 dv=0
PairPos2: "'kern' Horizontal Kerning in Arabic lookup 0 subtable" uniFEB1 dx=-29 dy=0 dh=-29 dv=0 dx=0 dy=0 dh=0 dv=0
PairPos2: "'kern' Horizontal Kerning in Arabic lookup 0 subtable" uniFEAB dx=-29 dy=0 dh=-29 dv=0 dx=0 dy=0 dh=0 dv=0
PairPos2: "'kern' Horizontal Kerning in Arabic lookup 0 subtable" uniFEA9 dx=-29 dy=0 dh=-29 dv=0 dx=0 dy=0 dh=0 dv=0
PairPos2: "'kern' Horizontal Kerning in Arabic lookup 0 subtable" khe.init dx=-29 dy=0 dh=-29 dv=0 dx=0 dy=0 dh=0 dv=0
PairPos2: "'kern' Horizontal Kerning in Arabic lookup 0 subtable" him.init dx=-29 dy=0 dh=-29 dv=0 dx=0 dy=0 dh=0 dv=0
PairPos2: "'kern' Horizontal Kerning in Arabic lookup 0 subtable" jim.init dx=-29 dy=0 dh=-29 dv=0 dx=0 dy=0 dh=0 dv=0
PairPos2: "'kern' Horizontal Kerning in Arabic lookup 0 subtable" the.init dx=-29 dy=0 dh=-29 dv=0 dx=0 dy=0 dh=0 dv=0
PairPos2: "'kern' Horizontal Kerning in Arabic lookup 0 subtable" te.init dx=-29 dy=0 dh=-29 dv=0 dx=0 dy=0 dh=0 dv=0
PairPos2: "'kern' Horizontal Kerning in Arabic lookup 0 subtable" uniFE95 dx=-29 dy=0 dh=-29 dv=0 dx=0 dy=0 dh=0 dv=0
PairPos2: "'kern' Horizontal Kerning in Arabic lookup 0 subtable" uniFE93 dx=-29 dy=0 dh=-29 dv=0 dx=0 dy=0 dh=0 dv=0
PairPos2: "'kern' Horizontal Kerning in Arabic lookup 0 subtable" uniFE8D dx=40 dy=0 dh=40 dv=0 dx=0 dy=0 dh=0 dv=0
PairPos2: "'kern' Horizontal Kerning in Arabic lookup 0 subtable" ye.hamze.init dx=-29 dy=0 dh=-29 dv=0 dx=0 dy=0 dh=0 dv=0
PairPos2: "'kern' Horizontal Kerning in Arabic lookup 0 subtable" uniFE83 dx=61 dy=0 dh=61 dv=0 dx=0 dy=0 dh=0 dv=0
PairPos2: "'kern' Horizontal Kerning in Arabic lookup 0 subtable" uniFE81 dx=61 dy=0 dh=61 dv=0 dx=0 dy=0 dh=0 dv=0
PairPos2: "'kern' Horizontal Kerning in Arabic lookup 0 subtable" uniFE80 dx=-29 dy=0 dh=-29 dv=0 dx=0 dy=0 dh=0 dv=0
PairPos2: "'kern' Horizontal Kerning in Arabic lookup 0 subtable" uniFD3D dx=40 dy=0 dh=40 dv=0 dx=0 dy=0 dh=0 dv=0
PairPos2: "'kern' Horizontal Kerning in Arabic lookup 0 subtable" uniFBE8 dx=-29 dy=0 dh=-29 dv=0 dx=0 dy=0 dh=0 dv=0
PairPos2: "'kern' Horizontal Kerning in Arabic lookup 0 subtable" heye dx=-29 dy=0 dh=-29 dv=0 dx=0 dy=0 dh=0 dv=0
PairPos2: "'kern' Horizontal Kerning in Arabic lookup 0 subtable" gaf.init dx=61 dy=0 dh=61 dv=0 dx=0 dy=0 dh=0 dv=0
PairPos2: "'kern' Horizontal Kerning in Arabic lookup 0 subtable" uniFB92 dx=61 dy=0 dh=61 dv=0 dx=0 dy=0 dh=0 dv=0
PairPos2: "'kern' Horizontal Kerning in Arabic lookup 0 subtable" kaf.init dx=61 dy=0 dh=61 dv=0 dx=0 dy=0 dh=0 dv=0
PairPos2: "'kern' Horizontal Kerning in Arabic lookup 0 subtable" uniFB8E dx=61 dy=0 dh=61 dv=0 dx=0 dy=0 dh=0 dv=0
PairPos2: "'kern' Horizontal Kerning in Arabic lookup 0 subtable" che.init dx=-29 dy=0 dh=-29 dv=0 dx=0 dy=0 dh=0 dv=0
PairPos2: "'kern' Horizontal Kerning in Arabic lookup 0 subtable" uniFB6C dx=-29 dy=0 dh=-29 dv=0 dx=0 dy=0 dh=0 dv=0
PairPos2: "'kern' Horizontal Kerning in Arabic lookup 0 subtable" uniFB6A dx=-29 dy=0 dh=-29 dv=0 dx=0 dy=0 dh=0 dv=0
PairPos2: "'kern' Horizontal Kerning in Arabic lookup 0 subtable" uniFB56 dx=-29 dy=0 dh=-29 dv=0 dx=0 dy=0 dh=0 dv=0
PairPos2: "'kern' Horizontal Kerning in Arabic lookup 0 subtable" uniFB50 dx=61 dy=0 dh=61 dv=0 dx=0 dy=0 dh=0 dv=0
EndChar

StartChar: uniFB51
Encoding: 64337 64337 147
Width: 327
GlyphClass: 2
Flags: W
AnchorPoint: "Anchor-1" 125 -87 basechar 0
AnchorPoint: "Anchor-0" 113 722 basechar 0
LayerCount: 2
Fore
SplineSet
132 563 m 1
 162 565 187 572 207 580 c 0
 250 599 272 617 272 637 c 0
 272 650 258 657 233 657 c 0
 197 657 164 625 132 563 c 1
70 526 m 0
 67 529 63 534 59 537 c 0
 55 540 52 542 45 542 c 0
 38 542 32 538 25 530 c 1
 -7 565 l 1
 9 587 27 597 48 597 c 0
 57 597 64 595 70 591 c 0
 76 587 82 582 89 576 c 1
 104 611 121 639 141 661 c 0
 171 694 200 711 226 711 c 0
 285 711 314 686 314 638 c 0
 314 602 291 571 245 546 c 0
 199 521 163 508 134 508 c 2
 133 508 l 2
 104 508 83 514 70 526 c 0
330 0 m 1
 279 0 l 2
 192 0 140 27 126 82 c 0
 120 101 119 125 119 150 c 2
 119 463 l 1
 184 463 l 1
 184 150 l 2
 184 126 192 108 205 97 c 0
 218 86 241 80 274 80 c 2
 330 80 l 1
 330 0 l 1
EndSplineSet
PairPos2: "'kern' Horizontal Kerning in Arabic lookup 0 subtable" gaf_ye.farsi.isol dx=61 dy=0 dh=61 dv=0 dx=0 dy=0 dh=0 dv=0
PairPos2: "'kern' Horizontal Kerning in Arabic lookup 0 subtable" kaf.farsi_ye.farsi.isol dx=61 dy=0 dh=61 dv=0 dx=0 dy=0 dh=0 dv=0
PairPos2: "'kern' Horizontal Kerning in Arabic lookup 0 subtable" lam_ye.farsi.isol dx=-29 dy=0 dh=-29 dv=0 dx=0 dy=0 dh=0 dv=0
PairPos2: "'kern' Horizontal Kerning in Arabic lookup 0 subtable" mim_ye.farsi.isol dx=-29 dy=0 dh=-29 dv=0 dx=0 dy=0 dh=0 dv=0
PairPos2: "'kern' Horizontal Kerning in Arabic lookup 0 subtable" zad_ye.farsi.isol dx=-29 dy=0 dh=-29 dv=0 dx=0 dy=0 dh=0 dv=0
PairPos2: "'kern' Horizontal Kerning in Arabic lookup 0 subtable" shin_ye.farsi.isol dx=-29 dy=0 dh=-29 dv=0 dx=0 dy=0 dh=0 dv=0
PairPos2: "'kern' Horizontal Kerning in Arabic lookup 0 subtable" sad_ye.farsi.isol dx=-29 dy=0 dh=-29 dv=0 dx=0 dy=0 dh=0 dv=0
PairPos2: "'kern' Horizontal Kerning in Arabic lookup 0 subtable" sin_ye.farsi.isol dx=-29 dy=0 dh=-29 dv=0 dx=0 dy=0 dh=0 dv=0
PairPos2: "'kern' Horizontal Kerning in Arabic lookup 0 subtable" uniFEFB_earab.tanvin_fatheh dx=40 dy=0 dh=40 dv=0 dx=0 dy=0 dh=0 dv=0
PairPos2: "'kern' Horizontal Kerning in Arabic lookup 0 subtable" he8_uni0654.init dx=-29 dy=0 dh=-29 dv=0 dx=0 dy=0 dh=0 dv=0
PairPos2: "'kern' Horizontal Kerning in Arabic lookup 0 subtable" he8_uni0654.isol dx=-29 dy=0 dh=-29 dv=0 dx=0 dy=0 dh=0 dv=0
PairPos2: "'kern' Horizontal Kerning in Arabic lookup 0 subtable" uniFEFB dx=40 dy=0 dh=40 dv=0 dx=0 dy=0 dh=0 dv=0
PairPos2: "'kern' Horizontal Kerning in Arabic lookup 0 subtable" uniFEF7 dx=40 dy=0 dh=40 dv=0 dx=0 dy=0 dh=0 dv=0
PairPos2: "'kern' Horizontal Kerning in Arabic lookup 0 subtable" uniFEF5 dx=40 dy=0 dh=40 dv=0 dx=0 dy=0 dh=0 dv=0
PairPos2: "'kern' Horizontal Kerning in Arabic lookup 0 subtable" he8.init dx=-29 dy=0 dh=-29 dv=0 dx=0 dy=0 dh=0 dv=0
PairPos2: "'kern' Horizontal Kerning in Arabic lookup 0 subtable" uniFEE9 dx=-29 dy=0 dh=-29 dv=0 dx=0 dy=0 dh=0 dv=0
PairPos2: "'kern' Horizontal Kerning in Arabic lookup 0 subtable" nun.init dx=-29 dy=0 dh=-29 dv=0 dx=0 dy=0 dh=0 dv=0
PairPos2: "'kern' Horizontal Kerning in Arabic lookup 0 subtable" mim.init dx=-29 dy=0 dh=-29 dv=0 dx=0 dy=0 dh=0 dv=0
PairPos2: "'kern' Horizontal Kerning in Arabic lookup 0 subtable" uniFEE1 dx=-29 dy=0 dh=-29 dv=0 dx=0 dy=0 dh=0 dv=0
PairPos2: "'kern' Horizontal Kerning in Arabic lookup 0 subtable" lam.init dx=40 dy=0 dh=40 dv=0 dx=0 dy=0 dh=0 dv=0
PairPos2: "'kern' Horizontal Kerning in Arabic lookup 0 subtable" uniFEDD dx=52 dy=0 dh=52 dv=0 dx=0 dy=0 dh=0 dv=0
PairPos2: "'kern' Horizontal Kerning in Arabic lookup 0 subtable" uniFEDB dx=61 dy=0 dh=61 dv=0 dx=0 dy=0 dh=0 dv=0
PairPos2: "'kern' Horizontal Kerning in Arabic lookup 0 subtable" uniFED9 dx=40 dy=0 dh=40 dv=0 dx=0 dy=0 dh=0 dv=0
PairPos2: "'kern' Horizontal Kerning in Arabic lookup 0 subtable" qaf.init dx=-29 dy=0 dh=-29 dv=0 dx=0 dy=0 dh=0 dv=0
PairPos2: "'kern' Horizontal Kerning in Arabic lookup 0 subtable" fe.init dx=-29 dy=0 dh=-29 dv=0 dx=0 dy=0 dh=0 dv=0
PairPos2: "'kern' Horizontal Kerning in Arabic lookup 0 subtable" uniFED1 dx=-29 dy=0 dh=-29 dv=0 dx=0 dy=0 dh=0 dv=0
PairPos2: "'kern' Horizontal Kerning in Arabic lookup 0 subtable" qein.init dx=-29 dy=0 dh=-29 dv=0 dx=0 dy=0 dh=0 dv=0
PairPos2: "'kern' Horizontal Kerning in Arabic lookup 0 subtable" ein.init dx=-29 dy=0 dh=-29 dv=0 dx=0 dy=0 dh=0 dv=0
PairPos2: "'kern' Horizontal Kerning in Arabic lookup 0 subtable" za.init dx=-29 dy=0 dh=-29 dv=0 dx=0 dy=0 dh=0 dv=0
PairPos2: "'kern' Horizontal Kerning in Arabic lookup 0 subtable" uniFEC5 dx=-29 dy=0 dh=-29 dv=0 dx=0 dy=0 dh=0 dv=0
PairPos2: "'kern' Horizontal Kerning in Arabic lookup 0 subtable" ta.init dx=-29 dy=0 dh=-29 dv=0 dx=0 dy=0 dh=0 dv=0
PairPos2: "'kern' Horizontal Kerning in Arabic lookup 0 subtable" uniFEC1 dx=-29 dy=0 dh=-29 dv=0 dx=0 dy=0 dh=0 dv=0
PairPos2: "'kern' Horizontal Kerning in Arabic lookup 0 subtable" zad.init dx=-29 dy=0 dh=-29 dv=0 dx=0 dy=0 dh=0 dv=0
PairPos2: "'kern' Horizontal Kerning in Arabic lookup 0 subtable" uniFEBD dx=-29 dy=0 dh=-29 dv=0 dx=0 dy=0 dh=0 dv=0
PairPos2: "'kern' Horizontal Kerning in Arabic lookup 0 subtable" sad.init dx=-29 dy=0 dh=-29 dv=0 dx=0 dy=0 dh=0 dv=0
PairPos2: "'kern' Horizontal Kerning in Arabic lookup 0 subtable" uniFEB9 dx=-29 dy=0 dh=-29 dv=0 dx=0 dy=0 dh=0 dv=0
PairPos2: "'kern' Horizontal Kerning in Arabic lookup 0 subtable" shin.init dx=-29 dy=0 dh=-29 dv=0 dx=0 dy=0 dh=0 dv=0
PairPos2: "'kern' Horizontal Kerning in Arabic lookup 0 subtable" uniFEB5 dx=-29 dy=0 dh=-29 dv=0 dx=0 dy=0 dh=0 dv=0
PairPos2: "'kern' Horizontal Kerning in Arabic lookup 0 subtable" sin.init dx=-29 dy=0 dh=-29 dv=0 dx=0 dy=0 dh=0 dv=0
PairPos2: "'kern' Horizontal Kerning in Arabic lookup 0 subtable" uniFEB1 dx=-29 dy=0 dh=-29 dv=0 dx=0 dy=0 dh=0 dv=0
PairPos2: "'kern' Horizontal Kerning in Arabic lookup 0 subtable" uniFEAB dx=-29 dy=0 dh=-29 dv=0 dx=0 dy=0 dh=0 dv=0
PairPos2: "'kern' Horizontal Kerning in Arabic lookup 0 subtable" uniFEA9 dx=-29 dy=0 dh=-29 dv=0 dx=0 dy=0 dh=0 dv=0
PairPos2: "'kern' Horizontal Kerning in Arabic lookup 0 subtable" khe.init dx=-29 dy=0 dh=-29 dv=0 dx=0 dy=0 dh=0 dv=0
PairPos2: "'kern' Horizontal Kerning in Arabic lookup 0 subtable" him.init dx=-29 dy=0 dh=-29 dv=0 dx=0 dy=0 dh=0 dv=0
PairPos2: "'kern' Horizontal Kerning in Arabic lookup 0 subtable" jim.init dx=-29 dy=0 dh=-29 dv=0 dx=0 dy=0 dh=0 dv=0
PairPos2: "'kern' Horizontal Kerning in Arabic lookup 0 subtable" the.init dx=-29 dy=0 dh=-29 dv=0 dx=0 dy=0 dh=0 dv=0
PairPos2: "'kern' Horizontal Kerning in Arabic lookup 0 subtable" te.init dx=-29 dy=0 dh=-29 dv=0 dx=0 dy=0 dh=0 dv=0
PairPos2: "'kern' Horizontal Kerning in Arabic lookup 0 subtable" uniFE95 dx=-29 dy=0 dh=-29 dv=0 dx=0 dy=0 dh=0 dv=0
PairPos2: "'kern' Horizontal Kerning in Arabic lookup 0 subtable" uniFE93 dx=-29 dy=0 dh=-29 dv=0 dx=0 dy=0 dh=0 dv=0
PairPos2: "'kern' Horizontal Kerning in Arabic lookup 0 subtable" uniFE8D dx=40 dy=0 dh=40 dv=0 dx=0 dy=0 dh=0 dv=0
PairPos2: "'kern' Horizontal Kerning in Arabic lookup 0 subtable" ye.hamze.init dx=-29 dy=0 dh=-29 dv=0 dx=0 dy=0 dh=0 dv=0
PairPos2: "'kern' Horizontal Kerning in Arabic lookup 0 subtable" uniFE83 dx=61 dy=0 dh=61 dv=0 dx=0 dy=0 dh=0 dv=0
PairPos2: "'kern' Horizontal Kerning in Arabic lookup 0 subtable" uniFE81 dx=61 dy=0 dh=61 dv=0 dx=0 dy=0 dh=0 dv=0
PairPos2: "'kern' Horizontal Kerning in Arabic lookup 0 subtable" uniFE80 dx=-29 dy=0 dh=-29 dv=0 dx=0 dy=0 dh=0 dv=0
PairPos2: "'kern' Horizontal Kerning in Arabic lookup 0 subtable" uniFD3D dx=40 dy=0 dh=40 dv=0 dx=0 dy=0 dh=0 dv=0
PairPos2: "'kern' Horizontal Kerning in Arabic lookup 0 subtable" uniFBE8 dx=-29 dy=0 dh=-29 dv=0 dx=0 dy=0 dh=0 dv=0
PairPos2: "'kern' Horizontal Kerning in Arabic lookup 0 subtable" heye dx=-29 dy=0 dh=-29 dv=0 dx=0 dy=0 dh=0 dv=0
PairPos2: "'kern' Horizontal Kerning in Arabic lookup 0 subtable" gaf.init dx=61 dy=0 dh=61 dv=0 dx=0 dy=0 dh=0 dv=0
PairPos2: "'kern' Horizontal Kerning in Arabic lookup 0 subtable" uniFB92 dx=61 dy=0 dh=61 dv=0 dx=0 dy=0 dh=0 dv=0
PairPos2: "'kern' Horizontal Kerning in Arabic lookup 0 subtable" kaf.init dx=61 dy=0 dh=61 dv=0 dx=0 dy=0 dh=0 dv=0
PairPos2: "'kern' Horizontal Kerning in Arabic lookup 0 subtable" uniFB8E dx=61 dy=0 dh=61 dv=0 dx=0 dy=0 dh=0 dv=0
PairPos2: "'kern' Horizontal Kerning in Arabic lookup 0 subtable" che.init dx=-29 dy=0 dh=-29 dv=0 dx=0 dy=0 dh=0 dv=0
PairPos2: "'kern' Horizontal Kerning in Arabic lookup 0 subtable" uniFB6C dx=-29 dy=0 dh=-29 dv=0 dx=0 dy=0 dh=0 dv=0
PairPos2: "'kern' Horizontal Kerning in Arabic lookup 0 subtable" uniFB6A dx=-29 dy=0 dh=-29 dv=0 dx=0 dy=0 dh=0 dv=0
PairPos2: "'kern' Horizontal Kerning in Arabic lookup 0 subtable" uniFB56 dx=-29 dy=0 dh=-29 dv=0 dx=0 dy=0 dh=0 dv=0
PairPos2: "'kern' Horizontal Kerning in Arabic lookup 0 subtable" uniFB50 dx=61 dy=0 dh=61 dv=0 dx=0 dy=0 dh=0 dv=0
EndChar

StartChar: uniFB56
Encoding: 64342 64342 148
Width: 926
GlyphClass: 2
Flags: W
AnchorPoint: "Anchor-1" 101 -131 basechar 0
AnchorPoint: "Anchor-0" 189 484 basechar 0
LayerCount: 2
Fore
SplineSet
420 -177 m 1
 337 -177 l 1
 337 -92 l 1
 420 -92 l 1
 420 -177 l 1
551 -177 m 1
 468 -177 l 1
 468 -92 l 1
 551 -92 l 1
 551 -177 l 1
485 -305 m 1
 402 -305 l 1
 402 -221 l 1
 485 -221 l 1
 485 -305 l 1
836 323 m 1
 861 246 874 190 874 155 c 0
 874 120 866 94 851 81 c 0
 827 58 759 36 646 15 c 0
 533 -6 446 -15 383 -15 c 0
 320 -15 269 -13 234 -6 c 0
 116 16 57 69 57 153 c 0
 57 200 71 257 96 324 c 1
 161 311 l 1
 158 299 150 275 139 243 c 0
 128 211 122 181 122 152 c 0
 122 123 143 102 185 87 c 0
 227 72 281 65 349 65 c 0
 463 65 584 79 714 110 c 0
 758 120 784 129 794 133 c 0
 804 137 808 142 808 146 c 0
 808 180 795 238 769 318 c 1
 836 323 l 1
EndSplineSet
PairPos2: "'kern' Horizontal Kerning in Arabic lookup 0 subtable" gaf_ye.farsi.isol dx=48 dy=0 dh=48 dv=0 dx=0 dy=0 dh=0 dv=0
PairPos2: "'kern' Horizontal Kerning in Arabic lookup 0 subtable" kaf.farsi_ye.farsi.isol dx=48 dy=0 dh=48 dv=0 dx=0 dy=0 dh=0 dv=0
PairPos2: "'kern' Horizontal Kerning in Arabic lookup 0 subtable" lam_ye.farsi.isol dx=65 dy=0 dh=65 dv=0 dx=0 dy=0 dh=0 dv=0
PairPos2: "'kern' Horizontal Kerning in Arabic lookup 0 subtable" mim_ye.farsi.isol dx=65 dy=0 dh=65 dv=0 dx=0 dy=0 dh=0 dv=0
PairPos2: "'kern' Horizontal Kerning in Arabic lookup 0 subtable" zad_ye.farsi.isol dx=65 dy=0 dh=65 dv=0 dx=0 dy=0 dh=0 dv=0
PairPos2: "'kern' Horizontal Kerning in Arabic lookup 0 subtable" shin_ye.farsi.isol dx=65 dy=0 dh=65 dv=0 dx=0 dy=0 dh=0 dv=0
PairPos2: "'kern' Horizontal Kerning in Arabic lookup 0 subtable" sad_ye.farsi.isol dx=65 dy=0 dh=65 dv=0 dx=0 dy=0 dh=0 dv=0
PairPos2: "'kern' Horizontal Kerning in Arabic lookup 0 subtable" sin_ye.farsi.isol dx=65 dy=0 dh=65 dv=0 dx=0 dy=0 dh=0 dv=0
PairPos2: "'kern' Horizontal Kerning in Arabic lookup 0 subtable" uniFEFB_earab.tanvin_fatheh dx=65 dy=0 dh=65 dv=0 dx=0 dy=0 dh=0 dv=0
PairPos2: "'kern' Horizontal Kerning in Arabic lookup 0 subtable" he8_uni0654.init dx=65 dy=0 dh=65 dv=0 dx=0 dy=0 dh=0 dv=0
PairPos2: "'kern' Horizontal Kerning in Arabic lookup 0 subtable" he8_uni0654.isol dx=65 dy=0 dh=65 dv=0 dx=0 dy=0 dh=0 dv=0
PairPos2: "'kern' Horizontal Kerning in Arabic lookup 0 subtable" uniFEFB dx=65 dy=0 dh=65 dv=0 dx=0 dy=0 dh=0 dv=0
PairPos2: "'kern' Horizontal Kerning in Arabic lookup 0 subtable" uniFEF7 dx=65 dy=0 dh=65 dv=0 dx=0 dy=0 dh=0 dv=0
PairPos2: "'kern' Horizontal Kerning in Arabic lookup 0 subtable" uniFEF5 dx=65 dy=0 dh=65 dv=0 dx=0 dy=0 dh=0 dv=0
PairPos2: "'kern' Horizontal Kerning in Arabic lookup 0 subtable" uniFEED dx=65 dy=0 dh=65 dv=0 dx=0 dy=0 dh=0 dv=0
PairPos2: "'kern' Horizontal Kerning in Arabic lookup 0 subtable" he8.init dx=65 dy=0 dh=65 dv=0 dx=0 dy=0 dh=0 dv=0
PairPos2: "'kern' Horizontal Kerning in Arabic lookup 0 subtable" uniFEE9 dx=65 dy=0 dh=65 dv=0 dx=0 dy=0 dh=0 dv=0
PairPos2: "'kern' Horizontal Kerning in Arabic lookup 0 subtable" nun.init dx=65 dy=0 dh=65 dv=0 dx=0 dy=0 dh=0 dv=0
PairPos2: "'kern' Horizontal Kerning in Arabic lookup 0 subtable" mim.init dx=65 dy=0 dh=65 dv=0 dx=0 dy=0 dh=0 dv=0
PairPos2: "'kern' Horizontal Kerning in Arabic lookup 0 subtable" uniFEE1 dx=65 dy=0 dh=65 dv=0 dx=0 dy=0 dh=0 dv=0
PairPos2: "'kern' Horizontal Kerning in Arabic lookup 0 subtable" lam.init dx=65 dy=0 dh=65 dv=0 dx=0 dy=0 dh=0 dv=0
PairPos2: "'kern' Horizontal Kerning in Arabic lookup 0 subtable" uniFEDD dx=65 dy=0 dh=65 dv=0 dx=0 dy=0 dh=0 dv=0
PairPos2: "'kern' Horizontal Kerning in Arabic lookup 0 subtable" uniFEDB dx=48 dy=0 dh=48 dv=0 dx=0 dy=0 dh=0 dv=0
PairPos2: "'kern' Horizontal Kerning in Arabic lookup 0 subtable" uniFED9 dx=65 dy=0 dh=65 dv=0 dx=0 dy=0 dh=0 dv=0
PairPos2: "'kern' Horizontal Kerning in Arabic lookup 0 subtable" qaf.init dx=65 dy=0 dh=65 dv=0 dx=0 dy=0 dh=0 dv=0
PairPos2: "'kern' Horizontal Kerning in Arabic lookup 0 subtable" fe.init dx=65 dy=0 dh=65 dv=0 dx=0 dy=0 dh=0 dv=0
PairPos2: "'kern' Horizontal Kerning in Arabic lookup 0 subtable" uniFED1 dx=65 dy=0 dh=65 dv=0 dx=0 dy=0 dh=0 dv=0
PairPos2: "'kern' Horizontal Kerning in Arabic lookup 0 subtable" qein.init dx=65 dy=0 dh=65 dv=0 dx=0 dy=0 dh=0 dv=0
PairPos2: "'kern' Horizontal Kerning in Arabic lookup 0 subtable" uniFECD dx=65 dy=0 dh=65 dv=0 dx=0 dy=0 dh=0 dv=0
PairPos2: "'kern' Horizontal Kerning in Arabic lookup 0 subtable" ein.init dx=65 dy=0 dh=65 dv=0 dx=0 dy=0 dh=0 dv=0
PairPos2: "'kern' Horizontal Kerning in Arabic lookup 0 subtable" uniFEC9 dx=65 dy=0 dh=65 dv=0 dx=0 dy=0 dh=0 dv=0
PairPos2: "'kern' Horizontal Kerning in Arabic lookup 0 subtable" za.init dx=65 dy=0 dh=65 dv=0 dx=0 dy=0 dh=0 dv=0
PairPos2: "'kern' Horizontal Kerning in Arabic lookup 0 subtable" uniFEC5 dx=65 dy=0 dh=65 dv=0 dx=0 dy=0 dh=0 dv=0
PairPos2: "'kern' Horizontal Kerning in Arabic lookup 0 subtable" ta.init dx=65 dy=0 dh=65 dv=0 dx=0 dy=0 dh=0 dv=0
PairPos2: "'kern' Horizontal Kerning in Arabic lookup 0 subtable" uniFEC1 dx=65 dy=0 dh=65 dv=0 dx=0 dy=0 dh=0 dv=0
PairPos2: "'kern' Horizontal Kerning in Arabic lookup 0 subtable" zad.init dx=65 dy=0 dh=65 dv=0 dx=0 dy=0 dh=0 dv=0
PairPos2: "'kern' Horizontal Kerning in Arabic lookup 0 subtable" uniFEBD dx=65 dy=0 dh=65 dv=0 dx=0 dy=0 dh=0 dv=0
PairPos2: "'kern' Horizontal Kerning in Arabic lookup 0 subtable" sad.init dx=65 dy=0 dh=65 dv=0 dx=0 dy=0 dh=0 dv=0
PairPos2: "'kern' Horizontal Kerning in Arabic lookup 0 subtable" uniFEB9 dx=65 dy=0 dh=65 dv=0 dx=0 dy=0 dh=0 dv=0
PairPos2: "'kern' Horizontal Kerning in Arabic lookup 0 subtable" shin.init dx=65 dy=0 dh=65 dv=0 dx=0 dy=0 dh=0 dv=0
PairPos2: "'kern' Horizontal Kerning in Arabic lookup 0 subtable" uniFEB5 dx=65 dy=0 dh=65 dv=0 dx=0 dy=0 dh=0 dv=0
PairPos2: "'kern' Horizontal Kerning in Arabic lookup 0 subtable" sin.init dx=65 dy=0 dh=65 dv=0 dx=0 dy=0 dh=0 dv=0
PairPos2: "'kern' Horizontal Kerning in Arabic lookup 0 subtable" uniFEB1 dx=65 dy=0 dh=65 dv=0 dx=0 dy=0 dh=0 dv=0
PairPos2: "'kern' Horizontal Kerning in Arabic lookup 0 subtable" uniFEAF dx=65 dy=0 dh=65 dv=0 dx=0 dy=0 dh=0 dv=0
PairPos2: "'kern' Horizontal Kerning in Arabic lookup 0 subtable" uniFEAD dx=65 dy=0 dh=65 dv=0 dx=0 dy=0 dh=0 dv=0
PairPos2: "'kern' Horizontal Kerning in Arabic lookup 0 subtable" uniFEAB dx=65 dy=0 dh=65 dv=0 dx=0 dy=0 dh=0 dv=0
PairPos2: "'kern' Horizontal Kerning in Arabic lookup 0 subtable" uniFEA9 dx=65 dy=0 dh=65 dv=0 dx=0 dy=0 dh=0 dv=0
PairPos2: "'kern' Horizontal Kerning in Arabic lookup 0 subtable" khe.init dx=65 dy=0 dh=65 dv=0 dx=0 dy=0 dh=0 dv=0
PairPos2: "'kern' Horizontal Kerning in Arabic lookup 0 subtable" uniFEA5 dx=65 dy=0 dh=65 dv=0 dx=0 dy=0 dh=0 dv=0
PairPos2: "'kern' Horizontal Kerning in Arabic lookup 0 subtable" him.init dx=65 dy=0 dh=65 dv=0 dx=0 dy=0 dh=0 dv=0
PairPos2: "'kern' Horizontal Kerning in Arabic lookup 0 subtable" uniFEA1 dx=65 dy=0 dh=65 dv=0 dx=0 dy=0 dh=0 dv=0
PairPos2: "'kern' Horizontal Kerning in Arabic lookup 0 subtable" jim.init dx=65 dy=0 dh=65 dv=0 dx=0 dy=0 dh=0 dv=0
PairPos2: "'kern' Horizontal Kerning in Arabic lookup 0 subtable" uniFE9D dx=65 dy=0 dh=65 dv=0 dx=0 dy=0 dh=0 dv=0
PairPos2: "'kern' Horizontal Kerning in Arabic lookup 0 subtable" the.init dx=65 dy=0 dh=65 dv=0 dx=0 dy=0 dh=0 dv=0
PairPos2: "'kern' Horizontal Kerning in Arabic lookup 0 subtable" te.init dx=65 dy=0 dh=65 dv=0 dx=0 dy=0 dh=0 dv=0
PairPos2: "'kern' Horizontal Kerning in Arabic lookup 0 subtable" uniFE95 dx=65 dy=0 dh=65 dv=0 dx=0 dy=0 dh=0 dv=0
PairPos2: "'kern' Horizontal Kerning in Arabic lookup 0 subtable" uniFE93 dx=65 dy=0 dh=65 dv=0 dx=0 dy=0 dh=0 dv=0
PairPos2: "'kern' Horizontal Kerning in Arabic lookup 0 subtable" uniFE8D dx=65 dy=0 dh=65 dv=0 dx=0 dy=0 dh=0 dv=0
PairPos2: "'kern' Horizontal Kerning in Arabic lookup 0 subtable" ye.hamze.init dx=65 dy=0 dh=65 dv=0 dx=0 dy=0 dh=0 dv=0
PairPos2: "'kern' Horizontal Kerning in Arabic lookup 0 subtable" uniFE83 dx=65 dy=0 dh=65 dv=0 dx=0 dy=0 dh=0 dv=0
PairPos2: "'kern' Horizontal Kerning in Arabic lookup 0 subtable" uniFE81 dx=65 dy=0 dh=65 dv=0 dx=0 dy=0 dh=0 dv=0
PairPos2: "'kern' Horizontal Kerning in Arabic lookup 0 subtable" uniFE80 dx=65 dy=0 dh=65 dv=0 dx=0 dy=0 dh=0 dv=0
PairPos2: "'kern' Horizontal Kerning in Arabic lookup 0 subtable" uniFD3D dx=65 dy=0 dh=65 dv=0 dx=0 dy=0 dh=0 dv=0
PairPos2: "'kern' Horizontal Kerning in Arabic lookup 0 subtable" uniFBE8 dx=65 dy=0 dh=65 dv=0 dx=0 dy=0 dh=0 dv=0
PairPos2: "'kern' Horizontal Kerning in Arabic lookup 0 subtable" heye dx=65 dy=0 dh=65 dv=0 dx=0 dy=0 dh=0 dv=0
PairPos2: "'kern' Horizontal Kerning in Arabic lookup 0 subtable" gaf.init dx=48 dy=0 dh=48 dv=0 dx=0 dy=0 dh=0 dv=0
PairPos2: "'kern' Horizontal Kerning in Arabic lookup 0 subtable" uniFB92 dx=48 dy=0 dh=48 dv=0 dx=0 dy=0 dh=0 dv=0
PairPos2: "'kern' Horizontal Kerning in Arabic lookup 0 subtable" kaf.init dx=48 dy=0 dh=48 dv=0 dx=0 dy=0 dh=0 dv=0
PairPos2: "'kern' Horizontal Kerning in Arabic lookup 0 subtable" uniFB8E dx=48 dy=0 dh=48 dv=0 dx=0 dy=0 dh=0 dv=0
PairPos2: "'kern' Horizontal Kerning in Arabic lookup 0 subtable" uniFB8A dx=65 dy=0 dh=65 dv=0 dx=0 dy=0 dh=0 dv=0
PairPos2: "'kern' Horizontal Kerning in Arabic lookup 0 subtable" che.init dx=65 dy=0 dh=65 dv=0 dx=0 dy=0 dh=0 dv=0
PairPos2: "'kern' Horizontal Kerning in Arabic lookup 0 subtable" uniFB7A dx=65 dy=0 dh=65 dv=0 dx=0 dy=0 dh=0 dv=0
PairPos2: "'kern' Horizontal Kerning in Arabic lookup 0 subtable" uniFB6C dx=65 dy=0 dh=65 dv=0 dx=0 dy=0 dh=0 dv=0
PairPos2: "'kern' Horizontal Kerning in Arabic lookup 0 subtable" uniFB6A dx=65 dy=0 dh=65 dv=0 dx=0 dy=0 dh=0 dv=0
PairPos2: "'kern' Horizontal Kerning in Arabic lookup 0 subtable" uniFB56 dx=65 dy=0 dh=65 dv=0 dx=0 dy=0 dh=0 dv=0
PairPos2: "'kern' Horizontal Kerning in Arabic lookup 0 subtable" uniFB50 dx=65 dy=0 dh=65 dv=0 dx=0 dy=0 dh=0 dv=0
EndChar

StartChar: pe.fina
Encoding: 64343 64343 149
Width: 980
GlyphClass: 2
Flags: W
AnchorPoint: "Anchor-1" 101 -131 basechar 0
AnchorPoint: "Anchor-0" 189 484 basechar 0
LayerCount: 2
Fore
SplineSet
420 -177 m 1
 337 -177 l 1
 337 -92 l 1
 420 -92 l 1
 420 -177 l 1
551 -177 m 1
 468 -177 l 1
 468 -92 l 1
 551 -92 l 1
 551 -177 l 1
485 -305 m 1
 402 -305 l 1
 402 -221 l 1
 485 -221 l 1
 485 -305 l 1
982 0 m 1
 888 0 830 25 807 73 c 1
 771 42 683 18 541 -2 c 0
 479 -11 436 -15 408 -15 c 2
 365 -15 l 2
 268 -15 193 -3 139 25 c 0
 85 53 57 96 57 152 c 0
 57 200 71 257 96 324 c 1
 161 311 l 1
 157 299 150 276 139 244 c 0
 128 212 122 182 122 153 c 0
 122 124 143 102 185 87 c 0
 227 72 282 65 354 65 c 0
 426 65 508 73 603 88 c 0
 698 103 755 123 776 147 c 0
 790 165 800 182 806 200 c 0
 812 218 817 232 820 243 c 2
 827 265 l 1
 884 243 l 1
 868 185 859 150 859 140 c 0
 859 120 869 106 887 96 c 0
 905 86 937 80 982 80 c 1
 982 0 l 1
EndSplineSet
PairPos2: "'kern' Horizontal Kerning in Arabic lookup 0 subtable" gaf_ye.farsi.isol dx=48 dy=0 dh=48 dv=0 dx=0 dy=0 dh=0 dv=0
PairPos2: "'kern' Horizontal Kerning in Arabic lookup 0 subtable" kaf.farsi_ye.farsi.isol dx=48 dy=0 dh=48 dv=0 dx=0 dy=0 dh=0 dv=0
PairPos2: "'kern' Horizontal Kerning in Arabic lookup 0 subtable" lam_ye.farsi.isol dx=65 dy=0 dh=65 dv=0 dx=0 dy=0 dh=0 dv=0
PairPos2: "'kern' Horizontal Kerning in Arabic lookup 0 subtable" mim_ye.farsi.isol dx=65 dy=0 dh=65 dv=0 dx=0 dy=0 dh=0 dv=0
PairPos2: "'kern' Horizontal Kerning in Arabic lookup 0 subtable" zad_ye.farsi.isol dx=65 dy=0 dh=65 dv=0 dx=0 dy=0 dh=0 dv=0
PairPos2: "'kern' Horizontal Kerning in Arabic lookup 0 subtable" shin_ye.farsi.isol dx=65 dy=0 dh=65 dv=0 dx=0 dy=0 dh=0 dv=0
PairPos2: "'kern' Horizontal Kerning in Arabic lookup 0 subtable" sad_ye.farsi.isol dx=65 dy=0 dh=65 dv=0 dx=0 dy=0 dh=0 dv=0
PairPos2: "'kern' Horizontal Kerning in Arabic lookup 0 subtable" sin_ye.farsi.isol dx=65 dy=0 dh=65 dv=0 dx=0 dy=0 dh=0 dv=0
PairPos2: "'kern' Horizontal Kerning in Arabic lookup 0 subtable" uniFEFB_earab.tanvin_fatheh dx=65 dy=0 dh=65 dv=0 dx=0 dy=0 dh=0 dv=0
PairPos2: "'kern' Horizontal Kerning in Arabic lookup 0 subtable" he8_uni0654.init dx=65 dy=0 dh=65 dv=0 dx=0 dy=0 dh=0 dv=0
PairPos2: "'kern' Horizontal Kerning in Arabic lookup 0 subtable" he8_uni0654.isol dx=65 dy=0 dh=65 dv=0 dx=0 dy=0 dh=0 dv=0
PairPos2: "'kern' Horizontal Kerning in Arabic lookup 0 subtable" uniFEFB dx=65 dy=0 dh=65 dv=0 dx=0 dy=0 dh=0 dv=0
PairPos2: "'kern' Horizontal Kerning in Arabic lookup 0 subtable" uniFEF7 dx=65 dy=0 dh=65 dv=0 dx=0 dy=0 dh=0 dv=0
PairPos2: "'kern' Horizontal Kerning in Arabic lookup 0 subtable" uniFEF5 dx=65 dy=0 dh=65 dv=0 dx=0 dy=0 dh=0 dv=0
PairPos2: "'kern' Horizontal Kerning in Arabic lookup 0 subtable" uniFEED dx=65 dy=0 dh=65 dv=0 dx=0 dy=0 dh=0 dv=0
PairPos2: "'kern' Horizontal Kerning in Arabic lookup 0 subtable" he8.init dx=65 dy=0 dh=65 dv=0 dx=0 dy=0 dh=0 dv=0
PairPos2: "'kern' Horizontal Kerning in Arabic lookup 0 subtable" uniFEE9 dx=65 dy=0 dh=65 dv=0 dx=0 dy=0 dh=0 dv=0
PairPos2: "'kern' Horizontal Kerning in Arabic lookup 0 subtable" nun.init dx=65 dy=0 dh=65 dv=0 dx=0 dy=0 dh=0 dv=0
PairPos2: "'kern' Horizontal Kerning in Arabic lookup 0 subtable" mim.init dx=65 dy=0 dh=65 dv=0 dx=0 dy=0 dh=0 dv=0
PairPos2: "'kern' Horizontal Kerning in Arabic lookup 0 subtable" uniFEE1 dx=65 dy=0 dh=65 dv=0 dx=0 dy=0 dh=0 dv=0
PairPos2: "'kern' Horizontal Kerning in Arabic lookup 0 subtable" lam.init dx=65 dy=0 dh=65 dv=0 dx=0 dy=0 dh=0 dv=0
PairPos2: "'kern' Horizontal Kerning in Arabic lookup 0 subtable" uniFEDD dx=65 dy=0 dh=65 dv=0 dx=0 dy=0 dh=0 dv=0
PairPos2: "'kern' Horizontal Kerning in Arabic lookup 0 subtable" uniFEDB dx=48 dy=0 dh=48 dv=0 dx=0 dy=0 dh=0 dv=0
PairPos2: "'kern' Horizontal Kerning in Arabic lookup 0 subtable" uniFED9 dx=65 dy=0 dh=65 dv=0 dx=0 dy=0 dh=0 dv=0
PairPos2: "'kern' Horizontal Kerning in Arabic lookup 0 subtable" qaf.init dx=65 dy=0 dh=65 dv=0 dx=0 dy=0 dh=0 dv=0
PairPos2: "'kern' Horizontal Kerning in Arabic lookup 0 subtable" fe.init dx=65 dy=0 dh=65 dv=0 dx=0 dy=0 dh=0 dv=0
PairPos2: "'kern' Horizontal Kerning in Arabic lookup 0 subtable" uniFED1 dx=65 dy=0 dh=65 dv=0 dx=0 dy=0 dh=0 dv=0
PairPos2: "'kern' Horizontal Kerning in Arabic lookup 0 subtable" qein.init dx=65 dy=0 dh=65 dv=0 dx=0 dy=0 dh=0 dv=0
PairPos2: "'kern' Horizontal Kerning in Arabic lookup 0 subtable" uniFECD dx=65 dy=0 dh=65 dv=0 dx=0 dy=0 dh=0 dv=0
PairPos2: "'kern' Horizontal Kerning in Arabic lookup 0 subtable" ein.init dx=65 dy=0 dh=65 dv=0 dx=0 dy=0 dh=0 dv=0
PairPos2: "'kern' Horizontal Kerning in Arabic lookup 0 subtable" uniFEC9 dx=65 dy=0 dh=65 dv=0 dx=0 dy=0 dh=0 dv=0
PairPos2: "'kern' Horizontal Kerning in Arabic lookup 0 subtable" za.init dx=65 dy=0 dh=65 dv=0 dx=0 dy=0 dh=0 dv=0
PairPos2: "'kern' Horizontal Kerning in Arabic lookup 0 subtable" uniFEC5 dx=65 dy=0 dh=65 dv=0 dx=0 dy=0 dh=0 dv=0
PairPos2: "'kern' Horizontal Kerning in Arabic lookup 0 subtable" ta.init dx=65 dy=0 dh=65 dv=0 dx=0 dy=0 dh=0 dv=0
PairPos2: "'kern' Horizontal Kerning in Arabic lookup 0 subtable" uniFEC1 dx=65 dy=0 dh=65 dv=0 dx=0 dy=0 dh=0 dv=0
PairPos2: "'kern' Horizontal Kerning in Arabic lookup 0 subtable" zad.init dx=65 dy=0 dh=65 dv=0 dx=0 dy=0 dh=0 dv=0
PairPos2: "'kern' Horizontal Kerning in Arabic lookup 0 subtable" uniFEBD dx=65 dy=0 dh=65 dv=0 dx=0 dy=0 dh=0 dv=0
PairPos2: "'kern' Horizontal Kerning in Arabic lookup 0 subtable" sad.init dx=65 dy=0 dh=65 dv=0 dx=0 dy=0 dh=0 dv=0
PairPos2: "'kern' Horizontal Kerning in Arabic lookup 0 subtable" uniFEB9 dx=65 dy=0 dh=65 dv=0 dx=0 dy=0 dh=0 dv=0
PairPos2: "'kern' Horizontal Kerning in Arabic lookup 0 subtable" shin.init dx=65 dy=0 dh=65 dv=0 dx=0 dy=0 dh=0 dv=0
PairPos2: "'kern' Horizontal Kerning in Arabic lookup 0 subtable" uniFEB5 dx=65 dy=0 dh=65 dv=0 dx=0 dy=0 dh=0 dv=0
PairPos2: "'kern' Horizontal Kerning in Arabic lookup 0 subtable" sin.init dx=65 dy=0 dh=65 dv=0 dx=0 dy=0 dh=0 dv=0
PairPos2: "'kern' Horizontal Kerning in Arabic lookup 0 subtable" uniFEB1 dx=65 dy=0 dh=65 dv=0 dx=0 dy=0 dh=0 dv=0
PairPos2: "'kern' Horizontal Kerning in Arabic lookup 0 subtable" uniFEAF dx=65 dy=0 dh=65 dv=0 dx=0 dy=0 dh=0 dv=0
PairPos2: "'kern' Horizontal Kerning in Arabic lookup 0 subtable" uniFEAD dx=65 dy=0 dh=65 dv=0 dx=0 dy=0 dh=0 dv=0
PairPos2: "'kern' Horizontal Kerning in Arabic lookup 0 subtable" uniFEAB dx=65 dy=0 dh=65 dv=0 dx=0 dy=0 dh=0 dv=0
PairPos2: "'kern' Horizontal Kerning in Arabic lookup 0 subtable" uniFEA9 dx=65 dy=0 dh=65 dv=0 dx=0 dy=0 dh=0 dv=0
PairPos2: "'kern' Horizontal Kerning in Arabic lookup 0 subtable" khe.init dx=65 dy=0 dh=65 dv=0 dx=0 dy=0 dh=0 dv=0
PairPos2: "'kern' Horizontal Kerning in Arabic lookup 0 subtable" uniFEA5 dx=65 dy=0 dh=65 dv=0 dx=0 dy=0 dh=0 dv=0
PairPos2: "'kern' Horizontal Kerning in Arabic lookup 0 subtable" him.init dx=65 dy=0 dh=65 dv=0 dx=0 dy=0 dh=0 dv=0
PairPos2: "'kern' Horizontal Kerning in Arabic lookup 0 subtable" uniFEA1 dx=65 dy=0 dh=65 dv=0 dx=0 dy=0 dh=0 dv=0
PairPos2: "'kern' Horizontal Kerning in Arabic lookup 0 subtable" jim.init dx=65 dy=0 dh=65 dv=0 dx=0 dy=0 dh=0 dv=0
PairPos2: "'kern' Horizontal Kerning in Arabic lookup 0 subtable" uniFE9D dx=65 dy=0 dh=65 dv=0 dx=0 dy=0 dh=0 dv=0
PairPos2: "'kern' Horizontal Kerning in Arabic lookup 0 subtable" the.init dx=65 dy=0 dh=65 dv=0 dx=0 dy=0 dh=0 dv=0
PairPos2: "'kern' Horizontal Kerning in Arabic lookup 0 subtable" te.init dx=65 dy=0 dh=65 dv=0 dx=0 dy=0 dh=0 dv=0
PairPos2: "'kern' Horizontal Kerning in Arabic lookup 0 subtable" uniFE95 dx=65 dy=0 dh=65 dv=0 dx=0 dy=0 dh=0 dv=0
PairPos2: "'kern' Horizontal Kerning in Arabic lookup 0 subtable" uniFE93 dx=65 dy=0 dh=65 dv=0 dx=0 dy=0 dh=0 dv=0
PairPos2: "'kern' Horizontal Kerning in Arabic lookup 0 subtable" uniFE8D dx=65 dy=0 dh=65 dv=0 dx=0 dy=0 dh=0 dv=0
PairPos2: "'kern' Horizontal Kerning in Arabic lookup 0 subtable" ye.hamze.init dx=65 dy=0 dh=65 dv=0 dx=0 dy=0 dh=0 dv=0
PairPos2: "'kern' Horizontal Kerning in Arabic lookup 0 subtable" uniFE83 dx=65 dy=0 dh=65 dv=0 dx=0 dy=0 dh=0 dv=0
PairPos2: "'kern' Horizontal Kerning in Arabic lookup 0 subtable" uniFE81 dx=65 dy=0 dh=65 dv=0 dx=0 dy=0 dh=0 dv=0
PairPos2: "'kern' Horizontal Kerning in Arabic lookup 0 subtable" uniFE80 dx=65 dy=0 dh=65 dv=0 dx=0 dy=0 dh=0 dv=0
PairPos2: "'kern' Horizontal Kerning in Arabic lookup 0 subtable" uniFD3D dx=65 dy=0 dh=65 dv=0 dx=0 dy=0 dh=0 dv=0
PairPos2: "'kern' Horizontal Kerning in Arabic lookup 0 subtable" uniFBE8 dx=65 dy=0 dh=65 dv=0 dx=0 dy=0 dh=0 dv=0
PairPos2: "'kern' Horizontal Kerning in Arabic lookup 0 subtable" heye dx=65 dy=0 dh=65 dv=0 dx=0 dy=0 dh=0 dv=0
PairPos2: "'kern' Horizontal Kerning in Arabic lookup 0 subtable" gaf.init dx=48 dy=0 dh=48 dv=0 dx=0 dy=0 dh=0 dv=0
PairPos2: "'kern' Horizontal Kerning in Arabic lookup 0 subtable" uniFB92 dx=48 dy=0 dh=48 dv=0 dx=0 dy=0 dh=0 dv=0
PairPos2: "'kern' Horizontal Kerning in Arabic lookup 0 subtable" kaf.init dx=48 dy=0 dh=48 dv=0 dx=0 dy=0 dh=0 dv=0
PairPos2: "'kern' Horizontal Kerning in Arabic lookup 0 subtable" uniFB8E dx=48 dy=0 dh=48 dv=0 dx=0 dy=0 dh=0 dv=0
PairPos2: "'kern' Horizontal Kerning in Arabic lookup 0 subtable" uniFB8A dx=65 dy=0 dh=65 dv=0 dx=0 dy=0 dh=0 dv=0
PairPos2: "'kern' Horizontal Kerning in Arabic lookup 0 subtable" che.init dx=65 dy=0 dh=65 dv=0 dx=0 dy=0 dh=0 dv=0
PairPos2: "'kern' Horizontal Kerning in Arabic lookup 0 subtable" uniFB7A dx=65 dy=0 dh=65 dv=0 dx=0 dy=0 dh=0 dv=0
PairPos2: "'kern' Horizontal Kerning in Arabic lookup 0 subtable" uniFB6C dx=65 dy=0 dh=65 dv=0 dx=0 dy=0 dh=0 dv=0
PairPos2: "'kern' Horizontal Kerning in Arabic lookup 0 subtable" uniFB6A dx=65 dy=0 dh=65 dv=0 dx=0 dy=0 dh=0 dv=0
PairPos2: "'kern' Horizontal Kerning in Arabic lookup 0 subtable" uniFB56 dx=65 dy=0 dh=65 dv=0 dx=0 dy=0 dh=0 dv=0
PairPos2: "'kern' Horizontal Kerning in Arabic lookup 0 subtable" uniFB50 dx=65 dy=0 dh=65 dv=0 dx=0 dy=0 dh=0 dv=0
EndChar

StartChar: pe.init
Encoding: 64344 64344 150
Width: 293
GlyphClass: 2
Flags: W
AnchorPoint: "Anchor-1" 170 -279 basechar 0
AnchorPoint: "Anchor-0" 125 495 basechar 0
LayerCount: 2
Fore
SplineSet
84 -177 m 1
 0 -177 l 1
 0 -92 l 1
 84 -92 l 1
 84 -177 l 1
214 -177 m 1
 131 -177 l 1
 131 -92 l 1
 214 -92 l 1
 214 -177 l 1
148 -305 m 1
 65 -305 l 1
 65 -221 l 1
 148 -221 l 1
 148 -305 l 1
184 315 m 1
 209 238 221 181 221 141 c 0
 221 101 203 69 168 41 c 0
 133 13 89 0 34 0 c 2
 0 0 l 2
 -10 0 -20 3 -30 6 c 1
 -30 80 l 1
 34 80 l 2
 70 80 96 85 112 94 c 0
 128 103 140 110 146 117 c 0
 152 124 155 131 155 139 c 0
 155 171 142 228 117 309 c 1
 184 315 l 1
EndSplineSet
EndChar

StartChar: pe.medi
Encoding: 64345 64345 151
Width: 293
GlyphClass: 2
Flags: W
AnchorPoint: "Anchor-1" 163 -274 basechar 0
AnchorPoint: "Anchor-0" 125 442 basechar 0
LayerCount: 2
Fore
SplineSet
84 -177 m 1
 0 -177 l 1
 0 -92 l 1
 84 -92 l 1
 84 -177 l 1
214 -177 m 1
 131 -177 l 1
 131 -92 l 1
 214 -92 l 1
 214 -177 l 1
148 -305 m 1
 65 -305 l 1
 65 -221 l 1
 148 -221 l 1
 148 -305 l 1
145 46 m 1
 117 15 73 0 14 0 c 2
 0 0 l 2
 -10 0 -20 3 -30 6 c 1
 -30 80 l 1
 14 80 l 2
 49 80 76 87 92 100 c 0
 108 113 118 129 118 150 c 2
 118 243 l 1
 182 243 l 1
 182 150 l 2
 182 127 191 108 206 97 c 0
 221 86 251 80 296 80 c 1
 296 0 l 1
 218 0 167 15 145 46 c 1
EndSplineSet
EndChar

StartChar: uniFB6A
Encoding: 64362 64362 152
Width: 884
GlyphClass: 2
Flags: W
AnchorPoint: "Anchor-1" 125 -87 basechar 0
AnchorPoint: "Anchor-0" 213 451 basechar 0
LayerCount: 2
Fore
SplineSet
666 516 m 1
 582 516 l 1
 582 600 l 1
 666 600 l 1
 666 516 l 1
796 516 m 1
 713 516 l 1
 713 600 l 1
 796 600 l 1
 796 516 l 1
730 644 m 1
 647 644 l 1
 647 727 l 1
 730 727 l 1
 730 644 l 1
638 263 m 0
 638 251 663 244 711 244 c 2
 729 244 l 2
 740 244 755 247 773 255 c 1
 763 303 740 336 706 351 c 0
 697 355 690 358 682 358 c 0
 674 358 670 355 664 348 c 0
 648 326 639 298 638 263 c 0
711 163 m 0
 619 163 573 197 573 263 c 0
 573 301 581 335 597 366 c 0
 622 413 650 437 680 437 c 0
 717 437 751 421 782 388 c 0
 820 348 839 298 839 235 c 0
 839 135 825 74 796 51 c 0
 767 28 711 11 626 0 c 0
 541 -11 464 -15 396 -15 c 2
 341 -15 l 2
 306 -15 269 -13 234 -6 c 0
 116 16 57 69 57 153 c 0
 57 200 71 257 96 324 c 1
 161 311 l 1
 157 299 150 276 139 244 c 0
 128 212 122 182 122 153 c 0
 122 124 143 102 185 87 c 0
 227 72 278 65 340 65 c 0
 531 65 666 80 744 110 c 0
 758 118 768 138 772 173 c 1
 756 166 735 163 711 163 c 0
EndSplineSet
PairPos2: "'kern' Horizontal Kerning in Arabic lookup 0 subtable" gaf_ye.farsi.isol dx=48 dy=0 dh=48 dv=0 dx=0 dy=0 dh=0 dv=0
PairPos2: "'kern' Horizontal Kerning in Arabic lookup 0 subtable" kaf.farsi_ye.farsi.isol dx=48 dy=0 dh=48 dv=0 dx=0 dy=0 dh=0 dv=0
PairPos2: "'kern' Horizontal Kerning in Arabic lookup 0 subtable" lam_ye.farsi.isol dx=65 dy=0 dh=65 dv=0 dx=0 dy=0 dh=0 dv=0
PairPos2: "'kern' Horizontal Kerning in Arabic lookup 0 subtable" mim_ye.farsi.isol dx=65 dy=0 dh=65 dv=0 dx=0 dy=0 dh=0 dv=0
PairPos2: "'kern' Horizontal Kerning in Arabic lookup 0 subtable" zad_ye.farsi.isol dx=65 dy=0 dh=65 dv=0 dx=0 dy=0 dh=0 dv=0
PairPos2: "'kern' Horizontal Kerning in Arabic lookup 0 subtable" shin_ye.farsi.isol dx=65 dy=0 dh=65 dv=0 dx=0 dy=0 dh=0 dv=0
PairPos2: "'kern' Horizontal Kerning in Arabic lookup 0 subtable" sad_ye.farsi.isol dx=65 dy=0 dh=65 dv=0 dx=0 dy=0 dh=0 dv=0
PairPos2: "'kern' Horizontal Kerning in Arabic lookup 0 subtable" sin_ye.farsi.isol dx=65 dy=0 dh=65 dv=0 dx=0 dy=0 dh=0 dv=0
PairPos2: "'kern' Horizontal Kerning in Arabic lookup 0 subtable" uniFEFB_earab.tanvin_fatheh dx=65 dy=0 dh=65 dv=0 dx=0 dy=0 dh=0 dv=0
PairPos2: "'kern' Horizontal Kerning in Arabic lookup 0 subtable" he8_uni0654.init dx=65 dy=0 dh=65 dv=0 dx=0 dy=0 dh=0 dv=0
PairPos2: "'kern' Horizontal Kerning in Arabic lookup 0 subtable" he8_uni0654.isol dx=65 dy=0 dh=65 dv=0 dx=0 dy=0 dh=0 dv=0
PairPos2: "'kern' Horizontal Kerning in Arabic lookup 0 subtable" uniFEFB dx=65 dy=0 dh=65 dv=0 dx=0 dy=0 dh=0 dv=0
PairPos2: "'kern' Horizontal Kerning in Arabic lookup 0 subtable" uniFEF7 dx=65 dy=0 dh=65 dv=0 dx=0 dy=0 dh=0 dv=0
PairPos2: "'kern' Horizontal Kerning in Arabic lookup 0 subtable" uniFEF5 dx=65 dy=0 dh=65 dv=0 dx=0 dy=0 dh=0 dv=0
PairPos2: "'kern' Horizontal Kerning in Arabic lookup 0 subtable" uniFEED dx=65 dy=0 dh=65 dv=0 dx=0 dy=0 dh=0 dv=0
PairPos2: "'kern' Horizontal Kerning in Arabic lookup 0 subtable" he8.init dx=65 dy=0 dh=65 dv=0 dx=0 dy=0 dh=0 dv=0
PairPos2: "'kern' Horizontal Kerning in Arabic lookup 0 subtable" uniFEE9 dx=65 dy=0 dh=65 dv=0 dx=0 dy=0 dh=0 dv=0
PairPos2: "'kern' Horizontal Kerning in Arabic lookup 0 subtable" nun.init dx=65 dy=0 dh=65 dv=0 dx=0 dy=0 dh=0 dv=0
PairPos2: "'kern' Horizontal Kerning in Arabic lookup 0 subtable" mim.init dx=65 dy=0 dh=65 dv=0 dx=0 dy=0 dh=0 dv=0
PairPos2: "'kern' Horizontal Kerning in Arabic lookup 0 subtable" uniFEE1 dx=65 dy=0 dh=65 dv=0 dx=0 dy=0 dh=0 dv=0
PairPos2: "'kern' Horizontal Kerning in Arabic lookup 0 subtable" lam.init dx=65 dy=0 dh=65 dv=0 dx=0 dy=0 dh=0 dv=0
PairPos2: "'kern' Horizontal Kerning in Arabic lookup 0 subtable" uniFEDD dx=65 dy=0 dh=65 dv=0 dx=0 dy=0 dh=0 dv=0
PairPos2: "'kern' Horizontal Kerning in Arabic lookup 0 subtable" uniFEDB dx=48 dy=0 dh=48 dv=0 dx=0 dy=0 dh=0 dv=0
PairPos2: "'kern' Horizontal Kerning in Arabic lookup 0 subtable" uniFED9 dx=65 dy=0 dh=65 dv=0 dx=0 dy=0 dh=0 dv=0
PairPos2: "'kern' Horizontal Kerning in Arabic lookup 0 subtable" qaf.init dx=65 dy=0 dh=65 dv=0 dx=0 dy=0 dh=0 dv=0
PairPos2: "'kern' Horizontal Kerning in Arabic lookup 0 subtable" fe.init dx=65 dy=0 dh=65 dv=0 dx=0 dy=0 dh=0 dv=0
PairPos2: "'kern' Horizontal Kerning in Arabic lookup 0 subtable" uniFED1 dx=65 dy=0 dh=65 dv=0 dx=0 dy=0 dh=0 dv=0
PairPos2: "'kern' Horizontal Kerning in Arabic lookup 0 subtable" qein.init dx=65 dy=0 dh=65 dv=0 dx=0 dy=0 dh=0 dv=0
PairPos2: "'kern' Horizontal Kerning in Arabic lookup 0 subtable" uniFECD dx=65 dy=0 dh=65 dv=0 dx=0 dy=0 dh=0 dv=0
PairPos2: "'kern' Horizontal Kerning in Arabic lookup 0 subtable" ein.init dx=65 dy=0 dh=65 dv=0 dx=0 dy=0 dh=0 dv=0
PairPos2: "'kern' Horizontal Kerning in Arabic lookup 0 subtable" uniFEC9 dx=65 dy=0 dh=65 dv=0 dx=0 dy=0 dh=0 dv=0
PairPos2: "'kern' Horizontal Kerning in Arabic lookup 0 subtable" za.init dx=65 dy=0 dh=65 dv=0 dx=0 dy=0 dh=0 dv=0
PairPos2: "'kern' Horizontal Kerning in Arabic lookup 0 subtable" uniFEC5 dx=65 dy=0 dh=65 dv=0 dx=0 dy=0 dh=0 dv=0
PairPos2: "'kern' Horizontal Kerning in Arabic lookup 0 subtable" ta.init dx=65 dy=0 dh=65 dv=0 dx=0 dy=0 dh=0 dv=0
PairPos2: "'kern' Horizontal Kerning in Arabic lookup 0 subtable" uniFEC1 dx=65 dy=0 dh=65 dv=0 dx=0 dy=0 dh=0 dv=0
PairPos2: "'kern' Horizontal Kerning in Arabic lookup 0 subtable" zad.init dx=65 dy=0 dh=65 dv=0 dx=0 dy=0 dh=0 dv=0
PairPos2: "'kern' Horizontal Kerning in Arabic lookup 0 subtable" uniFEBD dx=65 dy=0 dh=65 dv=0 dx=0 dy=0 dh=0 dv=0
PairPos2: "'kern' Horizontal Kerning in Arabic lookup 0 subtable" sad.init dx=65 dy=0 dh=65 dv=0 dx=0 dy=0 dh=0 dv=0
PairPos2: "'kern' Horizontal Kerning in Arabic lookup 0 subtable" uniFEB9 dx=65 dy=0 dh=65 dv=0 dx=0 dy=0 dh=0 dv=0
PairPos2: "'kern' Horizontal Kerning in Arabic lookup 0 subtable" shin.init dx=65 dy=0 dh=65 dv=0 dx=0 dy=0 dh=0 dv=0
PairPos2: "'kern' Horizontal Kerning in Arabic lookup 0 subtable" uniFEB5 dx=65 dy=0 dh=65 dv=0 dx=0 dy=0 dh=0 dv=0
PairPos2: "'kern' Horizontal Kerning in Arabic lookup 0 subtable" sin.init dx=65 dy=0 dh=65 dv=0 dx=0 dy=0 dh=0 dv=0
PairPos2: "'kern' Horizontal Kerning in Arabic lookup 0 subtable" uniFEB1 dx=65 dy=0 dh=65 dv=0 dx=0 dy=0 dh=0 dv=0
PairPos2: "'kern' Horizontal Kerning in Arabic lookup 0 subtable" uniFEAF dx=65 dy=0 dh=65 dv=0 dx=0 dy=0 dh=0 dv=0
PairPos2: "'kern' Horizontal Kerning in Arabic lookup 0 subtable" uniFEAD dx=65 dy=0 dh=65 dv=0 dx=0 dy=0 dh=0 dv=0
PairPos2: "'kern' Horizontal Kerning in Arabic lookup 0 subtable" uniFEAB dx=65 dy=0 dh=65 dv=0 dx=0 dy=0 dh=0 dv=0
PairPos2: "'kern' Horizontal Kerning in Arabic lookup 0 subtable" uniFEA9 dx=65 dy=0 dh=65 dv=0 dx=0 dy=0 dh=0 dv=0
PairPos2: "'kern' Horizontal Kerning in Arabic lookup 0 subtable" khe.init dx=65 dy=0 dh=65 dv=0 dx=0 dy=0 dh=0 dv=0
PairPos2: "'kern' Horizontal Kerning in Arabic lookup 0 subtable" uniFEA5 dx=65 dy=0 dh=65 dv=0 dx=0 dy=0 dh=0 dv=0
PairPos2: "'kern' Horizontal Kerning in Arabic lookup 0 subtable" him.init dx=65 dy=0 dh=65 dv=0 dx=0 dy=0 dh=0 dv=0
PairPos2: "'kern' Horizontal Kerning in Arabic lookup 0 subtable" uniFEA1 dx=65 dy=0 dh=65 dv=0 dx=0 dy=0 dh=0 dv=0
PairPos2: "'kern' Horizontal Kerning in Arabic lookup 0 subtable" jim.init dx=65 dy=0 dh=65 dv=0 dx=0 dy=0 dh=0 dv=0
PairPos2: "'kern' Horizontal Kerning in Arabic lookup 0 subtable" uniFE9D dx=65 dy=0 dh=65 dv=0 dx=0 dy=0 dh=0 dv=0
PairPos2: "'kern' Horizontal Kerning in Arabic lookup 0 subtable" the.init dx=65 dy=0 dh=65 dv=0 dx=0 dy=0 dh=0 dv=0
PairPos2: "'kern' Horizontal Kerning in Arabic lookup 0 subtable" te.init dx=65 dy=0 dh=65 dv=0 dx=0 dy=0 dh=0 dv=0
PairPos2: "'kern' Horizontal Kerning in Arabic lookup 0 subtable" uniFE95 dx=65 dy=0 dh=65 dv=0 dx=0 dy=0 dh=0 dv=0
PairPos2: "'kern' Horizontal Kerning in Arabic lookup 0 subtable" uniFE93 dx=65 dy=0 dh=65 dv=0 dx=0 dy=0 dh=0 dv=0
PairPos2: "'kern' Horizontal Kerning in Arabic lookup 0 subtable" uniFE8D dx=65 dy=0 dh=65 dv=0 dx=0 dy=0 dh=0 dv=0
PairPos2: "'kern' Horizontal Kerning in Arabic lookup 0 subtable" ye.hamze.init dx=65 dy=0 dh=65 dv=0 dx=0 dy=0 dh=0 dv=0
PairPos2: "'kern' Horizontal Kerning in Arabic lookup 0 subtable" uniFE83 dx=65 dy=0 dh=65 dv=0 dx=0 dy=0 dh=0 dv=0
PairPos2: "'kern' Horizontal Kerning in Arabic lookup 0 subtable" uniFE81 dx=65 dy=0 dh=65 dv=0 dx=0 dy=0 dh=0 dv=0
PairPos2: "'kern' Horizontal Kerning in Arabic lookup 0 subtable" uniFE80 dx=65 dy=0 dh=65 dv=0 dx=0 dy=0 dh=0 dv=0
PairPos2: "'kern' Horizontal Kerning in Arabic lookup 0 subtable" uniFD3D dx=65 dy=0 dh=65 dv=0 dx=0 dy=0 dh=0 dv=0
PairPos2: "'kern' Horizontal Kerning in Arabic lookup 0 subtable" uniFBE8 dx=65 dy=0 dh=65 dv=0 dx=0 dy=0 dh=0 dv=0
PairPos2: "'kern' Horizontal Kerning in Arabic lookup 0 subtable" heye dx=65 dy=0 dh=65 dv=0 dx=0 dy=0 dh=0 dv=0
PairPos2: "'kern' Horizontal Kerning in Arabic lookup 0 subtable" gaf.init dx=48 dy=0 dh=48 dv=0 dx=0 dy=0 dh=0 dv=0
PairPos2: "'kern' Horizontal Kerning in Arabic lookup 0 subtable" uniFB92 dx=48 dy=0 dh=48 dv=0 dx=0 dy=0 dh=0 dv=0
PairPos2: "'kern' Horizontal Kerning in Arabic lookup 0 subtable" kaf.init dx=48 dy=0 dh=48 dv=0 dx=0 dy=0 dh=0 dv=0
PairPos2: "'kern' Horizontal Kerning in Arabic lookup 0 subtable" uniFB8E dx=48 dy=0 dh=48 dv=0 dx=0 dy=0 dh=0 dv=0
PairPos2: "'kern' Horizontal Kerning in Arabic lookup 0 subtable" uniFB8A dx=65 dy=0 dh=65 dv=0 dx=0 dy=0 dh=0 dv=0
PairPos2: "'kern' Horizontal Kerning in Arabic lookup 0 subtable" che.init dx=65 dy=0 dh=65 dv=0 dx=0 dy=0 dh=0 dv=0
PairPos2: "'kern' Horizontal Kerning in Arabic lookup 0 subtable" uniFB7A dx=65 dy=0 dh=65 dv=0 dx=0 dy=0 dh=0 dv=0
PairPos2: "'kern' Horizontal Kerning in Arabic lookup 0 subtable" uniFB6C dx=65 dy=0 dh=65 dv=0 dx=0 dy=0 dh=0 dv=0
PairPos2: "'kern' Horizontal Kerning in Arabic lookup 0 subtable" uniFB6A dx=65 dy=0 dh=65 dv=0 dx=0 dy=0 dh=0 dv=0
PairPos2: "'kern' Horizontal Kerning in Arabic lookup 0 subtable" uniFB56 dx=65 dy=0 dh=65 dv=0 dx=0 dy=0 dh=0 dv=0
PairPos2: "'kern' Horizontal Kerning in Arabic lookup 0 subtable" uniFB50 dx=65 dy=0 dh=65 dv=0 dx=0 dy=0 dh=0 dv=0
EndChar

StartChar: uniFB6B
Encoding: 64363 64363 153
Width: 884
GlyphClass: 2
Flags: W
AnchorPoint: "Anchor-1" 125 -87 basechar 0
AnchorPoint: "Anchor-0" 213 451 basechar 0
LayerCount: 2
Fore
SplineSet
689 483 m 1
 605 483 l 1
 605 566 l 1
 689 566 l 1
 689 483 l 1
820 483 m 1
 736 483 l 1
 736 566 l 1
 820 566 l 1
 820 483 l 1
754 610 m 1
 670 610 l 1
 670 694 l 1
 754 694 l 1
 754 610 l 1
122 154 m 0
 122 95 203 65 366 65 c 0
 446 65 530 76 617 98 c 1
 594 124 582 158 582 202 c 0
 582 246 608 288 661 326 c 0
 684 342 706 351 729 351 c 0
 752 351 774 337 796 307 c 0
 818 277 829 244 829 207 c 0
 829 170 809 132 771 95 c 1
 811 85 850 80 887 80 c 1
 887 0 l 1
 814 0 748 14 692 43 c 1
 605 5 491 -15 349 -15 c 2
 345 -15 l 2
 261 -15 193 -3 139 25 c 0
 85 53 57 96 57 152 c 0
 57 200 71 257 96 324 c 1
 161 311 l 1
 157 299 150 275 139 243 c 0
 128 211 122 182 122 154 c 0
694 130 m 1
 741 159 764 184 764 208 c 0
 764 223 760 238 751 251 c 0
 742 264 735 272 726 272 c 0
 708 272 691 262 673 246 c 0
 655 230 647 215 647 200 c 0
 647 185 650 172 658 162 c 0
 666 152 678 141 694 130 c 1
EndSplineSet
PairPos2: "'kern' Horizontal Kerning in Arabic lookup 0 subtable" gaf_ye.farsi.isol dx=48 dy=0 dh=48 dv=0 dx=0 dy=0 dh=0 dv=0
PairPos2: "'kern' Horizontal Kerning in Arabic lookup 0 subtable" kaf.farsi_ye.farsi.isol dx=48 dy=0 dh=48 dv=0 dx=0 dy=0 dh=0 dv=0
PairPos2: "'kern' Horizontal Kerning in Arabic lookup 0 subtable" lam_ye.farsi.isol dx=65 dy=0 dh=65 dv=0 dx=0 dy=0 dh=0 dv=0
PairPos2: "'kern' Horizontal Kerning in Arabic lookup 0 subtable" mim_ye.farsi.isol dx=65 dy=0 dh=65 dv=0 dx=0 dy=0 dh=0 dv=0
PairPos2: "'kern' Horizontal Kerning in Arabic lookup 0 subtable" zad_ye.farsi.isol dx=65 dy=0 dh=65 dv=0 dx=0 dy=0 dh=0 dv=0
PairPos2: "'kern' Horizontal Kerning in Arabic lookup 0 subtable" shin_ye.farsi.isol dx=65 dy=0 dh=65 dv=0 dx=0 dy=0 dh=0 dv=0
PairPos2: "'kern' Horizontal Kerning in Arabic lookup 0 subtable" sad_ye.farsi.isol dx=65 dy=0 dh=65 dv=0 dx=0 dy=0 dh=0 dv=0
PairPos2: "'kern' Horizontal Kerning in Arabic lookup 0 subtable" sin_ye.farsi.isol dx=65 dy=0 dh=65 dv=0 dx=0 dy=0 dh=0 dv=0
PairPos2: "'kern' Horizontal Kerning in Arabic lookup 0 subtable" uniFEFB_earab.tanvin_fatheh dx=65 dy=0 dh=65 dv=0 dx=0 dy=0 dh=0 dv=0
PairPos2: "'kern' Horizontal Kerning in Arabic lookup 0 subtable" he8_uni0654.init dx=65 dy=0 dh=65 dv=0 dx=0 dy=0 dh=0 dv=0
PairPos2: "'kern' Horizontal Kerning in Arabic lookup 0 subtable" he8_uni0654.isol dx=65 dy=0 dh=65 dv=0 dx=0 dy=0 dh=0 dv=0
PairPos2: "'kern' Horizontal Kerning in Arabic lookup 0 subtable" uniFEFB dx=65 dy=0 dh=65 dv=0 dx=0 dy=0 dh=0 dv=0
PairPos2: "'kern' Horizontal Kerning in Arabic lookup 0 subtable" uniFEF7 dx=65 dy=0 dh=65 dv=0 dx=0 dy=0 dh=0 dv=0
PairPos2: "'kern' Horizontal Kerning in Arabic lookup 0 subtable" uniFEF5 dx=65 dy=0 dh=65 dv=0 dx=0 dy=0 dh=0 dv=0
PairPos2: "'kern' Horizontal Kerning in Arabic lookup 0 subtable" uniFEED dx=65 dy=0 dh=65 dv=0 dx=0 dy=0 dh=0 dv=0
PairPos2: "'kern' Horizontal Kerning in Arabic lookup 0 subtable" he8.init dx=65 dy=0 dh=65 dv=0 dx=0 dy=0 dh=0 dv=0
PairPos2: "'kern' Horizontal Kerning in Arabic lookup 0 subtable" uniFEE9 dx=65 dy=0 dh=65 dv=0 dx=0 dy=0 dh=0 dv=0
PairPos2: "'kern' Horizontal Kerning in Arabic lookup 0 subtable" nun.init dx=65 dy=0 dh=65 dv=0 dx=0 dy=0 dh=0 dv=0
PairPos2: "'kern' Horizontal Kerning in Arabic lookup 0 subtable" mim.init dx=65 dy=0 dh=65 dv=0 dx=0 dy=0 dh=0 dv=0
PairPos2: "'kern' Horizontal Kerning in Arabic lookup 0 subtable" uniFEE1 dx=65 dy=0 dh=65 dv=0 dx=0 dy=0 dh=0 dv=0
PairPos2: "'kern' Horizontal Kerning in Arabic lookup 0 subtable" lam.init dx=65 dy=0 dh=65 dv=0 dx=0 dy=0 dh=0 dv=0
PairPos2: "'kern' Horizontal Kerning in Arabic lookup 0 subtable" uniFEDD dx=65 dy=0 dh=65 dv=0 dx=0 dy=0 dh=0 dv=0
PairPos2: "'kern' Horizontal Kerning in Arabic lookup 0 subtable" uniFEDB dx=48 dy=0 dh=48 dv=0 dx=0 dy=0 dh=0 dv=0
PairPos2: "'kern' Horizontal Kerning in Arabic lookup 0 subtable" uniFED9 dx=65 dy=0 dh=65 dv=0 dx=0 dy=0 dh=0 dv=0
PairPos2: "'kern' Horizontal Kerning in Arabic lookup 0 subtable" qaf.init dx=65 dy=0 dh=65 dv=0 dx=0 dy=0 dh=0 dv=0
PairPos2: "'kern' Horizontal Kerning in Arabic lookup 0 subtable" fe.init dx=65 dy=0 dh=65 dv=0 dx=0 dy=0 dh=0 dv=0
PairPos2: "'kern' Horizontal Kerning in Arabic lookup 0 subtable" uniFED1 dx=65 dy=0 dh=65 dv=0 dx=0 dy=0 dh=0 dv=0
PairPos2: "'kern' Horizontal Kerning in Arabic lookup 0 subtable" qein.init dx=65 dy=0 dh=65 dv=0 dx=0 dy=0 dh=0 dv=0
PairPos2: "'kern' Horizontal Kerning in Arabic lookup 0 subtable" uniFECD dx=65 dy=0 dh=65 dv=0 dx=0 dy=0 dh=0 dv=0
PairPos2: "'kern' Horizontal Kerning in Arabic lookup 0 subtable" ein.init dx=65 dy=0 dh=65 dv=0 dx=0 dy=0 dh=0 dv=0
PairPos2: "'kern' Horizontal Kerning in Arabic lookup 0 subtable" uniFEC9 dx=65 dy=0 dh=65 dv=0 dx=0 dy=0 dh=0 dv=0
PairPos2: "'kern' Horizontal Kerning in Arabic lookup 0 subtable" za.init dx=65 dy=0 dh=65 dv=0 dx=0 dy=0 dh=0 dv=0
PairPos2: "'kern' Horizontal Kerning in Arabic lookup 0 subtable" uniFEC5 dx=65 dy=0 dh=65 dv=0 dx=0 dy=0 dh=0 dv=0
PairPos2: "'kern' Horizontal Kerning in Arabic lookup 0 subtable" ta.init dx=65 dy=0 dh=65 dv=0 dx=0 dy=0 dh=0 dv=0
PairPos2: "'kern' Horizontal Kerning in Arabic lookup 0 subtable" uniFEC1 dx=65 dy=0 dh=65 dv=0 dx=0 dy=0 dh=0 dv=0
PairPos2: "'kern' Horizontal Kerning in Arabic lookup 0 subtable" zad.init dx=65 dy=0 dh=65 dv=0 dx=0 dy=0 dh=0 dv=0
PairPos2: "'kern' Horizontal Kerning in Arabic lookup 0 subtable" uniFEBD dx=65 dy=0 dh=65 dv=0 dx=0 dy=0 dh=0 dv=0
PairPos2: "'kern' Horizontal Kerning in Arabic lookup 0 subtable" sad.init dx=65 dy=0 dh=65 dv=0 dx=0 dy=0 dh=0 dv=0
PairPos2: "'kern' Horizontal Kerning in Arabic lookup 0 subtable" uniFEB9 dx=65 dy=0 dh=65 dv=0 dx=0 dy=0 dh=0 dv=0
PairPos2: "'kern' Horizontal Kerning in Arabic lookup 0 subtable" shin.init dx=65 dy=0 dh=65 dv=0 dx=0 dy=0 dh=0 dv=0
PairPos2: "'kern' Horizontal Kerning in Arabic lookup 0 subtable" uniFEB5 dx=65 dy=0 dh=65 dv=0 dx=0 dy=0 dh=0 dv=0
PairPos2: "'kern' Horizontal Kerning in Arabic lookup 0 subtable" sin.init dx=65 dy=0 dh=65 dv=0 dx=0 dy=0 dh=0 dv=0
PairPos2: "'kern' Horizontal Kerning in Arabic lookup 0 subtable" uniFEB1 dx=65 dy=0 dh=65 dv=0 dx=0 dy=0 dh=0 dv=0
PairPos2: "'kern' Horizontal Kerning in Arabic lookup 0 subtable" uniFEAF dx=65 dy=0 dh=65 dv=0 dx=0 dy=0 dh=0 dv=0
PairPos2: "'kern' Horizontal Kerning in Arabic lookup 0 subtable" uniFEAD dx=65 dy=0 dh=65 dv=0 dx=0 dy=0 dh=0 dv=0
PairPos2: "'kern' Horizontal Kerning in Arabic lookup 0 subtable" uniFEAB dx=65 dy=0 dh=65 dv=0 dx=0 dy=0 dh=0 dv=0
PairPos2: "'kern' Horizontal Kerning in Arabic lookup 0 subtable" uniFEA9 dx=65 dy=0 dh=65 dv=0 dx=0 dy=0 dh=0 dv=0
PairPos2: "'kern' Horizontal Kerning in Arabic lookup 0 subtable" khe.init dx=65 dy=0 dh=65 dv=0 dx=0 dy=0 dh=0 dv=0
PairPos2: "'kern' Horizontal Kerning in Arabic lookup 0 subtable" uniFEA5 dx=65 dy=0 dh=65 dv=0 dx=0 dy=0 dh=0 dv=0
PairPos2: "'kern' Horizontal Kerning in Arabic lookup 0 subtable" him.init dx=65 dy=0 dh=65 dv=0 dx=0 dy=0 dh=0 dv=0
PairPos2: "'kern' Horizontal Kerning in Arabic lookup 0 subtable" uniFEA1 dx=65 dy=0 dh=65 dv=0 dx=0 dy=0 dh=0 dv=0
PairPos2: "'kern' Horizontal Kerning in Arabic lookup 0 subtable" jim.init dx=65 dy=0 dh=65 dv=0 dx=0 dy=0 dh=0 dv=0
PairPos2: "'kern' Horizontal Kerning in Arabic lookup 0 subtable" uniFE9D dx=65 dy=0 dh=65 dv=0 dx=0 dy=0 dh=0 dv=0
PairPos2: "'kern' Horizontal Kerning in Arabic lookup 0 subtable" the.init dx=65 dy=0 dh=65 dv=0 dx=0 dy=0 dh=0 dv=0
PairPos2: "'kern' Horizontal Kerning in Arabic lookup 0 subtable" te.init dx=65 dy=0 dh=65 dv=0 dx=0 dy=0 dh=0 dv=0
PairPos2: "'kern' Horizontal Kerning in Arabic lookup 0 subtable" uniFE95 dx=65 dy=0 dh=65 dv=0 dx=0 dy=0 dh=0 dv=0
PairPos2: "'kern' Horizontal Kerning in Arabic lookup 0 subtable" uniFE93 dx=65 dy=0 dh=65 dv=0 dx=0 dy=0 dh=0 dv=0
PairPos2: "'kern' Horizontal Kerning in Arabic lookup 0 subtable" uniFE8D dx=65 dy=0 dh=65 dv=0 dx=0 dy=0 dh=0 dv=0
PairPos2: "'kern' Horizontal Kerning in Arabic lookup 0 subtable" ye.hamze.init dx=65 dy=0 dh=65 dv=0 dx=0 dy=0 dh=0 dv=0
PairPos2: "'kern' Horizontal Kerning in Arabic lookup 0 subtable" uniFE83 dx=65 dy=0 dh=65 dv=0 dx=0 dy=0 dh=0 dv=0
PairPos2: "'kern' Horizontal Kerning in Arabic lookup 0 subtable" uniFE81 dx=65 dy=0 dh=65 dv=0 dx=0 dy=0 dh=0 dv=0
PairPos2: "'kern' Horizontal Kerning in Arabic lookup 0 subtable" uniFE80 dx=65 dy=0 dh=65 dv=0 dx=0 dy=0 dh=0 dv=0
PairPos2: "'kern' Horizontal Kerning in Arabic lookup 0 subtable" uniFD3D dx=65 dy=0 dh=65 dv=0 dx=0 dy=0 dh=0 dv=0
PairPos2: "'kern' Horizontal Kerning in Arabic lookup 0 subtable" uniFBE8 dx=65 dy=0 dh=65 dv=0 dx=0 dy=0 dh=0 dv=0
PairPos2: "'kern' Horizontal Kerning in Arabic lookup 0 subtable" heye dx=65 dy=0 dh=65 dv=0 dx=0 dy=0 dh=0 dv=0
PairPos2: "'kern' Horizontal Kerning in Arabic lookup 0 subtable" gaf.init dx=48 dy=0 dh=48 dv=0 dx=0 dy=0 dh=0 dv=0
PairPos2: "'kern' Horizontal Kerning in Arabic lookup 0 subtable" uniFB92 dx=48 dy=0 dh=48 dv=0 dx=0 dy=0 dh=0 dv=0
PairPos2: "'kern' Horizontal Kerning in Arabic lookup 0 subtable" kaf.init dx=48 dy=0 dh=48 dv=0 dx=0 dy=0 dh=0 dv=0
PairPos2: "'kern' Horizontal Kerning in Arabic lookup 0 subtable" uniFB8E dx=48 dy=0 dh=48 dv=0 dx=0 dy=0 dh=0 dv=0
PairPos2: "'kern' Horizontal Kerning in Arabic lookup 0 subtable" uniFB8A dx=65 dy=0 dh=65 dv=0 dx=0 dy=0 dh=0 dv=0
PairPos2: "'kern' Horizontal Kerning in Arabic lookup 0 subtable" che.init dx=65 dy=0 dh=65 dv=0 dx=0 dy=0 dh=0 dv=0
PairPos2: "'kern' Horizontal Kerning in Arabic lookup 0 subtable" uniFB7A dx=65 dy=0 dh=65 dv=0 dx=0 dy=0 dh=0 dv=0
PairPos2: "'kern' Horizontal Kerning in Arabic lookup 0 subtable" uniFB6C dx=65 dy=0 dh=65 dv=0 dx=0 dy=0 dh=0 dv=0
PairPos2: "'kern' Horizontal Kerning in Arabic lookup 0 subtable" uniFB6A dx=65 dy=0 dh=65 dv=0 dx=0 dy=0 dh=0 dv=0
PairPos2: "'kern' Horizontal Kerning in Arabic lookup 0 subtable" uniFB56 dx=65 dy=0 dh=65 dv=0 dx=0 dy=0 dh=0 dv=0
PairPos2: "'kern' Horizontal Kerning in Arabic lookup 0 subtable" uniFB50 dx=65 dy=0 dh=65 dv=0 dx=0 dy=0 dh=0 dv=0
EndChar

StartChar: uniFB6C
Encoding: 64364 64364 154
Width: 374
GlyphClass: 2
Flags: W
AnchorPoint: "Anchor-1" 125 -87 basechar 0
AnchorPoint: "Anchor-0" 95 684 basechar 0
LayerCount: 2
Fore
SplineSet
155 515 m 1
 72 515 l 1
 72 598 l 1
 155 598 l 1
 155 515 l 1
286 515 m 1
 202 515 l 1
 202 598 l 1
 286 598 l 1
 286 515 l 1
220 642 m 1
 136 642 l 1
 136 726 l 1
 220 726 l 1
 220 642 l 1
197 162 m 0
 105 162 58 196 58 262 c 0
 58 302 69 340 90 378 c 0
 111 416 137 436 170 436 c 0
 203 436 238 418 273 382 c 0
 308 346 324 294 324 227 c 0
 324 131 312 72 283 50 c 0
 240 17 156 0 28 0 c 2
 0 0 l 2
 -10 0 -20 3 -30 6 c 1
 -30 80 l 1
 28 80 l 2
 102 80 153 84 184 92 c 0
 215 100 232 108 236 112 c 0
 240 116 246 122 249 129 c 0
 252 136 255 150 258 172 c 1
 240 165 220 162 197 162 c 0
122 262 m 0
 122 250 147 243 197 243 c 0
 220 243 239 247 258 255 c 1
 248 303 227 335 192 350 c 0
 183 354 175 356 168 356 c 0
 161 356 156 354 153 350 c 0
 133 326 122 297 122 262 c 0
EndSplineSet
EndChar

StartChar: uniFB6D
Encoding: 64365 64365 155
Width: 374
GlyphClass: 2
Flags: W
AnchorPoint: "Anchor-1" 125 -87 basechar 0
AnchorPoint: "Anchor-0" 113 609 basechar 0
LayerCount: 2
Fore
SplineSet
167 483 m 1
 84 483 l 1
 84 566 l 1
 167 566 l 1
 167 483 l 1
298 483 m 1
 214 483 l 1
 214 566 l 1
 298 566 l 1
 298 483 l 1
232 610 m 1
 148 610 l 1
 148 694 l 1
 232 694 l 1
 232 610 l 1
187 125 m 1
 230 150 251 179 251 209 c 0
 251 222 247 236 238 250 c 0
 229 264 219 271 210 271 c 0
 194 271 178 261 160 246 c 0
 142 231 132 214 132 199 c 0
 132 184 137 172 146 161 c 0
 155 150 168 137 187 125 c 1
258 95 m 1
 296 86 335 80 376 80 c 1
 376 0 l 1
 301 0 237 14 182 40 c 1
 129 14 76 0 21 0 c 2
 0 0 l 2
 -10 0 -20 3 -30 6 c 1
 -30 80 l 1
 21 80 l 2
 51 80 79 84 108 92 c 1
 80 121 67 155 67 192 c 0
 67 229 84 266 117 300 c 0
 150 334 181 351 207 351 c 0
 233 351 258 337 280 308 c 0
 303 278 315 244 315 206 c 0
 315 169 295 131 258 95 c 1
EndSplineSet
EndChar

StartChar: uniFB7A
Encoding: 64378 64378 156
Width: 631
GlyphClass: 2
Flags: W
AnchorPoint: "Anchor-1" 135 -238 basechar 0
AnchorPoint: "Anchor-0" 152 539 basechar 0
LayerCount: 2
Fore
SplineSet
336 48 m 1
 260 48 l 1
 260 123 l 1
 336 123 l 1
 336 48 l 1
452 48 m 1
 377 48 l 1
 377 123 l 1
 452 123 l 1
 452 48 l 1
394 -66 m 1
 319 -66 l 1
 319 9 l 1
 394 9 l 1
 394 -66 l 1
58 16 m 0
 58 130 144 218 314 280 c 1
 206 340 l 2
 188 348 177 352 170 352 c 0
 163 352 160 350 154 343 c 2
 97 280 l 1
 58 319 l 1
 107 397 l 2
 110 401 114 406 117 410 c 0
 120 414 127 419 136 425 c 0
 145 431 158 433 172 433 c 0
 186 433 207 425 235 411 c 2
 374 337 l 2
 399 325 433 319 474 319 c 0
 485 319 495 318 504 318 c 2
 564 318 l 1
 564 238 l 1
 510 238 l 2
 438 238 364 222 287 191 c 0
 179 148 125 93 125 21 c 0
 125 -51 157 -98 223 -120 c 0
 248 -129 280 -133 314 -133 c 0
 400 -133 472 -125 531 -107 c 1
 548 -174 l 1
 471 -200 393 -213 314 -213 c 2
 312 -213 l 2
 179 -213 97 -162 68 -60 c 0
 60 -36 58 -10 58 16 c 0
EndSplineSet
PairPos2: "'kern' Horizontal Kerning in Arabic lookup 0 subtable" gaf_ye.farsi.isol dx=48 dy=0 dh=48 dv=0 dx=0 dy=0 dh=0 dv=0
PairPos2: "'kern' Horizontal Kerning in Arabic lookup 0 subtable" kaf.farsi_ye.farsi.isol dx=48 dy=0 dh=48 dv=0 dx=0 dy=0 dh=0 dv=0
PairPos2: "'kern' Horizontal Kerning in Arabic lookup 0 subtable" lam_ye.farsi.isol dx=65 dy=0 dh=65 dv=0 dx=0 dy=0 dh=0 dv=0
PairPos2: "'kern' Horizontal Kerning in Arabic lookup 0 subtable" mim_ye.farsi.isol dx=65 dy=0 dh=65 dv=0 dx=0 dy=0 dh=0 dv=0
PairPos2: "'kern' Horizontal Kerning in Arabic lookup 0 subtable" zad_ye.farsi.isol dx=65 dy=0 dh=65 dv=0 dx=0 dy=0 dh=0 dv=0
PairPos2: "'kern' Horizontal Kerning in Arabic lookup 0 subtable" shin_ye.farsi.isol dx=65 dy=0 dh=65 dv=0 dx=0 dy=0 dh=0 dv=0
PairPos2: "'kern' Horizontal Kerning in Arabic lookup 0 subtable" sad_ye.farsi.isol dx=65 dy=0 dh=65 dv=0 dx=0 dy=0 dh=0 dv=0
PairPos2: "'kern' Horizontal Kerning in Arabic lookup 0 subtable" sin_ye.farsi.isol dx=65 dy=0 dh=65 dv=0 dx=0 dy=0 dh=0 dv=0
PairPos2: "'kern' Horizontal Kerning in Arabic lookup 0 subtable" uniFEFB_earab.tanvin_fatheh dx=65 dy=0 dh=65 dv=0 dx=0 dy=0 dh=0 dv=0
PairPos2: "'kern' Horizontal Kerning in Arabic lookup 0 subtable" he8_uni0654.init dx=65 dy=0 dh=65 dv=0 dx=0 dy=0 dh=0 dv=0
PairPos2: "'kern' Horizontal Kerning in Arabic lookup 0 subtable" he8_uni0654.isol dx=65 dy=0 dh=65 dv=0 dx=0 dy=0 dh=0 dv=0
PairPos2: "'kern' Horizontal Kerning in Arabic lookup 0 subtable" uniFEFB dx=65 dy=0 dh=65 dv=0 dx=0 dy=0 dh=0 dv=0
PairPos2: "'kern' Horizontal Kerning in Arabic lookup 0 subtable" uniFEF7 dx=65 dy=0 dh=65 dv=0 dx=0 dy=0 dh=0 dv=0
PairPos2: "'kern' Horizontal Kerning in Arabic lookup 0 subtable" uniFEF5 dx=65 dy=0 dh=65 dv=0 dx=0 dy=0 dh=0 dv=0
PairPos2: "'kern' Horizontal Kerning in Arabic lookup 0 subtable" uniFEED dx=65 dy=0 dh=65 dv=0 dx=0 dy=0 dh=0 dv=0
PairPos2: "'kern' Horizontal Kerning in Arabic lookup 0 subtable" he8.init dx=65 dy=0 dh=65 dv=0 dx=0 dy=0 dh=0 dv=0
PairPos2: "'kern' Horizontal Kerning in Arabic lookup 0 subtable" uniFEE9 dx=65 dy=0 dh=65 dv=0 dx=0 dy=0 dh=0 dv=0
PairPos2: "'kern' Horizontal Kerning in Arabic lookup 0 subtable" nun.init dx=65 dy=0 dh=65 dv=0 dx=0 dy=0 dh=0 dv=0
PairPos2: "'kern' Horizontal Kerning in Arabic lookup 0 subtable" mim.init dx=65 dy=0 dh=65 dv=0 dx=0 dy=0 dh=0 dv=0
PairPos2: "'kern' Horizontal Kerning in Arabic lookup 0 subtable" uniFEE1 dx=65 dy=0 dh=65 dv=0 dx=0 dy=0 dh=0 dv=0
PairPos2: "'kern' Horizontal Kerning in Arabic lookup 0 subtable" lam.init dx=65 dy=0 dh=65 dv=0 dx=0 dy=0 dh=0 dv=0
PairPos2: "'kern' Horizontal Kerning in Arabic lookup 0 subtable" uniFEDD dx=65 dy=0 dh=65 dv=0 dx=0 dy=0 dh=0 dv=0
PairPos2: "'kern' Horizontal Kerning in Arabic lookup 0 subtable" uniFEDB dx=48 dy=0 dh=48 dv=0 dx=0 dy=0 dh=0 dv=0
PairPos2: "'kern' Horizontal Kerning in Arabic lookup 0 subtable" uniFED9 dx=65 dy=0 dh=65 dv=0 dx=0 dy=0 dh=0 dv=0
PairPos2: "'kern' Horizontal Kerning in Arabic lookup 0 subtable" qaf.init dx=65 dy=0 dh=65 dv=0 dx=0 dy=0 dh=0 dv=0
PairPos2: "'kern' Horizontal Kerning in Arabic lookup 0 subtable" fe.init dx=65 dy=0 dh=65 dv=0 dx=0 dy=0 dh=0 dv=0
PairPos2: "'kern' Horizontal Kerning in Arabic lookup 0 subtable" uniFED1 dx=65 dy=0 dh=65 dv=0 dx=0 dy=0 dh=0 dv=0
PairPos2: "'kern' Horizontal Kerning in Arabic lookup 0 subtable" qein.init dx=65 dy=0 dh=65 dv=0 dx=0 dy=0 dh=0 dv=0
PairPos2: "'kern' Horizontal Kerning in Arabic lookup 0 subtable" uniFECD dx=65 dy=0 dh=65 dv=0 dx=0 dy=0 dh=0 dv=0
PairPos2: "'kern' Horizontal Kerning in Arabic lookup 0 subtable" ein.init dx=65 dy=0 dh=65 dv=0 dx=0 dy=0 dh=0 dv=0
PairPos2: "'kern' Horizontal Kerning in Arabic lookup 0 subtable" uniFEC9 dx=65 dy=0 dh=65 dv=0 dx=0 dy=0 dh=0 dv=0
PairPos2: "'kern' Horizontal Kerning in Arabic lookup 0 subtable" za.init dx=65 dy=0 dh=65 dv=0 dx=0 dy=0 dh=0 dv=0
PairPos2: "'kern' Horizontal Kerning in Arabic lookup 0 subtable" uniFEC5 dx=65 dy=0 dh=65 dv=0 dx=0 dy=0 dh=0 dv=0
PairPos2: "'kern' Horizontal Kerning in Arabic lookup 0 subtable" ta.init dx=65 dy=0 dh=65 dv=0 dx=0 dy=0 dh=0 dv=0
PairPos2: "'kern' Horizontal Kerning in Arabic lookup 0 subtable" uniFEC1 dx=65 dy=0 dh=65 dv=0 dx=0 dy=0 dh=0 dv=0
PairPos2: "'kern' Horizontal Kerning in Arabic lookup 0 subtable" zad.init dx=65 dy=0 dh=65 dv=0 dx=0 dy=0 dh=0 dv=0
PairPos2: "'kern' Horizontal Kerning in Arabic lookup 0 subtable" uniFEBD dx=65 dy=0 dh=65 dv=0 dx=0 dy=0 dh=0 dv=0
PairPos2: "'kern' Horizontal Kerning in Arabic lookup 0 subtable" sad.init dx=65 dy=0 dh=65 dv=0 dx=0 dy=0 dh=0 dv=0
PairPos2: "'kern' Horizontal Kerning in Arabic lookup 0 subtable" uniFEB9 dx=65 dy=0 dh=65 dv=0 dx=0 dy=0 dh=0 dv=0
PairPos2: "'kern' Horizontal Kerning in Arabic lookup 0 subtable" shin.init dx=65 dy=0 dh=65 dv=0 dx=0 dy=0 dh=0 dv=0
PairPos2: "'kern' Horizontal Kerning in Arabic lookup 0 subtable" uniFEB5 dx=65 dy=0 dh=65 dv=0 dx=0 dy=0 dh=0 dv=0
PairPos2: "'kern' Horizontal Kerning in Arabic lookup 0 subtable" sin.init dx=65 dy=0 dh=65 dv=0 dx=0 dy=0 dh=0 dv=0
PairPos2: "'kern' Horizontal Kerning in Arabic lookup 0 subtable" uniFEB1 dx=65 dy=0 dh=65 dv=0 dx=0 dy=0 dh=0 dv=0
PairPos2: "'kern' Horizontal Kerning in Arabic lookup 0 subtable" uniFEAF dx=65 dy=0 dh=65 dv=0 dx=0 dy=0 dh=0 dv=0
PairPos2: "'kern' Horizontal Kerning in Arabic lookup 0 subtable" uniFEAD dx=65 dy=0 dh=65 dv=0 dx=0 dy=0 dh=0 dv=0
PairPos2: "'kern' Horizontal Kerning in Arabic lookup 0 subtable" uniFEAB dx=65 dy=0 dh=65 dv=0 dx=0 dy=0 dh=0 dv=0
PairPos2: "'kern' Horizontal Kerning in Arabic lookup 0 subtable" uniFEA9 dx=65 dy=0 dh=65 dv=0 dx=0 dy=0 dh=0 dv=0
PairPos2: "'kern' Horizontal Kerning in Arabic lookup 0 subtable" khe.init dx=65 dy=0 dh=65 dv=0 dx=0 dy=0 dh=0 dv=0
PairPos2: "'kern' Horizontal Kerning in Arabic lookup 0 subtable" uniFEA5 dx=65 dy=0 dh=65 dv=0 dx=0 dy=0 dh=0 dv=0
PairPos2: "'kern' Horizontal Kerning in Arabic lookup 0 subtable" him.init dx=65 dy=0 dh=65 dv=0 dx=0 dy=0 dh=0 dv=0
PairPos2: "'kern' Horizontal Kerning in Arabic lookup 0 subtable" uniFEA1 dx=65 dy=0 dh=65 dv=0 dx=0 dy=0 dh=0 dv=0
PairPos2: "'kern' Horizontal Kerning in Arabic lookup 0 subtable" jim.init dx=65 dy=0 dh=65 dv=0 dx=0 dy=0 dh=0 dv=0
PairPos2: "'kern' Horizontal Kerning in Arabic lookup 0 subtable" uniFE9D dx=65 dy=0 dh=65 dv=0 dx=0 dy=0 dh=0 dv=0
PairPos2: "'kern' Horizontal Kerning in Arabic lookup 0 subtable" the.init dx=65 dy=0 dh=65 dv=0 dx=0 dy=0 dh=0 dv=0
PairPos2: "'kern' Horizontal Kerning in Arabic lookup 0 subtable" te.init dx=65 dy=0 dh=65 dv=0 dx=0 dy=0 dh=0 dv=0
PairPos2: "'kern' Horizontal Kerning in Arabic lookup 0 subtable" uniFE95 dx=65 dy=0 dh=65 dv=0 dx=0 dy=0 dh=0 dv=0
PairPos2: "'kern' Horizontal Kerning in Arabic lookup 0 subtable" uniFE93 dx=65 dy=0 dh=65 dv=0 dx=0 dy=0 dh=0 dv=0
PairPos2: "'kern' Horizontal Kerning in Arabic lookup 0 subtable" uniFE8D dx=65 dy=0 dh=65 dv=0 dx=0 dy=0 dh=0 dv=0
PairPos2: "'kern' Horizontal Kerning in Arabic lookup 0 subtable" ye.hamze.init dx=65 dy=0 dh=65 dv=0 dx=0 dy=0 dh=0 dv=0
PairPos2: "'kern' Horizontal Kerning in Arabic lookup 0 subtable" uniFE83 dx=65 dy=0 dh=65 dv=0 dx=0 dy=0 dh=0 dv=0
PairPos2: "'kern' Horizontal Kerning in Arabic lookup 0 subtable" uniFE81 dx=65 dy=0 dh=65 dv=0 dx=0 dy=0 dh=0 dv=0
PairPos2: "'kern' Horizontal Kerning in Arabic lookup 0 subtable" uniFE80 dx=65 dy=0 dh=65 dv=0 dx=0 dy=0 dh=0 dv=0
PairPos2: "'kern' Horizontal Kerning in Arabic lookup 0 subtable" uniFD3D dx=65 dy=0 dh=65 dv=0 dx=0 dy=0 dh=0 dv=0
PairPos2: "'kern' Horizontal Kerning in Arabic lookup 0 subtable" uniFBE8 dx=65 dy=0 dh=65 dv=0 dx=0 dy=0 dh=0 dv=0
PairPos2: "'kern' Horizontal Kerning in Arabic lookup 0 subtable" heye dx=65 dy=0 dh=65 dv=0 dx=0 dy=0 dh=0 dv=0
PairPos2: "'kern' Horizontal Kerning in Arabic lookup 0 subtable" gaf.init dx=48 dy=0 dh=48 dv=0 dx=0 dy=0 dh=0 dv=0
PairPos2: "'kern' Horizontal Kerning in Arabic lookup 0 subtable" uniFB92 dx=48 dy=0 dh=48 dv=0 dx=0 dy=0 dh=0 dv=0
PairPos2: "'kern' Horizontal Kerning in Arabic lookup 0 subtable" kaf.init dx=48 dy=0 dh=48 dv=0 dx=0 dy=0 dh=0 dv=0
PairPos2: "'kern' Horizontal Kerning in Arabic lookup 0 subtable" uniFB8E dx=48 dy=0 dh=48 dv=0 dx=0 dy=0 dh=0 dv=0
PairPos2: "'kern' Horizontal Kerning in Arabic lookup 0 subtable" uniFB8A dx=65 dy=0 dh=65 dv=0 dx=0 dy=0 dh=0 dv=0
PairPos2: "'kern' Horizontal Kerning in Arabic lookup 0 subtable" che.init dx=65 dy=0 dh=65 dv=0 dx=0 dy=0 dh=0 dv=0
PairPos2: "'kern' Horizontal Kerning in Arabic lookup 0 subtable" uniFB7A dx=65 dy=0 dh=65 dv=0 dx=0 dy=0 dh=0 dv=0
PairPos2: "'kern' Horizontal Kerning in Arabic lookup 0 subtable" uniFB6C dx=65 dy=0 dh=65 dv=0 dx=0 dy=0 dh=0 dv=0
PairPos2: "'kern' Horizontal Kerning in Arabic lookup 0 subtable" uniFB6A dx=65 dy=0 dh=65 dv=0 dx=0 dy=0 dh=0 dv=0
PairPos2: "'kern' Horizontal Kerning in Arabic lookup 0 subtable" uniFB56 dx=65 dy=0 dh=65 dv=0 dx=0 dy=0 dh=0 dv=0
PairPos2: "'kern' Horizontal Kerning in Arabic lookup 0 subtable" uniFB50 dx=65 dy=0 dh=65 dv=0 dx=0 dy=0 dh=0 dv=0
EndChar

StartChar: che.fina
Encoding: 64379 64379 157
Width: 631
GlyphClass: 2
Flags: W
AnchorPoint: "Anchor-1" 135 -238 basechar 0
AnchorPoint: "Anchor-0" 152 539 basechar 0
LayerCount: 2
Fore
SplineSet
302 41 m 1
 227 41 l 1
 227 116 l 1
 302 116 l 1
 302 41 l 1
419 41 m 1
 344 41 l 1
 344 116 l 1
 419 116 l 1
 419 41 l 1
361 -74 m 1
 286 -74 l 1
 286 1 l 1
 361 1 l 1
 361 -74 l 1
58 16 m 0
 58 130 144 218 314 280 c 1
 206 340 l 2
 188 348 177 352 170 352 c 0
 163 352 160 350 154 343 c 2
 97 280 l 1
 58 319 l 1
 107 397 l 2
 110 401 114 406 117 410 c 0
 120 414 127 419 136 425 c 0
 145 431 158 433 172 433 c 0
 186 433 207 425 235 411 c 2
 374 337 l 2
 399 325 433 319 474 319 c 0
 485 319 495 318 504 318 c 2
 564 318 l 1
 564 238 l 1
 499 238 l 1
 529 155 l 2
 537 132 547 115 558 106 c 0
 578 90 603 80 634 80 c 1
 634 0 l 1
 565 0 516 26 490 80 c 0
 482 96 476 115 470 135 c 2
 443 231 l 1
 280 203 180 154 140 84 c 0
 130 66 124 46 124 24 c 0
 125 -80 191 -133 321 -133 c 0
 402 -133 472 -125 531 -107 c 1
 548 -174 l 1
 471 -200 393 -213 314 -213 c 2
 312 -213 l 2
 179 -213 97 -162 68 -60 c 0
 60 -36 58 -10 58 16 c 0
EndSplineSet
PairPos2: "'kern' Horizontal Kerning in Arabic lookup 0 subtable" gaf_ye.farsi.isol dx=48 dy=0 dh=48 dv=0 dx=0 dy=0 dh=0 dv=0
PairPos2: "'kern' Horizontal Kerning in Arabic lookup 0 subtable" kaf.farsi_ye.farsi.isol dx=48 dy=0 dh=48 dv=0 dx=0 dy=0 dh=0 dv=0
PairPos2: "'kern' Horizontal Kerning in Arabic lookup 0 subtable" lam_ye.farsi.isol dx=65 dy=0 dh=65 dv=0 dx=0 dy=0 dh=0 dv=0
PairPos2: "'kern' Horizontal Kerning in Arabic lookup 0 subtable" mim_ye.farsi.isol dx=65 dy=0 dh=65 dv=0 dx=0 dy=0 dh=0 dv=0
PairPos2: "'kern' Horizontal Kerning in Arabic lookup 0 subtable" zad_ye.farsi.isol dx=65 dy=0 dh=65 dv=0 dx=0 dy=0 dh=0 dv=0
PairPos2: "'kern' Horizontal Kerning in Arabic lookup 0 subtable" shin_ye.farsi.isol dx=65 dy=0 dh=65 dv=0 dx=0 dy=0 dh=0 dv=0
PairPos2: "'kern' Horizontal Kerning in Arabic lookup 0 subtable" sad_ye.farsi.isol dx=65 dy=0 dh=65 dv=0 dx=0 dy=0 dh=0 dv=0
PairPos2: "'kern' Horizontal Kerning in Arabic lookup 0 subtable" sin_ye.farsi.isol dx=65 dy=0 dh=65 dv=0 dx=0 dy=0 dh=0 dv=0
PairPos2: "'kern' Horizontal Kerning in Arabic lookup 0 subtable" uniFEFB_earab.tanvin_fatheh dx=65 dy=0 dh=65 dv=0 dx=0 dy=0 dh=0 dv=0
PairPos2: "'kern' Horizontal Kerning in Arabic lookup 0 subtable" he8_uni0654.init dx=65 dy=0 dh=65 dv=0 dx=0 dy=0 dh=0 dv=0
PairPos2: "'kern' Horizontal Kerning in Arabic lookup 0 subtable" he8_uni0654.isol dx=65 dy=0 dh=65 dv=0 dx=0 dy=0 dh=0 dv=0
PairPos2: "'kern' Horizontal Kerning in Arabic lookup 0 subtable" uniFEFB dx=65 dy=0 dh=65 dv=0 dx=0 dy=0 dh=0 dv=0
PairPos2: "'kern' Horizontal Kerning in Arabic lookup 0 subtable" uniFEF7 dx=65 dy=0 dh=65 dv=0 dx=0 dy=0 dh=0 dv=0
PairPos2: "'kern' Horizontal Kerning in Arabic lookup 0 subtable" uniFEF5 dx=65 dy=0 dh=65 dv=0 dx=0 dy=0 dh=0 dv=0
PairPos2: "'kern' Horizontal Kerning in Arabic lookup 0 subtable" uniFEED dx=65 dy=0 dh=65 dv=0 dx=0 dy=0 dh=0 dv=0
PairPos2: "'kern' Horizontal Kerning in Arabic lookup 0 subtable" he8.init dx=65 dy=0 dh=65 dv=0 dx=0 dy=0 dh=0 dv=0
PairPos2: "'kern' Horizontal Kerning in Arabic lookup 0 subtable" uniFEE9 dx=65 dy=0 dh=65 dv=0 dx=0 dy=0 dh=0 dv=0
PairPos2: "'kern' Horizontal Kerning in Arabic lookup 0 subtable" nun.init dx=65 dy=0 dh=65 dv=0 dx=0 dy=0 dh=0 dv=0
PairPos2: "'kern' Horizontal Kerning in Arabic lookup 0 subtable" mim.init dx=65 dy=0 dh=65 dv=0 dx=0 dy=0 dh=0 dv=0
PairPos2: "'kern' Horizontal Kerning in Arabic lookup 0 subtable" uniFEE1 dx=65 dy=0 dh=65 dv=0 dx=0 dy=0 dh=0 dv=0
PairPos2: "'kern' Horizontal Kerning in Arabic lookup 0 subtable" lam.init dx=65 dy=0 dh=65 dv=0 dx=0 dy=0 dh=0 dv=0
PairPos2: "'kern' Horizontal Kerning in Arabic lookup 0 subtable" uniFEDD dx=65 dy=0 dh=65 dv=0 dx=0 dy=0 dh=0 dv=0
PairPos2: "'kern' Horizontal Kerning in Arabic lookup 0 subtable" uniFEDB dx=48 dy=0 dh=48 dv=0 dx=0 dy=0 dh=0 dv=0
PairPos2: "'kern' Horizontal Kerning in Arabic lookup 0 subtable" uniFED9 dx=65 dy=0 dh=65 dv=0 dx=0 dy=0 dh=0 dv=0
PairPos2: "'kern' Horizontal Kerning in Arabic lookup 0 subtable" qaf.init dx=65 dy=0 dh=65 dv=0 dx=0 dy=0 dh=0 dv=0
PairPos2: "'kern' Horizontal Kerning in Arabic lookup 0 subtable" fe.init dx=65 dy=0 dh=65 dv=0 dx=0 dy=0 dh=0 dv=0
PairPos2: "'kern' Horizontal Kerning in Arabic lookup 0 subtable" uniFED1 dx=65 dy=0 dh=65 dv=0 dx=0 dy=0 dh=0 dv=0
PairPos2: "'kern' Horizontal Kerning in Arabic lookup 0 subtable" qein.init dx=65 dy=0 dh=65 dv=0 dx=0 dy=0 dh=0 dv=0
PairPos2: "'kern' Horizontal Kerning in Arabic lookup 0 subtable" uniFECD dx=65 dy=0 dh=65 dv=0 dx=0 dy=0 dh=0 dv=0
PairPos2: "'kern' Horizontal Kerning in Arabic lookup 0 subtable" ein.init dx=65 dy=0 dh=65 dv=0 dx=0 dy=0 dh=0 dv=0
PairPos2: "'kern' Horizontal Kerning in Arabic lookup 0 subtable" uniFEC9 dx=65 dy=0 dh=65 dv=0 dx=0 dy=0 dh=0 dv=0
PairPos2: "'kern' Horizontal Kerning in Arabic lookup 0 subtable" za.init dx=65 dy=0 dh=65 dv=0 dx=0 dy=0 dh=0 dv=0
PairPos2: "'kern' Horizontal Kerning in Arabic lookup 0 subtable" uniFEC5 dx=65 dy=0 dh=65 dv=0 dx=0 dy=0 dh=0 dv=0
PairPos2: "'kern' Horizontal Kerning in Arabic lookup 0 subtable" ta.init dx=65 dy=0 dh=65 dv=0 dx=0 dy=0 dh=0 dv=0
PairPos2: "'kern' Horizontal Kerning in Arabic lookup 0 subtable" uniFEC1 dx=65 dy=0 dh=65 dv=0 dx=0 dy=0 dh=0 dv=0
PairPos2: "'kern' Horizontal Kerning in Arabic lookup 0 subtable" zad.init dx=65 dy=0 dh=65 dv=0 dx=0 dy=0 dh=0 dv=0
PairPos2: "'kern' Horizontal Kerning in Arabic lookup 0 subtable" uniFEBD dx=65 dy=0 dh=65 dv=0 dx=0 dy=0 dh=0 dv=0
PairPos2: "'kern' Horizontal Kerning in Arabic lookup 0 subtable" sad.init dx=65 dy=0 dh=65 dv=0 dx=0 dy=0 dh=0 dv=0
PairPos2: "'kern' Horizontal Kerning in Arabic lookup 0 subtable" uniFEB9 dx=65 dy=0 dh=65 dv=0 dx=0 dy=0 dh=0 dv=0
PairPos2: "'kern' Horizontal Kerning in Arabic lookup 0 subtable" shin.init dx=65 dy=0 dh=65 dv=0 dx=0 dy=0 dh=0 dv=0
PairPos2: "'kern' Horizontal Kerning in Arabic lookup 0 subtable" uniFEB5 dx=65 dy=0 dh=65 dv=0 dx=0 dy=0 dh=0 dv=0
PairPos2: "'kern' Horizontal Kerning in Arabic lookup 0 subtable" sin.init dx=65 dy=0 dh=65 dv=0 dx=0 dy=0 dh=0 dv=0
PairPos2: "'kern' Horizontal Kerning in Arabic lookup 0 subtable" uniFEB1 dx=65 dy=0 dh=65 dv=0 dx=0 dy=0 dh=0 dv=0
PairPos2: "'kern' Horizontal Kerning in Arabic lookup 0 subtable" uniFEAF dx=65 dy=0 dh=65 dv=0 dx=0 dy=0 dh=0 dv=0
PairPos2: "'kern' Horizontal Kerning in Arabic lookup 0 subtable" uniFEAD dx=65 dy=0 dh=65 dv=0 dx=0 dy=0 dh=0 dv=0
PairPos2: "'kern' Horizontal Kerning in Arabic lookup 0 subtable" uniFEAB dx=65 dy=0 dh=65 dv=0 dx=0 dy=0 dh=0 dv=0
PairPos2: "'kern' Horizontal Kerning in Arabic lookup 0 subtable" uniFEA9 dx=65 dy=0 dh=65 dv=0 dx=0 dy=0 dh=0 dv=0
PairPos2: "'kern' Horizontal Kerning in Arabic lookup 0 subtable" khe.init dx=65 dy=0 dh=65 dv=0 dx=0 dy=0 dh=0 dv=0
PairPos2: "'kern' Horizontal Kerning in Arabic lookup 0 subtable" uniFEA5 dx=65 dy=0 dh=65 dv=0 dx=0 dy=0 dh=0 dv=0
PairPos2: "'kern' Horizontal Kerning in Arabic lookup 0 subtable" him.init dx=65 dy=0 dh=65 dv=0 dx=0 dy=0 dh=0 dv=0
PairPos2: "'kern' Horizontal Kerning in Arabic lookup 0 subtable" uniFEA1 dx=65 dy=0 dh=65 dv=0 dx=0 dy=0 dh=0 dv=0
PairPos2: "'kern' Horizontal Kerning in Arabic lookup 0 subtable" jim.init dx=65 dy=0 dh=65 dv=0 dx=0 dy=0 dh=0 dv=0
PairPos2: "'kern' Horizontal Kerning in Arabic lookup 0 subtable" uniFE9D dx=65 dy=0 dh=65 dv=0 dx=0 dy=0 dh=0 dv=0
PairPos2: "'kern' Horizontal Kerning in Arabic lookup 0 subtable" the.init dx=65 dy=0 dh=65 dv=0 dx=0 dy=0 dh=0 dv=0
PairPos2: "'kern' Horizontal Kerning in Arabic lookup 0 subtable" te.init dx=65 dy=0 dh=65 dv=0 dx=0 dy=0 dh=0 dv=0
PairPos2: "'kern' Horizontal Kerning in Arabic lookup 0 subtable" uniFE95 dx=65 dy=0 dh=65 dv=0 dx=0 dy=0 dh=0 dv=0
PairPos2: "'kern' Horizontal Kerning in Arabic lookup 0 subtable" uniFE93 dx=65 dy=0 dh=65 dv=0 dx=0 dy=0 dh=0 dv=0
PairPos2: "'kern' Horizontal Kerning in Arabic lookup 0 subtable" uniFE8D dx=65 dy=0 dh=65 dv=0 dx=0 dy=0 dh=0 dv=0
PairPos2: "'kern' Horizontal Kerning in Arabic lookup 0 subtable" ye.hamze.init dx=65 dy=0 dh=65 dv=0 dx=0 dy=0 dh=0 dv=0
PairPos2: "'kern' Horizontal Kerning in Arabic lookup 0 subtable" uniFE83 dx=65 dy=0 dh=65 dv=0 dx=0 dy=0 dh=0 dv=0
PairPos2: "'kern' Horizontal Kerning in Arabic lookup 0 subtable" uniFE81 dx=65 dy=0 dh=65 dv=0 dx=0 dy=0 dh=0 dv=0
PairPos2: "'kern' Horizontal Kerning in Arabic lookup 0 subtable" uniFE80 dx=65 dy=0 dh=65 dv=0 dx=0 dy=0 dh=0 dv=0
PairPos2: "'kern' Horizontal Kerning in Arabic lookup 0 subtable" uniFD3D dx=65 dy=0 dh=65 dv=0 dx=0 dy=0 dh=0 dv=0
PairPos2: "'kern' Horizontal Kerning in Arabic lookup 0 subtable" uniFBE8 dx=65 dy=0 dh=65 dv=0 dx=0 dy=0 dh=0 dv=0
PairPos2: "'kern' Horizontal Kerning in Arabic lookup 0 subtable" heye dx=65 dy=0 dh=65 dv=0 dx=0 dy=0 dh=0 dv=0
PairPos2: "'kern' Horizontal Kerning in Arabic lookup 0 subtable" gaf.init dx=48 dy=0 dh=48 dv=0 dx=0 dy=0 dh=0 dv=0
PairPos2: "'kern' Horizontal Kerning in Arabic lookup 0 subtable" uniFB92 dx=48 dy=0 dh=48 dv=0 dx=0 dy=0 dh=0 dv=0
PairPos2: "'kern' Horizontal Kerning in Arabic lookup 0 subtable" kaf.init dx=48 dy=0 dh=48 dv=0 dx=0 dy=0 dh=0 dv=0
PairPos2: "'kern' Horizontal Kerning in Arabic lookup 0 subtable" uniFB8E dx=48 dy=0 dh=48 dv=0 dx=0 dy=0 dh=0 dv=0
PairPos2: "'kern' Horizontal Kerning in Arabic lookup 0 subtable" uniFB8A dx=65 dy=0 dh=65 dv=0 dx=0 dy=0 dh=0 dv=0
PairPos2: "'kern' Horizontal Kerning in Arabic lookup 0 subtable" che.init dx=65 dy=0 dh=65 dv=0 dx=0 dy=0 dh=0 dv=0
PairPos2: "'kern' Horizontal Kerning in Arabic lookup 0 subtable" uniFB7A dx=65 dy=0 dh=65 dv=0 dx=0 dy=0 dh=0 dv=0
PairPos2: "'kern' Horizontal Kerning in Arabic lookup 0 subtable" uniFB6C dx=65 dy=0 dh=65 dv=0 dx=0 dy=0 dh=0 dv=0
PairPos2: "'kern' Horizontal Kerning in Arabic lookup 0 subtable" uniFB6A dx=65 dy=0 dh=65 dv=0 dx=0 dy=0 dh=0 dv=0
PairPos2: "'kern' Horizontal Kerning in Arabic lookup 0 subtable" uniFB56 dx=65 dy=0 dh=65 dv=0 dx=0 dy=0 dh=0 dv=0
PairPos2: "'kern' Horizontal Kerning in Arabic lookup 0 subtable" uniFB50 dx=65 dy=0 dh=65 dv=0 dx=0 dy=0 dh=0 dv=0
EndChar

StartChar: che.init
Encoding: 64380 64380 158
Width: 631
GlyphClass: 2
Flags: W
AnchorPoint: "Anchor-1" 233 -286 basechar 0
AnchorPoint: "Anchor-0" 170 484 basechar 0
LayerCount: 2
Fore
SplineSet
185 -177 m 1
 101 -177 l 1
 101 -92 l 1
 185 -92 l 1
 185 -177 l 1
316 -177 m 1
 232 -177 l 1
 232 -92 l 1
 316 -92 l 1
 316 -177 l 1
250 -305 m 1
 166 -305 l 1
 166 -221 l 1
 250 -221 l 1
 250 -305 l 1
573 148 m 1
 521 148 l 2
 493 148 467 139 444 123 c 0
 381 73 328 41 284 25 c 0
 240 9 207 0 182 0 c 2
 0 0 l 2
 -10 0 -20 3 -30 6 c 1
 -30 80 l 1
 182 80 l 2
 227 80 279 101 343 142 c 0
 358 152 372 160 381 168 c 1
 378 170 372 172 368 174 c 0
 364 176 361 178 358 180 c 2
 212 264 l 2
 196 273 184 277 176 277 c 0
 168 277 162 273 154 265 c 2
 99 207 l 1
 58 245 l 1
 111 322 l 2
 129 345 153 358 185 358 c 0
 200 358 221 351 244 336 c 2
 388 251 l 2
 414 238 442 231 470 230 c 0
 498 229 521 229 543 229 c 2
 573 229 l 1
 573 148 l 1
EndSplineSet
EndChar

StartChar: che.medi
Encoding: 64381 64381 159
Width: 644
GlyphClass: 2
Flags: W
AnchorPoint: "Anchor-1" 397 -274 basechar 0
AnchorPoint: "Anchor-0" 170 484 basechar 0
LayerCount: 2
Fore
SplineSet
185 -177 m 1
 101 -177 l 1
 101 -92 l 1
 185 -92 l 1
 185 -177 l 1
316 -177 m 1
 232 -177 l 1
 232 -92 l 1
 316 -92 l 1
 316 -177 l 1
250 -305 m 1
 166 -305 l 1
 166 -221 l 1
 250 -221 l 1
 250 -305 l 1
647 0 m 1
 580 0 532 8 507 21 c 0
 482 34 461 63 447 106 c 2
 441 122 l 1
 373 71 320 39 280 24 c 0
 240 9 207 0 178 0 c 2
 0 0 l 2
 -10 0 -20 3 -30 6 c 1
 -30 80 l 1
 178 80 l 2
 223 80 277 101 341 142 c 0
 356 152 368 160 377 168 c 1
 374 170 369 172 365 174 c 0
 361 176 357 178 355 180 c 2
 210 264 l 2
 194 273 181 277 173 277 c 0
 165 277 159 273 152 265 c 2
 97 207 l 1
 56 245 l 1
 108 322 l 2
 124 345 150 358 182 358 c 0
 197 358 217 351 241 336 c 2
 386 251 l 2
 412 238 440 231 468 230 c 0
 496 229 519 229 541 229 c 2
 571 229 l 1
 571 148 l 1
 518 148 l 2
 514 148 510 147 506 147 c 0
 502 147 498 146 495 146 c 2
 500 135 l 2
 510 114 525 100 546 92 c 0
 567 84 600 80 647 80 c 1
 647 0 l 1
EndSplineSet
EndChar

StartChar: uniFB8A
Encoding: 64394 64394 160
Width: 451
GlyphClass: 2
Flags: W
AnchorPoint: "Anchor-1" 187 -238 basechar 0
AnchorPoint: "Anchor-0" 125 641 basechar 0
LayerCount: 2
Fore
SplineSet
219 411 m 1
 135 411 l 1
 135 495 l 1
 219 495 l 1
 219 411 l 1
350 411 m 1
 266 411 l 1
 266 495 l 1
 350 495 l 1
 350 411 l 1
284 539 m 1
 200 539 l 1
 200 623 l 1
 284 623 l 1
 284 539 l 1
34 -156 m 1
 188 -100 283 -40 317 23 c 0
 325 36 328 53 328 74 c 0
 328 95 323 122 312 155 c 0
 301 188 290 211 279 224 c 1
 331 274 l 1
 356 242 376 191 389 123 c 0
 393 103 395 84 395 64 c 0
 395 26 378 -15 344 -56 c 0
 287 -126 190 -186 55 -233 c 1
 34 -156 l 1
EndSplineSet
PairPos2: "'kern' Horizontal Kerning in Arabic lookup 0 subtable" gaf_ye.farsi.isol dx=-70 dy=0 dh=-70 dv=0 dx=0 dy=0 dh=0 dv=0
PairPos2: "'kern' Horizontal Kerning in Arabic lookup 0 subtable" kaf.farsi_ye.farsi.isol dx=-70 dy=0 dh=-70 dv=0 dx=0 dy=0 dh=0 dv=0
PairPos2: "'kern' Horizontal Kerning in Arabic lookup 0 subtable" lam_ye.farsi.isol dx=-70 dy=0 dh=-70 dv=0 dx=0 dy=0 dh=0 dv=0
PairPos2: "'kern' Horizontal Kerning in Arabic lookup 0 subtable" mim_ye.farsi.isol dx=-70 dy=0 dh=-70 dv=0 dx=0 dy=0 dh=0 dv=0
PairPos2: "'kern' Horizontal Kerning in Arabic lookup 0 subtable" zad_ye.farsi.isol dx=-70 dy=0 dh=-70 dv=0 dx=0 dy=0 dh=0 dv=0
PairPos2: "'kern' Horizontal Kerning in Arabic lookup 0 subtable" shin_ye.farsi.isol dx=-70 dy=0 dh=-70 dv=0 dx=0 dy=0 dh=0 dv=0
PairPos2: "'kern' Horizontal Kerning in Arabic lookup 0 subtable" sad_ye.farsi.isol dx=-70 dy=0 dh=-70 dv=0 dx=0 dy=0 dh=0 dv=0
PairPos2: "'kern' Horizontal Kerning in Arabic lookup 0 subtable" sin_ye.farsi.isol dx=-70 dy=0 dh=-70 dv=0 dx=0 dy=0 dh=0 dv=0
PairPos2: "'kern' Horizontal Kerning in Arabic lookup 0 subtable" uniFEFB_earab.tanvin_fatheh dx=-52 dy=0 dh=-52 dv=0 dx=0 dy=0 dh=0 dv=0
PairPos2: "'kern' Horizontal Kerning in Arabic lookup 0 subtable" he8_uni0654.init dx=-70 dy=0 dh=-70 dv=0 dx=0 dy=0 dh=0 dv=0
PairPos2: "'kern' Horizontal Kerning in Arabic lookup 0 subtable" he8_uni0654.isol dx=-70 dy=0 dh=-70 dv=0 dx=0 dy=0 dh=0 dv=0
PairPos2: "'kern' Horizontal Kerning in Arabic lookup 0 subtable" uniFEFB dx=-52 dy=0 dh=-52 dv=0 dx=0 dy=0 dh=0 dv=0
PairPos2: "'kern' Horizontal Kerning in Arabic lookup 0 subtable" uniFEF7 dx=-52 dy=0 dh=-52 dv=0 dx=0 dy=0 dh=0 dv=0
PairPos2: "'kern' Horizontal Kerning in Arabic lookup 0 subtable" uniFEF5 dx=-52 dy=0 dh=-52 dv=0 dx=0 dy=0 dh=0 dv=0
PairPos2: "'kern' Horizontal Kerning in Arabic lookup 0 subtable" uniFEED dx=-40 dy=0 dh=-40 dv=0 dx=0 dy=0 dh=0 dv=0
PairPos2: "'kern' Horizontal Kerning in Arabic lookup 0 subtable" he8.init dx=-70 dy=0 dh=-70 dv=0 dx=0 dy=0 dh=0 dv=0
PairPos2: "'kern' Horizontal Kerning in Arabic lookup 0 subtable" uniFEE9 dx=-70 dy=0 dh=-70 dv=0 dx=0 dy=0 dh=0 dv=0
PairPos2: "'kern' Horizontal Kerning in Arabic lookup 0 subtable" nun.init dx=-70 dy=0 dh=-70 dv=0 dx=0 dy=0 dh=0 dv=0
PairPos2: "'kern' Horizontal Kerning in Arabic lookup 0 subtable" mim.init dx=-70 dy=0 dh=-70 dv=0 dx=0 dy=0 dh=0 dv=0
PairPos2: "'kern' Horizontal Kerning in Arabic lookup 0 subtable" uniFEE1 dx=-70 dy=0 dh=-70 dv=0 dx=0 dy=0 dh=0 dv=0
PairPos2: "'kern' Horizontal Kerning in Arabic lookup 0 subtable" lam.init dx=-52 dy=0 dh=-52 dv=0 dx=0 dy=0 dh=0 dv=0
PairPos2: "'kern' Horizontal Kerning in Arabic lookup 0 subtable" uniFEDB dx=-70 dy=0 dh=-70 dv=0 dx=0 dy=0 dh=0 dv=0
PairPos2: "'kern' Horizontal Kerning in Arabic lookup 0 subtable" uniFED9 dx=-52 dy=0 dh=-52 dv=0 dx=0 dy=0 dh=0 dv=0
PairPos2: "'kern' Horizontal Kerning in Arabic lookup 0 subtable" qaf.init dx=-70 dy=0 dh=-70 dv=0 dx=0 dy=0 dh=0 dv=0
PairPos2: "'kern' Horizontal Kerning in Arabic lookup 0 subtable" fe.init dx=-70 dy=0 dh=-70 dv=0 dx=0 dy=0 dh=0 dv=0
PairPos2: "'kern' Horizontal Kerning in Arabic lookup 0 subtable" uniFED1 dx=-70 dy=0 dh=-70 dv=0 dx=0 dy=0 dh=0 dv=0
PairPos2: "'kern' Horizontal Kerning in Arabic lookup 0 subtable" qein.init dx=-70 dy=0 dh=-70 dv=0 dx=0 dy=0 dh=0 dv=0
PairPos2: "'kern' Horizontal Kerning in Arabic lookup 0 subtable" ein.init dx=-70 dy=0 dh=-70 dv=0 dx=0 dy=0 dh=0 dv=0
PairPos2: "'kern' Horizontal Kerning in Arabic lookup 0 subtable" za.init dx=-70 dy=0 dh=-70 dv=0 dx=0 dy=0 dh=0 dv=0
PairPos2: "'kern' Horizontal Kerning in Arabic lookup 0 subtable" uniFEC5 dx=-70 dy=0 dh=-70 dv=0 dx=0 dy=0 dh=0 dv=0
PairPos2: "'kern' Horizontal Kerning in Arabic lookup 0 subtable" ta.init dx=-70 dy=0 dh=-70 dv=0 dx=0 dy=0 dh=0 dv=0
PairPos2: "'kern' Horizontal Kerning in Arabic lookup 0 subtable" uniFEC1 dx=-70 dy=0 dh=-70 dv=0 dx=0 dy=0 dh=0 dv=0
PairPos2: "'kern' Horizontal Kerning in Arabic lookup 0 subtable" zad.init dx=-70 dy=0 dh=-70 dv=0 dx=0 dy=0 dh=0 dv=0
PairPos2: "'kern' Horizontal Kerning in Arabic lookup 0 subtable" uniFEBD dx=-70 dy=0 dh=-70 dv=0 dx=0 dy=0 dh=0 dv=0
PairPos2: "'kern' Horizontal Kerning in Arabic lookup 0 subtable" sad.init dx=-70 dy=0 dh=-70 dv=0 dx=0 dy=0 dh=0 dv=0
PairPos2: "'kern' Horizontal Kerning in Arabic lookup 0 subtable" uniFEB9 dx=-70 dy=0 dh=-70 dv=0 dx=0 dy=0 dh=0 dv=0
PairPos2: "'kern' Horizontal Kerning in Arabic lookup 0 subtable" shin.init dx=-70 dy=0 dh=-70 dv=0 dx=0 dy=0 dh=0 dv=0
PairPos2: "'kern' Horizontal Kerning in Arabic lookup 0 subtable" uniFEB5 dx=-70 dy=0 dh=-70 dv=0 dx=0 dy=0 dh=0 dv=0
PairPos2: "'kern' Horizontal Kerning in Arabic lookup 0 subtable" sin.init dx=-70 dy=0 dh=-70 dv=0 dx=0 dy=0 dh=0 dv=0
PairPos2: "'kern' Horizontal Kerning in Arabic lookup 0 subtable" uniFEB1 dx=-70 dy=0 dh=-70 dv=0 dx=0 dy=0 dh=0 dv=0
PairPos2: "'kern' Horizontal Kerning in Arabic lookup 0 subtable" uniFEAF dx=-40 dy=0 dh=-40 dv=0 dx=0 dy=0 dh=0 dv=0
PairPos2: "'kern' Horizontal Kerning in Arabic lookup 0 subtable" uniFEAD dx=-40 dy=0 dh=-40 dv=0 dx=0 dy=0 dh=0 dv=0
PairPos2: "'kern' Horizontal Kerning in Arabic lookup 0 subtable" uniFEAB dx=-70 dy=0 dh=-70 dv=0 dx=0 dy=0 dh=0 dv=0
PairPos2: "'kern' Horizontal Kerning in Arabic lookup 0 subtable" uniFEA9 dx=-70 dy=0 dh=-70 dv=0 dx=0 dy=0 dh=0 dv=0
PairPos2: "'kern' Horizontal Kerning in Arabic lookup 0 subtable" khe.init dx=-70 dy=0 dh=-70 dv=0 dx=0 dy=0 dh=0 dv=0
PairPos2: "'kern' Horizontal Kerning in Arabic lookup 0 subtable" him.init dx=-70 dy=0 dh=-70 dv=0 dx=0 dy=0 dh=0 dv=0
PairPos2: "'kern' Horizontal Kerning in Arabic lookup 0 subtable" jim.init dx=-70 dy=0 dh=-70 dv=0 dx=0 dy=0 dh=0 dv=0
PairPos2: "'kern' Horizontal Kerning in Arabic lookup 0 subtable" the.init dx=-70 dy=0 dh=-70 dv=0 dx=0 dy=0 dh=0 dv=0
PairPos2: "'kern' Horizontal Kerning in Arabic lookup 0 subtable" te.init dx=-70 dy=0 dh=-70 dv=0 dx=0 dy=0 dh=0 dv=0
PairPos2: "'kern' Horizontal Kerning in Arabic lookup 0 subtable" uniFE95 dx=-70 dy=0 dh=-70 dv=0 dx=0 dy=0 dh=0 dv=0
PairPos2: "'kern' Horizontal Kerning in Arabic lookup 0 subtable" uniFE93 dx=-70 dy=0 dh=-70 dv=0 dx=0 dy=0 dh=0 dv=0
PairPos2: "'kern' Horizontal Kerning in Arabic lookup 0 subtable" uniFE8D dx=-52 dy=0 dh=-52 dv=0 dx=0 dy=0 dh=0 dv=0
PairPos2: "'kern' Horizontal Kerning in Arabic lookup 0 subtable" ye.hamze.init dx=-70 dy=0 dh=-70 dv=0 dx=0 dy=0 dh=0 dv=0
PairPos2: "'kern' Horizontal Kerning in Arabic lookup 0 subtable" uniFE80 dx=-70 dy=0 dh=-70 dv=0 dx=0 dy=0 dh=0 dv=0
PairPos2: "'kern' Horizontal Kerning in Arabic lookup 0 subtable" uniFD3D dx=-52 dy=0 dh=-52 dv=0 dx=0 dy=0 dh=0 dv=0
PairPos2: "'kern' Horizontal Kerning in Arabic lookup 0 subtable" uniFBE8 dx=-70 dy=0 dh=-70 dv=0 dx=0 dy=0 dh=0 dv=0
PairPos2: "'kern' Horizontal Kerning in Arabic lookup 0 subtable" heye dx=-70 dy=0 dh=-70 dv=0 dx=0 dy=0 dh=0 dv=0
PairPos2: "'kern' Horizontal Kerning in Arabic lookup 0 subtable" gaf.init dx=-70 dy=0 dh=-70 dv=0 dx=0 dy=0 dh=0 dv=0
PairPos2: "'kern' Horizontal Kerning in Arabic lookup 0 subtable" uniFB92 dx=-70 dy=0 dh=-70 dv=0 dx=0 dy=0 dh=0 dv=0
PairPos2: "'kern' Horizontal Kerning in Arabic lookup 0 subtable" kaf.init dx=-70 dy=0 dh=-70 dv=0 dx=0 dy=0 dh=0 dv=0
PairPos2: "'kern' Horizontal Kerning in Arabic lookup 0 subtable" uniFB8E dx=-70 dy=0 dh=-70 dv=0 dx=0 dy=0 dh=0 dv=0
PairPos2: "'kern' Horizontal Kerning in Arabic lookup 0 subtable" uniFB8A dx=-40 dy=0 dh=-40 dv=0 dx=0 dy=0 dh=0 dv=0
PairPos2: "'kern' Horizontal Kerning in Arabic lookup 0 subtable" che.init dx=-70 dy=0 dh=-70 dv=0 dx=0 dy=0 dh=0 dv=0
PairPos2: "'kern' Horizontal Kerning in Arabic lookup 0 subtable" uniFB6C dx=-70 dy=0 dh=-70 dv=0 dx=0 dy=0 dh=0 dv=0
PairPos2: "'kern' Horizontal Kerning in Arabic lookup 0 subtable" uniFB6A dx=-70 dy=0 dh=-70 dv=0 dx=0 dy=0 dh=0 dv=0
PairPos2: "'kern' Horizontal Kerning in Arabic lookup 0 subtable" uniFB56 dx=-70 dy=0 dh=-70 dv=0 dx=0 dy=0 dh=0 dv=0
EndChar

StartChar: je.fina
Encoding: 64395 64395 161
Width: 526
GlyphClass: 2
Flags: W
AnchorPoint: "Anchor-1" 187 -238 basechar 0
AnchorPoint: "Anchor-0" 125 641 basechar 0
LayerCount: 2
Fore
SplineSet
219 411 m 1
 135 411 l 1
 135 495 l 1
 219 495 l 1
 219 411 l 1
350 411 m 1
 266 411 l 1
 266 495 l 1
 350 495 l 1
 350 411 l 1
284 539 m 1
 200 539 l 1
 200 623 l 1
 284 623 l 1
 284 539 l 1
527 0 m 1
 469 0 425 10 396 32 c 1
 381 -49 294 -126 134 -198 c 0
 110 -209 87 -219 64 -229 c 1
 36 -157 l 1
 58 -146 81 -136 104 -125 c 0
 193 -84 254 -48 287 -16 c 0
 320 16 336 47 336 79 c 0
 336 137 327 189 309 231 c 1
 372 255 l 1
 398 162 l 2
 407 133 417 115 428 106 c 0
 450 90 483 80 527 80 c 1
 527 0 l 1
EndSplineSet
PairPos2: "'kern' Horizontal Kerning in Arabic lookup 0 subtable" gaf_ye.farsi.isol dx=-70 dy=0 dh=-70 dv=0 dx=0 dy=0 dh=0 dv=0
PairPos2: "'kern' Horizontal Kerning in Arabic lookup 0 subtable" kaf.farsi_ye.farsi.isol dx=-70 dy=0 dh=-70 dv=0 dx=0 dy=0 dh=0 dv=0
PairPos2: "'kern' Horizontal Kerning in Arabic lookup 0 subtable" lam_ye.farsi.isol dx=-70 dy=0 dh=-70 dv=0 dx=0 dy=0 dh=0 dv=0
PairPos2: "'kern' Horizontal Kerning in Arabic lookup 0 subtable" mim_ye.farsi.isol dx=-70 dy=0 dh=-70 dv=0 dx=0 dy=0 dh=0 dv=0
PairPos2: "'kern' Horizontal Kerning in Arabic lookup 0 subtable" zad_ye.farsi.isol dx=-70 dy=0 dh=-70 dv=0 dx=0 dy=0 dh=0 dv=0
PairPos2: "'kern' Horizontal Kerning in Arabic lookup 0 subtable" shin_ye.farsi.isol dx=-70 dy=0 dh=-70 dv=0 dx=0 dy=0 dh=0 dv=0
PairPos2: "'kern' Horizontal Kerning in Arabic lookup 0 subtable" sad_ye.farsi.isol dx=-70 dy=0 dh=-70 dv=0 dx=0 dy=0 dh=0 dv=0
PairPos2: "'kern' Horizontal Kerning in Arabic lookup 0 subtable" sin_ye.farsi.isol dx=-70 dy=0 dh=-70 dv=0 dx=0 dy=0 dh=0 dv=0
PairPos2: "'kern' Horizontal Kerning in Arabic lookup 0 subtable" uniFEFB_earab.tanvin_fatheh dx=-52 dy=0 dh=-52 dv=0 dx=0 dy=0 dh=0 dv=0
PairPos2: "'kern' Horizontal Kerning in Arabic lookup 0 subtable" he8_uni0654.init dx=-70 dy=0 dh=-70 dv=0 dx=0 dy=0 dh=0 dv=0
PairPos2: "'kern' Horizontal Kerning in Arabic lookup 0 subtable" he8_uni0654.isol dx=-70 dy=0 dh=-70 dv=0 dx=0 dy=0 dh=0 dv=0
PairPos2: "'kern' Horizontal Kerning in Arabic lookup 0 subtable" uniFEFB dx=-52 dy=0 dh=-52 dv=0 dx=0 dy=0 dh=0 dv=0
PairPos2: "'kern' Horizontal Kerning in Arabic lookup 0 subtable" uniFEF7 dx=-52 dy=0 dh=-52 dv=0 dx=0 dy=0 dh=0 dv=0
PairPos2: "'kern' Horizontal Kerning in Arabic lookup 0 subtable" uniFEF5 dx=-52 dy=0 dh=-52 dv=0 dx=0 dy=0 dh=0 dv=0
PairPos2: "'kern' Horizontal Kerning in Arabic lookup 0 subtable" uniFEED dx=-40 dy=0 dh=-40 dv=0 dx=0 dy=0 dh=0 dv=0
PairPos2: "'kern' Horizontal Kerning in Arabic lookup 0 subtable" he8.init dx=-70 dy=0 dh=-70 dv=0 dx=0 dy=0 dh=0 dv=0
PairPos2: "'kern' Horizontal Kerning in Arabic lookup 0 subtable" uniFEE9 dx=-70 dy=0 dh=-70 dv=0 dx=0 dy=0 dh=0 dv=0
PairPos2: "'kern' Horizontal Kerning in Arabic lookup 0 subtable" nun.init dx=-70 dy=0 dh=-70 dv=0 dx=0 dy=0 dh=0 dv=0
PairPos2: "'kern' Horizontal Kerning in Arabic lookup 0 subtable" mim.init dx=-70 dy=0 dh=-70 dv=0 dx=0 dy=0 dh=0 dv=0
PairPos2: "'kern' Horizontal Kerning in Arabic lookup 0 subtable" uniFEE1 dx=-70 dy=0 dh=-70 dv=0 dx=0 dy=0 dh=0 dv=0
PairPos2: "'kern' Horizontal Kerning in Arabic lookup 0 subtable" lam.init dx=-52 dy=0 dh=-52 dv=0 dx=0 dy=0 dh=0 dv=0
PairPos2: "'kern' Horizontal Kerning in Arabic lookup 0 subtable" uniFEDB dx=-70 dy=0 dh=-70 dv=0 dx=0 dy=0 dh=0 dv=0
PairPos2: "'kern' Horizontal Kerning in Arabic lookup 0 subtable" uniFED9 dx=-52 dy=0 dh=-52 dv=0 dx=0 dy=0 dh=0 dv=0
PairPos2: "'kern' Horizontal Kerning in Arabic lookup 0 subtable" qaf.init dx=-70 dy=0 dh=-70 dv=0 dx=0 dy=0 dh=0 dv=0
PairPos2: "'kern' Horizontal Kerning in Arabic lookup 0 subtable" fe.init dx=-70 dy=0 dh=-70 dv=0 dx=0 dy=0 dh=0 dv=0
PairPos2: "'kern' Horizontal Kerning in Arabic lookup 0 subtable" uniFED1 dx=-70 dy=0 dh=-70 dv=0 dx=0 dy=0 dh=0 dv=0
PairPos2: "'kern' Horizontal Kerning in Arabic lookup 0 subtable" qein.init dx=-70 dy=0 dh=-70 dv=0 dx=0 dy=0 dh=0 dv=0
PairPos2: "'kern' Horizontal Kerning in Arabic lookup 0 subtable" ein.init dx=-70 dy=0 dh=-70 dv=0 dx=0 dy=0 dh=0 dv=0
PairPos2: "'kern' Horizontal Kerning in Arabic lookup 0 subtable" za.init dx=-70 dy=0 dh=-70 dv=0 dx=0 dy=0 dh=0 dv=0
PairPos2: "'kern' Horizontal Kerning in Arabic lookup 0 subtable" uniFEC5 dx=-70 dy=0 dh=-70 dv=0 dx=0 dy=0 dh=0 dv=0
PairPos2: "'kern' Horizontal Kerning in Arabic lookup 0 subtable" ta.init dx=-70 dy=0 dh=-70 dv=0 dx=0 dy=0 dh=0 dv=0
PairPos2: "'kern' Horizontal Kerning in Arabic lookup 0 subtable" uniFEC1 dx=-70 dy=0 dh=-70 dv=0 dx=0 dy=0 dh=0 dv=0
PairPos2: "'kern' Horizontal Kerning in Arabic lookup 0 subtable" zad.init dx=-70 dy=0 dh=-70 dv=0 dx=0 dy=0 dh=0 dv=0
PairPos2: "'kern' Horizontal Kerning in Arabic lookup 0 subtable" uniFEBD dx=-70 dy=0 dh=-70 dv=0 dx=0 dy=0 dh=0 dv=0
PairPos2: "'kern' Horizontal Kerning in Arabic lookup 0 subtable" sad.init dx=-70 dy=0 dh=-70 dv=0 dx=0 dy=0 dh=0 dv=0
PairPos2: "'kern' Horizontal Kerning in Arabic lookup 0 subtable" uniFEB9 dx=-70 dy=0 dh=-70 dv=0 dx=0 dy=0 dh=0 dv=0
PairPos2: "'kern' Horizontal Kerning in Arabic lookup 0 subtable" shin.init dx=-70 dy=0 dh=-70 dv=0 dx=0 dy=0 dh=0 dv=0
PairPos2: "'kern' Horizontal Kerning in Arabic lookup 0 subtable" uniFEB5 dx=-70 dy=0 dh=-70 dv=0 dx=0 dy=0 dh=0 dv=0
PairPos2: "'kern' Horizontal Kerning in Arabic lookup 0 subtable" sin.init dx=-70 dy=0 dh=-70 dv=0 dx=0 dy=0 dh=0 dv=0
PairPos2: "'kern' Horizontal Kerning in Arabic lookup 0 subtable" uniFEB1 dx=-70 dy=0 dh=-70 dv=0 dx=0 dy=0 dh=0 dv=0
PairPos2: "'kern' Horizontal Kerning in Arabic lookup 0 subtable" uniFEAF dx=-40 dy=0 dh=-40 dv=0 dx=0 dy=0 dh=0 dv=0
PairPos2: "'kern' Horizontal Kerning in Arabic lookup 0 subtable" uniFEAD dx=-40 dy=0 dh=-40 dv=0 dx=0 dy=0 dh=0 dv=0
PairPos2: "'kern' Horizontal Kerning in Arabic lookup 0 subtable" uniFEAB dx=-70 dy=0 dh=-70 dv=0 dx=0 dy=0 dh=0 dv=0
PairPos2: "'kern' Horizontal Kerning in Arabic lookup 0 subtable" uniFEA9 dx=-70 dy=0 dh=-70 dv=0 dx=0 dy=0 dh=0 dv=0
PairPos2: "'kern' Horizontal Kerning in Arabic lookup 0 subtable" khe.init dx=-70 dy=0 dh=-70 dv=0 dx=0 dy=0 dh=0 dv=0
PairPos2: "'kern' Horizontal Kerning in Arabic lookup 0 subtable" him.init dx=-70 dy=0 dh=-70 dv=0 dx=0 dy=0 dh=0 dv=0
PairPos2: "'kern' Horizontal Kerning in Arabic lookup 0 subtable" jim.init dx=-70 dy=0 dh=-70 dv=0 dx=0 dy=0 dh=0 dv=0
PairPos2: "'kern' Horizontal Kerning in Arabic lookup 0 subtable" the.init dx=-70 dy=0 dh=-70 dv=0 dx=0 dy=0 dh=0 dv=0
PairPos2: "'kern' Horizontal Kerning in Arabic lookup 0 subtable" te.init dx=-70 dy=0 dh=-70 dv=0 dx=0 dy=0 dh=0 dv=0
PairPos2: "'kern' Horizontal Kerning in Arabic lookup 0 subtable" uniFE95 dx=-70 dy=0 dh=-70 dv=0 dx=0 dy=0 dh=0 dv=0
PairPos2: "'kern' Horizontal Kerning in Arabic lookup 0 subtable" uniFE93 dx=-70 dy=0 dh=-70 dv=0 dx=0 dy=0 dh=0 dv=0
PairPos2: "'kern' Horizontal Kerning in Arabic lookup 0 subtable" uniFE8D dx=-52 dy=0 dh=-52 dv=0 dx=0 dy=0 dh=0 dv=0
PairPos2: "'kern' Horizontal Kerning in Arabic lookup 0 subtable" ye.hamze.init dx=-70 dy=0 dh=-70 dv=0 dx=0 dy=0 dh=0 dv=0
PairPos2: "'kern' Horizontal Kerning in Arabic lookup 0 subtable" uniFE80 dx=-70 dy=0 dh=-70 dv=0 dx=0 dy=0 dh=0 dv=0
PairPos2: "'kern' Horizontal Kerning in Arabic lookup 0 subtable" uniFD3D dx=-52 dy=0 dh=-52 dv=0 dx=0 dy=0 dh=0 dv=0
PairPos2: "'kern' Horizontal Kerning in Arabic lookup 0 subtable" uniFBE8 dx=-70 dy=0 dh=-70 dv=0 dx=0 dy=0 dh=0 dv=0
PairPos2: "'kern' Horizontal Kerning in Arabic lookup 0 subtable" heye dx=-70 dy=0 dh=-70 dv=0 dx=0 dy=0 dh=0 dv=0
PairPos2: "'kern' Horizontal Kerning in Arabic lookup 0 subtable" gaf.init dx=-70 dy=0 dh=-70 dv=0 dx=0 dy=0 dh=0 dv=0
PairPos2: "'kern' Horizontal Kerning in Arabic lookup 0 subtable" uniFB92 dx=-70 dy=0 dh=-70 dv=0 dx=0 dy=0 dh=0 dv=0
PairPos2: "'kern' Horizontal Kerning in Arabic lookup 0 subtable" kaf.init dx=-70 dy=0 dh=-70 dv=0 dx=0 dy=0 dh=0 dv=0
PairPos2: "'kern' Horizontal Kerning in Arabic lookup 0 subtable" uniFB8E dx=-70 dy=0 dh=-70 dv=0 dx=0 dy=0 dh=0 dv=0
PairPos2: "'kern' Horizontal Kerning in Arabic lookup 0 subtable" uniFB8A dx=-40 dy=0 dh=-40 dv=0 dx=0 dy=0 dh=0 dv=0
PairPos2: "'kern' Horizontal Kerning in Arabic lookup 0 subtable" che.init dx=-70 dy=0 dh=-70 dv=0 dx=0 dy=0 dh=0 dv=0
PairPos2: "'kern' Horizontal Kerning in Arabic lookup 0 subtable" uniFB6C dx=-70 dy=0 dh=-70 dv=0 dx=0 dy=0 dh=0 dv=0
PairPos2: "'kern' Horizontal Kerning in Arabic lookup 0 subtable" uniFB6A dx=-70 dy=0 dh=-70 dv=0 dx=0 dy=0 dh=0 dv=0
PairPos2: "'kern' Horizontal Kerning in Arabic lookup 0 subtable" uniFB56 dx=-70 dy=0 dh=-70 dv=0 dx=0 dy=0 dh=0 dv=0
EndChar

